<svg width="1512" height="1069" viewBox="0 0 1512 1069" fill="none" xmlns="http://www.w3.org/2000/svg">
<path d="M1512 0H0V1064.85C0 1067.14 2.91015 1069 6.5 1069C10.0899 1069 13 1067.14 13 1064.85V1023H38V1038.01C38 1040.31 40.9101 1042.17 44.5 1042.17C48.0899 1042.17 51 1040.31 51 1038.01V1023H76V1029.71C76 1032 78.9101 1033.86 82.5 1033.86C86.0899 1033.86 89 1032 89 1029.71V1023H95V1051.43C95 1053.72 97.9101 1055.58 101.5 1055.58C105.09 1055.58 108 1053.72 108 1051.43V1023H114V1064.85C114 1067.14 116.91 1069 120.5 1069C124.09 1069 127 1067.14 127 1064.85V1023H152V1038.01C152 1040.31 154.91 1042.17 158.5 1042.17C162.09 1042.17 165 1040.31 165 1038.01V1023H190V1029.71C190 1032 192.91 1033.86 196.5 1033.86C200.09 1033.86 203 1032 203 1029.71V1023H209V1051.43C209 1053.72 211.91 1055.58 215.5 1055.58C219.09 1055.58 222 1053.72 222 1051.43V1023H228V1064.85C228 1067.14 230.91 1069 234.5 1069C238.09 1069 241 1067.14 241 1064.85V1023H266V1038.01C266 1040.31 268.91 1042.17 272.5 1042.17C276.09 1042.17 279 1040.31 279 1038.01V1023H304V1029.71C304 1032 306.91 1033.86 310.5 1033.86C314.09 1033.86 317 1032 317 1029.71V1023H323V1051.43C323 1053.72 325.91 1055.58 329.5 1055.58C333.09 1055.58 336 1053.72 336 1051.43V1023H342V1064.85C342 1067.14 344.91 1069 348.5 1069C352.09 1069 355 1067.14 355 1064.85V1023H380V1038.01C380 1040.31 382.91 1042.17 386.5 1042.17C390.09 1042.17 393 1040.31 393 1038.01V1023H418V1029.71C418 1032 420.91 1033.86 424.5 1033.86C428.09 1033.86 431 1032 431 1029.71V1023H437V1051.43C437 1053.72 439.91 1055.58 443.5 1055.58C447.09 1055.58 450 1053.72 450 1051.43V1023H456V1064.85C456 1067.14 458.91 1069 462.5 1069C466.09 1069 469 1067.14 469 1064.85V1023H494V1038.01C494 1040.31 496.91 1042.17 500.5 1042.17C504.09 1042.17 507 1040.31 507 1038.01V1023H532V1029.71C532 1032 534.91 1033.86 538.5 1033.86C542.09 1033.86 545 1032 545 1029.71V1023H551V1051.43C551 1053.72 553.91 1055.58 557.5 1055.58C561.09 1055.58 564 1053.72 564 1051.43V1023H570V1064.85C570 1067.14 572.91 1069 576.5 1069C580.09 1069 583 1067.14 583 1064.85V1023H608V1038.01C608 1040.31 610.91 1042.17 614.5 1042.17C618.09 1042.17 621 1040.31 621 1038.01V1023H646V1029.71C646 1032 648.91 1033.86 652.5 1033.86C656.09 1033.86 659 1032 659 1029.71V1023H665V1051.43C665 1053.72 667.91 1055.58 671.5 1055.58C675.09 1055.58 678 1053.72 678 1051.43V1023H684V1064.85C684 1067.14 686.91 1069 690.5 1069C694.09 1069 697 1067.14 697 1064.85V1023H722V1038.01C722 1040.31 724.91 1042.17 728.5 1042.17C732.09 1042.17 735 1040.31 735 1038.01V1023H760V1029.71C760 1032 762.91 1033.86 766.5 1033.86C770.09 1033.86 773 1032 773 1029.71V1023H779V1051.43C779 1053.72 781.91 1055.58 785.5 1055.58C789.09 1055.58 792 1053.72 792 1051.43V1023H798V1064.85C798 1067.14 800.91 1069 804.5 1069C808.09 1069 811 1067.14 811 1064.85V1023H836V1038.01C836 1040.31 838.91 1042.17 842.5 1042.17C846.09 1042.17 849 1040.31 849 1038.01V1023H874V1029.71C874 1032 876.91 1033.86 880.5 1033.86C884.09 1033.86 887 1032 887 1029.71V1023H893V1051.43C893 1053.72 895.91 1055.58 899.5 1055.58C903.09 1055.58 906 1053.72 906 1051.43V1023H912V1064.85C912 1067.14 914.91 1069 918.5 1069C922.09 1069 925 1067.14 925 1064.85V1023H950V1038.01C950 1040.31 952.91 1042.17 956.5 1042.17C960.09 1042.17 963 1040.31 963 1038.01V1023H988V1029.71C988 1032 990.91 1033.86 994.5 1033.86C998.09 1033.86 1001 1032 1001 1029.71V1023H1007V1051.43C1007 1053.72 1009.91 1055.58 1013.5 1055.58C1017.09 1055.58 1020 1053.72 1020 1051.43V1023H1026V1064.85C1026 1067.14 1028.91 1069 1032.5 1069C1036.09 1069 1039 1067.14 1039 1064.85V1023H1064V1038.01C1064 1040.31 1066.91 1042.17 1070.5 1042.17C1074.09 1042.17 1077 1040.31 1077 1038.01V1023H1102V1029.71C1102 1032 1104.91 1033.86 1108.5 1033.86C1112.09 1033.86 1115 1032 1115 1029.71V1023H1121V1051.43C1121 1053.72 1123.91 1055.58 1127.5 1055.58C1131.09 1055.58 1134 1053.72 1134 1051.43V1023H1140V1064.85C1140 1067.14 1142.91 1069 1146.5 1069C1150.09 1069 1153 1067.14 1153 1064.85V1023H1178V1038.01C1178 1040.31 1180.91 1042.17 1184.5 1042.17C1188.09 1042.17 1191 1040.31 1191 1038.01V1023H1216V1029.71C1216 1032 1218.91 1033.86 1222.5 1033.86C1226.09 1033.86 1229 1032 1229 1029.71V1023H1235V1051.43C1235 1053.72 1237.91 1055.58 1241.5 1055.58C1245.09 1055.58 1248 1053.72 1248 1051.43V1023H1254V1064.85C1254 1067.14 1256.91 1069 1260.5 1069C1264.09 1069 1267 1067.14 1267 1064.85V1023H1292V1038.01C1292 1040.31 1294.91 1042.17 1298.5 1042.17C1302.09 1042.17 1305 1040.31 1305 1038.01V1023H1330V1029.71C1330 1032 1332.91 1033.86 1336.5 1033.86C1340.09 1033.86 1343 1032 1343 1029.71V1023H1349V1051.43C1349 1053.72 1351.91 1055.58 1355.5 1055.58C1359.09 1055.58 1362 1053.72 1362 1051.43V1023H1368V1064.85C1368 1067.14 1370.91 1069 1374.5 1069C1378.09 1069 1381 1067.14 1381 1064.85V1023H1406V1038.01C1406 1040.31 1408.91 1042.17 1412.5 1042.17C1416.09 1042.17 1419 1040.31 1419 1038.01V1023H1444V1029.71C1444 1032 1446.91 1033.86 1450.5 1033.86C1454.09 1033.86 1457 1032 1457 1029.71V1023H1463V1051.43C1463 1053.72 1465.91 1055.58 1469.5 1055.58C1473.09 1055.58 1476 1053.72 1476 1051.43V1023H1482V1064.85C1482 1067.14 1484.91 1069 1488.5 1069C1492.09 1069 1495 1067.14 1495 1064.85V1023H1512V0Z" fill="url(#paint0_radial_534_374)"/>
<path d="M63.5 1035.78C59.9101 1035.78 57 1037.64 57 1039.93V1064.85C57 1067.14 59.9101 1069 63.5 1069C67.0899 1069 70 1067.14 70 1064.85V1039.93C70 1037.64 67.0899 1035.78 63.5 1035.78Z" fill="url(#paint1_radial_534_374)"/>
<path d="M171 1039.93C171 1037.64 173.91 1035.78 177.5 1035.78C181.09 1035.78 184 1037.64 184 1039.93V1064.85C184 1067.14 181.09 1069 177.5 1069C173.91 1069 171 1067.14 171 1064.85V1039.93Z" fill="url(#paint2_radial_534_374)"/>
<path d="M25.5 1029.39C21.9101 1029.39 19 1031.25 19 1033.54V1045.68C19 1047.97 21.9101 1049.83 25.5 1049.83C29.0899 1049.83 32 1047.97 32 1045.68V1033.54C32 1031.25 29.0899 1029.39 25.5 1029.39Z" fill="url(#paint3_radial_534_374)"/>
<path d="M133 1033.54C133 1031.25 135.91 1029.39 139.5 1029.39C143.09 1029.39 146 1031.25 146 1033.54V1045.68C146 1047.97 143.09 1049.83 139.5 1049.83C135.91 1049.83 133 1047.97 133 1045.68V1033.54Z" fill="url(#paint4_radial_534_374)"/>
<path d="M44.5 1049.83C40.9101 1049.83 38 1051.69 38 1053.99V1056.54C38 1058.84 40.9101 1060.69 44.5 1060.69C48.0899 1060.69 51 1058.84 51 1056.54V1053.99C51 1051.69 48.0899 1049.83 44.5 1049.83Z" fill="url(#paint5_radial_534_374)"/>
<path d="M152 1053.99C152 1051.69 154.91 1049.83 158.5 1049.83C162.09 1049.83 165 1051.69 165 1053.99V1056.54C165 1058.84 162.09 1060.69 158.5 1060.69C154.91 1060.69 152 1058.84 152 1056.54V1053.99Z" fill="url(#paint6_radial_534_374)"/>
<path d="M291.5 1035.78C287.91 1035.78 285 1037.64 285 1039.93V1064.85C285 1067.14 287.91 1069 291.5 1069C295.09 1069 298 1067.14 298 1064.85V1039.93C298 1037.64 295.09 1035.78 291.5 1035.78Z" fill="url(#paint7_radial_534_374)"/>
<path d="M399 1039.93C399 1037.64 401.91 1035.78 405.5 1035.78C409.09 1035.78 412 1037.64 412 1039.93V1064.85C412 1067.14 409.09 1069 405.5 1069C401.91 1069 399 1067.14 399 1064.85V1039.93Z" fill="url(#paint8_radial_534_374)"/>
<path d="M253.5 1029.39C249.91 1029.39 247 1031.25 247 1033.54V1045.68C247 1047.97 249.91 1049.83 253.5 1049.83C257.09 1049.83 260 1047.97 260 1045.68V1033.54C260 1031.25 257.09 1029.39 253.5 1029.39Z" fill="url(#paint9_radial_534_374)"/>
<path d="M361 1033.54C361 1031.25 363.91 1029.39 367.5 1029.39C371.09 1029.39 374 1031.25 374 1033.54V1045.68C374 1047.97 371.09 1049.83 367.5 1049.83C363.91 1049.83 361 1047.97 361 1045.68V1033.54Z" fill="url(#paint10_radial_534_374)"/>
<path d="M272.5 1049.83C268.91 1049.83 266 1051.69 266 1053.99V1056.54C266 1058.84 268.91 1060.69 272.5 1060.69C276.09 1060.69 279 1058.84 279 1056.54V1053.99C279 1051.69 276.09 1049.83 272.5 1049.83Z" fill="url(#paint11_radial_534_374)"/>
<path d="M380 1053.99C380 1051.69 382.91 1049.83 386.5 1049.83C390.09 1049.83 393 1051.69 393 1053.99V1056.54C393 1058.84 390.09 1060.69 386.5 1060.69C382.91 1060.69 380 1058.84 380 1056.54V1053.99Z" fill="url(#paint12_radial_534_374)"/>
<path d="M519.5 1035.78C515.91 1035.78 513 1037.64 513 1039.93V1064.85C513 1067.14 515.91 1069 519.5 1069C523.09 1069 526 1067.14 526 1064.85V1039.93C526 1037.64 523.09 1035.78 519.5 1035.78Z" fill="url(#paint13_radial_534_374)"/>
<path d="M627 1039.93C627 1037.64 629.91 1035.78 633.5 1035.78C637.09 1035.78 640 1037.64 640 1039.93V1064.85C640 1067.14 637.09 1069 633.5 1069C629.91 1069 627 1067.14 627 1064.85V1039.93Z" fill="url(#paint14_radial_534_374)"/>
<path d="M481.5 1029.39C477.91 1029.39 475 1031.25 475 1033.54V1045.68C475 1047.97 477.91 1049.83 481.5 1049.83C485.09 1049.83 488 1047.97 488 1045.68V1033.54C488 1031.25 485.09 1029.39 481.5 1029.39Z" fill="url(#paint15_radial_534_374)"/>
<path d="M589 1033.54C589 1031.25 591.91 1029.39 595.5 1029.39C599.09 1029.39 602 1031.25 602 1033.54V1045.68C602 1047.97 599.09 1049.83 595.5 1049.83C591.91 1049.83 589 1047.97 589 1045.68V1033.54Z" fill="url(#paint16_radial_534_374)"/>
<path d="M500.5 1049.83C496.91 1049.83 494 1051.69 494 1053.99V1056.54C494 1058.84 496.91 1060.69 500.5 1060.69C504.09 1060.69 507 1058.84 507 1056.54V1053.99C507 1051.69 504.09 1049.83 500.5 1049.83Z" fill="url(#paint17_radial_534_374)"/>
<path d="M608 1053.99C608 1051.69 610.91 1049.83 614.5 1049.83C618.09 1049.83 621 1051.69 621 1053.99V1056.54C621 1058.84 618.09 1060.69 614.5 1060.69C610.91 1060.69 608 1058.84 608 1056.54V1053.99Z" fill="url(#paint18_radial_534_374)"/>
<path d="M747.5 1035.78C743.91 1035.78 741 1037.64 741 1039.93V1064.85C741 1067.14 743.91 1069 747.5 1069C751.09 1069 754 1067.14 754 1064.85V1039.93C754 1037.64 751.09 1035.78 747.5 1035.78Z" fill="url(#paint19_radial_534_374)"/>
<path d="M855 1039.93C855 1037.64 857.91 1035.78 861.5 1035.78C865.09 1035.78 868 1037.64 868 1039.93V1064.85C868 1067.14 865.09 1069 861.5 1069C857.91 1069 855 1067.14 855 1064.85V1039.93Z" fill="url(#paint20_radial_534_374)"/>
<path d="M709.5 1029.39C705.91 1029.39 703 1031.25 703 1033.54V1045.68C703 1047.97 705.91 1049.83 709.5 1049.83C713.09 1049.83 716 1047.97 716 1045.68V1033.54C716 1031.25 713.09 1029.39 709.5 1029.39Z" fill="url(#paint21_radial_534_374)"/>
<path d="M817 1033.54C817 1031.25 819.91 1029.39 823.5 1029.39C827.09 1029.39 830 1031.25 830 1033.54V1045.68C830 1047.97 827.09 1049.83 823.5 1049.83C819.91 1049.83 817 1047.97 817 1045.68V1033.54Z" fill="url(#paint22_radial_534_374)"/>
<path d="M728.5 1049.83C724.91 1049.83 722 1051.69 722 1053.99V1056.54C722 1058.84 724.91 1060.69 728.5 1060.69C732.09 1060.69 735 1058.84 735 1056.54V1053.99C735 1051.69 732.09 1049.83 728.5 1049.83Z" fill="url(#paint23_radial_534_374)"/>
<path d="M836 1053.99C836 1051.69 838.91 1049.83 842.5 1049.83C846.09 1049.83 849 1051.69 849 1053.99V1056.54C849 1058.84 846.09 1060.69 842.5 1060.69C838.91 1060.69 836 1058.84 836 1056.54V1053.99Z" fill="url(#paint24_radial_534_374)"/>
<path d="M975.5 1035.78C971.91 1035.78 969 1037.64 969 1039.93V1064.85C969 1067.14 971.91 1069 975.5 1069C979.09 1069 982 1067.14 982 1064.85V1039.93C982 1037.64 979.09 1035.78 975.5 1035.78Z" fill="url(#paint25_radial_534_374)"/>
<path d="M1083 1039.93C1083 1037.64 1085.91 1035.78 1089.5 1035.78C1093.09 1035.78 1096 1037.64 1096 1039.93V1064.85C1096 1067.14 1093.09 1069 1089.5 1069C1085.91 1069 1083 1067.14 1083 1064.85V1039.93Z" fill="url(#paint26_radial_534_374)"/>
<path d="M937.5 1029.39C933.91 1029.39 931 1031.25 931 1033.54V1045.68C931 1047.97 933.91 1049.83 937.5 1049.83C941.09 1049.83 944 1047.97 944 1045.68V1033.54C944 1031.25 941.09 1029.39 937.5 1029.39Z" fill="url(#paint27_radial_534_374)"/>
<path d="M1045 1033.54C1045 1031.25 1047.91 1029.39 1051.5 1029.39C1055.09 1029.39 1058 1031.25 1058 1033.54V1045.68C1058 1047.97 1055.09 1049.83 1051.5 1049.83C1047.91 1049.83 1045 1047.97 1045 1045.68V1033.54Z" fill="url(#paint28_radial_534_374)"/>
<path d="M956.5 1049.83C952.91 1049.83 950 1051.69 950 1053.99V1056.54C950 1058.84 952.91 1060.69 956.5 1060.69C960.09 1060.69 963 1058.84 963 1056.54V1053.99C963 1051.69 960.09 1049.83 956.5 1049.83Z" fill="url(#paint29_radial_534_374)"/>
<path d="M1064 1053.99C1064 1051.69 1066.91 1049.83 1070.5 1049.83C1074.09 1049.83 1077 1051.69 1077 1053.99V1056.54C1077 1058.84 1074.09 1060.69 1070.5 1060.69C1066.91 1060.69 1064 1058.84 1064 1056.54V1053.99Z" fill="url(#paint30_radial_534_374)"/>
<path d="M1203.5 1035.78C1199.91 1035.78 1197 1037.64 1197 1039.93V1064.85C1197 1067.14 1199.91 1069 1203.5 1069C1207.09 1069 1210 1067.14 1210 1064.85V1039.93C1210 1037.64 1207.09 1035.78 1203.5 1035.78Z" fill="url(#paint31_radial_534_374)"/>
<path d="M1311 1039.93C1311 1037.64 1313.91 1035.78 1317.5 1035.78C1321.09 1035.78 1324 1037.64 1324 1039.93V1064.85C1324 1067.14 1321.09 1069 1317.5 1069C1313.91 1069 1311 1067.14 1311 1064.85V1039.93Z" fill="url(#paint32_radial_534_374)"/>
<path d="M1165.5 1029.39C1161.91 1029.39 1159 1031.25 1159 1033.54V1045.68C1159 1047.97 1161.91 1049.83 1165.5 1049.83C1169.09 1049.83 1172 1047.97 1172 1045.68V1033.54C1172 1031.25 1169.09 1029.39 1165.5 1029.39Z" fill="url(#paint33_radial_534_374)"/>
<path d="M1273 1033.54C1273 1031.25 1275.91 1029.39 1279.5 1029.39C1283.09 1029.39 1286 1031.25 1286 1033.54V1045.68C1286 1047.97 1283.09 1049.83 1279.5 1049.83C1275.91 1049.83 1273 1047.97 1273 1045.68V1033.54Z" fill="url(#paint34_radial_534_374)"/>
<path d="M1184.5 1049.83C1180.91 1049.83 1178 1051.69 1178 1053.99V1056.54C1178 1058.84 1180.91 1060.69 1184.5 1060.69C1188.09 1060.69 1191 1058.84 1191 1056.54V1053.99C1191 1051.69 1188.09 1049.83 1184.5 1049.83Z" fill="url(#paint35_radial_534_374)"/>
<path d="M1292 1053.99C1292 1051.69 1294.91 1049.83 1298.5 1049.83C1302.09 1049.83 1305 1051.69 1305 1053.99V1056.54C1305 1058.84 1302.09 1060.69 1298.5 1060.69C1294.91 1060.69 1292 1058.84 1292 1056.54V1053.99Z" fill="url(#paint36_radial_534_374)"/>
<path d="M1431.5 1035.78C1427.91 1035.78 1425 1037.64 1425 1039.93V1064.85C1425 1067.14 1427.91 1069 1431.5 1069C1435.09 1069 1438 1067.14 1438 1064.85V1039.93C1438 1037.64 1435.09 1035.78 1431.5 1035.78Z" fill="url(#paint37_radial_534_374)"/>
<path d="M1387 1033.54C1387 1031.25 1389.91 1029.39 1393.5 1029.39C1397.09 1029.39 1400 1031.25 1400 1033.54V1045.68C1400 1047.97 1397.09 1049.83 1393.5 1049.83C1389.91 1049.83 1387 1047.97 1387 1045.68V1033.54Z" fill="url(#paint38_radial_534_374)"/>
<path d="M1507.5 1029.39C1503.91 1029.39 1501 1031.25 1501 1033.54V1045.68C1501 1047.97 1503.91 1049.83 1507.5 1049.83C1511.09 1049.83 1514 1047.97 1514 1045.68V1033.54C1514 1031.25 1511.09 1029.39 1507.5 1029.39Z" fill="url(#paint39_radial_534_374)"/>
<path d="M1412.5 1049.83C1408.91 1049.83 1406 1051.69 1406 1053.99V1056.54C1406 1058.84 1408.91 1060.69 1412.5 1060.69C1416.09 1060.69 1419 1058.84 1419 1056.54V1053.99C1419 1051.69 1416.09 1049.83 1412.5 1049.83Z" fill="url(#paint40_radial_534_374)"/>
<defs>
<radialGradient id="paint0_radial_534_374" cx="0" cy="0" r="1" gradientUnits="userSpaceOnUse" gradientTransform="rotate(34.0818) scale(1825.56 2698.19)">
<stop stop-color="#C91918"/>
<stop offset="0.781624" stop-color="#303030"/>
</radialGradient>
<radialGradient id="paint1_radial_534_374" cx="0" cy="0" r="1" gradientUnits="userSpaceOnUse" gradientTransform="rotate(34.0818) scale(1825.56 2698.19)">
<stop stop-color="#C91918"/>
<stop offset="0.781624" stop-color="#303030"/>
</radialGradient>
<radialGradient id="paint2_radial_534_374" cx="0" cy="0" r="1" gradientUnits="userSpaceOnUse" gradientTransform="rotate(34.0818) scale(1825.56 2698.19)">
<stop stop-color="#C91918"/>
<stop offset="0.781624" stop-color="#303030"/>
</radialGradient>
<radialGradient id="paint3_radial_534_374" cx="0" cy="0" r="1" gradientUnits="userSpaceOnUse" gradientTransform="rotate(34.0818) scale(1825.56 2698.19)">
<stop stop-color="#C91918"/>
<stop offset="0.781624" stop-color="#303030"/>
</radialGradient>
<radialGradient id="paint4_radial_534_374" cx="0" cy="0" r="1" gradientUnits="userSpaceOnUse" gradientTransform="rotate(34.0818) scale(1825.56 2698.19)">
<stop stop-color="#C91918"/>
<stop offset="0.781624" stop-color="#303030"/>
</radialGradient>
<radialGradient id="paint5_radial_534_374" cx="0" cy="0" r="1" gradientUnits="userSpaceOnUse" gradientTransform="rotate(34.0818) scale(1825.56 2698.19)">
<stop stop-color="#C91918"/>
<stop offset="0.781624" stop-color="#303030"/>
</radialGradient>
<radialGradient id="paint6_radial_534_374" cx="0" cy="0" r="1" gradientUnits="userSpaceOnUse" gradientTransform="rotate(34.0818) scale(1825.56 2698.19)">
<stop stop-color="#C91918"/>
<stop offset="0.781624" stop-color="#303030"/>
</radialGradient>
<radialGradient id="paint7_radial_534_374" cx="0" cy="0" r="1" gradientUnits="userSpaceOnUse" gradientTransform="rotate(34.0818) scale(1825.56 2698.19)">
<stop stop-color="#C91918"/>
<stop offset="0.781624" stop-color="#303030"/>
</radialGradient>
<radialGradient id="paint8_radial_534_374" cx="0" cy="0" r="1" gradientUnits="userSpaceOnUse" gradientTransform="rotate(34.0818) scale(1825.56 2698.19)">
<stop stop-color="#C91918"/>
<stop offset="0.781624" stop-color="#303030"/>
</radialGradient>
<radialGradient id="paint9_radial_534_374" cx="0" cy="0" r="1" gradientUnits="userSpaceOnUse" gradientTransform="rotate(34.0818) scale(1825.56 2698.19)">
<stop stop-color="#C91918"/>
<stop offset="0.781624" stop-color="#303030"/>
</radialGradient>
<radialGradient id="paint10_radial_534_374" cx="0" cy="0" r="1" gradientUnits="userSpaceOnUse" gradientTransform="rotate(34.0818) scale(1825.56 2698.19)">
<stop stop-color="#C91918"/>
<stop offset="0.781624" stop-color="#303030"/>
</radialGradient>
<radialGradient id="paint11_radial_534_374" cx="0" cy="0" r="1" gradientUnits="userSpaceOnUse" gradientTransform="rotate(34.0818) scale(1825.56 2698.19)">
<stop stop-color="#C91918"/>
<stop offset="0.781624" stop-color="#303030"/>
</radialGradient>
<radialGradient id="paint12_radial_534_374" cx="0" cy="0" r="1" gradientUnits="userSpaceOnUse" gradientTransform="rotate(34.0818) scale(1825.56 2698.19)">
<stop stop-color="#C91918"/>
<stop offset="0.781624" stop-color="#303030"/>
</radialGradient>
<radialGradient id="paint13_radial_534_374" cx="0" cy="0" r="1" gradientUnits="userSpaceOnUse" gradientTransform="rotate(34.0818) scale(1825.56 2698.19)">
<stop stop-color="#C91918"/>
<stop offset="0.781624" stop-color="#303030"/>
</radialGradient>
<radialGradient id="paint14_radial_534_374" cx="0" cy="0" r="1" gradientUnits="userSpaceOnUse" gradientTransform="rotate(34.0818) scale(1825.56 2698.19)">
<stop stop-color="#C91918"/>
<stop offset="0.781624" stop-color="#303030"/>
</radialGradient>
<radialGradient id="paint15_radial_534_374" cx="0" cy="0" r="1" gradientUnits="userSpaceOnUse" gradientTransform="rotate(34.0818) scale(1825.56 2698.19)">
<stop stop-color="#C91918"/>
<stop offset="0.781624" stop-color="#303030"/>
</radialGradient>
<radialGradient id="paint16_radial_534_374" cx="0" cy="0" r="1" gradientUnits="userSpaceOnUse" gradientTransform="rotate(34.0818) scale(1825.56 2698.19)">
<stop stop-color="#C91918"/>
<stop offset="0.781624" stop-color="#303030"/>
</radialGradient>
<radialGradient id="paint17_radial_534_374" cx="0" cy="0" r="1" gradientUnits="userSpaceOnUse" gradientTransform="rotate(34.0818) scale(1825.56 2698.19)">
<stop stop-color="#C91918"/>
<stop offset="0.781624" stop-color="#303030"/>
</radialGradient>
<radialGradient id="paint18_radial_534_374" cx="0" cy="0" r="1" gradientUnits="userSpaceOnUse" gradientTransform="rotate(34.0818) scale(1825.56 2698.19)">
<stop stop-color="#C91918"/>
<stop offset="0.781624" stop-color="#303030"/>
</radialGradient>
<radialGradient id="paint19_radial_534_374" cx="0" cy="0" r="1" gradientUnits="userSpaceOnUse" gradientTransform="rotate(34.0818) scale(1825.56 2698.19)">
<stop stop-color="#C91918"/>
<stop offset="0.781624" stop-color="#303030"/>
</radialGradient>
<radialGradient id="paint20_radial_534_374" cx="0" cy="0" r="1" gradientUnits="userSpaceOnUse" gradientTransform="rotate(34.0818) scale(1825.56 2698.19)">
<stop stop-color="#C91918"/>
<stop offset="0.781624" stop-color="#303030"/>
</radialGradient>
<radialGradient id="paint21_radial_534_374" cx="0" cy="0" r="1" gradientUnits="userSpaceOnUse" gradientTransform="rotate(34.0818) scale(1825.56 2698.19)">
<stop stop-color="#C91918"/>
<stop offset="0.781624" stop-color="#303030"/>
</radialGradient>
<radialGradient id="paint22_radial_534_374" cx="0" cy="0" r="1" gradientUnits="userSpaceOnUse" gradientTransform="rotate(34.0818) scale(1825.56 2698.19)">
<stop stop-color="#C91918"/>
<stop offset="0.781624" stop-color="#303030"/>
</radialGradient>
<radialGradient id="paint23_radial_534_374" cx="0" cy="0" r="1" gradientUnits="userSpaceOnUse" gradientTransform="rotate(34.0818) scale(1825.56 2698.19)">
<stop stop-color="#C91918"/>
<stop offset="0.781624" stop-color="#303030"/>
</radialGradient>
<radialGradient id="paint24_radial_534_374" cx="0" cy="0" r="1" gradientUnits="userSpaceOnUse" gradientTransform="rotate(34.0818) scale(1825.56 2698.19)">
<stop stop-color="#C91918"/>
<stop offset="0.781624" stop-color="#303030"/>
</radialGradient>
<radialGradient id="paint25_radial_534_374" cx="0" cy="0" r="1" gradientUnits="userSpaceOnUse" gradientTransform="rotate(34.0818) scale(1825.56 2698.19)">
<stop stop-color="#C91918"/>
<stop offset="0.781624" stop-color="#303030"/>
</radialGradient>
<radialGradient id="paint26_radial_534_374" cx="0" cy="0" r="1" gradientUnits="userSpaceOnUse" gradientTransform="rotate(34.0818) scale(1825.56 2698.19)">
<stop stop-color="#C91918"/>
<stop offset="0.781624" stop-color="#303030"/>
</radialGradient>
<radialGradient id="paint27_radial_534_374" cx="0" cy="0" r="1" gradientUnits="userSpaceOnUse" gradientTransform="rotate(34.0818) scale(1825.56 2698.19)">
<stop stop-color="#C91918"/>
<stop offset="0.781624" stop-color="#303030"/>
</radialGradient>
<radialGradient id="paint28_radial_534_374" cx="0" cy="0" r="1" gradientUnits="userSpaceOnUse" gradientTransform="rotate(34.0818) scale(1825.56 2698.19)">
<stop stop-color="#C91918"/>
<stop offset="0.781624" stop-color="#303030"/>
</radialGradient>
<radialGradient id="paint29_radial_534_374" cx="0" cy="0" r="1" gradientUnits="userSpaceOnUse" gradientTransform="rotate(34.0818) scale(1825.56 2698.19)">
<stop stop-color="#C91918"/>
<stop offset="0.781624" stop-color="#303030"/>
</radialGradient>
<radialGradient id="paint30_radial_534_374" cx="0" cy="0" r="1" gradientUnits="userSpaceOnUse" gradientTransform="rotate(34.0818) scale(1825.56 2698.19)">
<stop stop-color="#C91918"/>
<stop offset="0.781624" stop-color="#303030"/>
</radialGradient>
<radialGradient id="paint31_radial_534_374" cx="0" cy="0" r="1" gradientUnits="userSpaceOnUse" gradientTransform="rotate(34.0818) scale(1825.56 2698.19)">
<stop stop-color="#C91918"/>
<stop offset="0.781624" stop-color="#303030"/>
</radialGradient>
<radialGradient id="paint32_radial_534_374" cx="0" cy="0" r="1" gradientUnits="userSpaceOnUse" gradientTransform="rotate(34.0818) scale(1825.56 2698.19)">
<stop stop-color="#C91918"/>
<stop offset="0.781624" stop-color="#303030"/>
</radialGradient>
<radialGradient id="paint33_radial_534_374" cx="0" cy="0" r="1" gradientUnits="userSpaceOnUse" gradientTransform="rotate(34.0818) scale(1825.56 2698.19)">
<stop stop-color="#C91918"/>
<stop offset="0.781624" stop-color="#303030"/>
</radialGradient>
<radialGradient id="paint34_radial_534_374" cx="0" cy="0" r="1" gradientUnits="userSpaceOnUse" gradientTransform="rotate(34.0818) scale(1825.56 2698.19)">
<stop stop-color="#C91918"/>
<stop offset="0.781624" stop-color="#303030"/>
</radialGradient>
<radialGradient id="paint35_radial_534_374" cx="0" cy="0" r="1" gradientUnits="userSpaceOnUse" gradientTransform="rotate(34.0818) scale(1825.56 2698.19)">
<stop stop-color="#C91918"/>
<stop offset="0.781624" stop-color="#303030"/>
</radialGradient>
<radialGradient id="paint36_radial_534_374" cx="0" cy="0" r="1" gradientUnits="userSpaceOnUse" gradientTransform="rotate(34.0818) scale(1825.56 2698.19)">
<stop stop-color="#C91918"/>
<stop offset="0.781624" stop-color="#303030"/>
</radialGradient>
<radialGradient id="paint37_radial_534_374" cx="0" cy="0" r="1" gradientUnits="userSpaceOnUse" gradientTransform="rotate(34.0818) scale(1825.56 2698.19)">
<stop stop-color="#C91918"/>
<stop offset="0.781624" stop-color="#303030"/>
</radialGradient>
<radialGradient id="paint38_radial_534_374" cx="0" cy="0" r="1" gradientUnits="userSpaceOnUse" gradientTransform="rotate(34.0818) scale(1825.56 2698.19)">
<stop stop-color="#C91918"/>
<stop offset="0.781624" stop-color="#303030"/>
</radialGradient>
<radialGradient id="paint39_radial_534_374" cx="0" cy="0" r="1" gradientUnits="userSpaceOnUse" gradientTransform="rotate(34.0818) scale(1825.56 2698.19)">
<stop stop-color="#C91918"/>
<stop offset="0.781624" stop-color="#303030"/>
</radialGradient>
<radialGradient id="paint40_radial_534_374" cx="0" cy="0" r="1" gradientUnits="userSpaceOnUse" gradientTransform="rotate(34.0818) scale(1825.56 2698.19)">
<stop stop-color="#C91918"/>
<stop offset="0.781624" stop-color="#303030"/>
</radialGradient>
</defs>
</svg>
