<svg width="505" height="505" viewBox="0 0 505 505" fill="none" xmlns="http://www.w3.org/2000/svg">
<path d="M84.1667 0C-5.01672e-06 0 0 0 0 80.4981V424.502C0 505 0 505 84.1667 505H420.833C505 505 505 505 505 424.502V150.221H336.667C313.389 150.221 294.583 132.234 294.583 109.972V0H84.1667ZM336.667 0V109.972H505L336.667 0ZM143.083 223.257H353.5C365.073 223.257 374.542 232.313 374.542 243.381C374.542 254.45 365.073 263.506 353.5 263.506H143.083C131.51 263.506 122.042 254.45 122.042 243.381C122.042 232.313 131.51 223.257 143.083 223.257ZM143.083 303.755H353.5C365.073 303.755 374.542 312.811 374.542 323.879C374.542 334.948 365.073 344.004 353.5 344.004H143.083C131.51 344.004 122.042 334.948 122.042 323.879C122.042 312.811 131.51 303.755 143.083 303.755ZM143.083 384.253H353.5C365.073 384.253 374.542 393.309 374.542 404.377C374.542 415.446 365.073 424.502 353.5 424.502H143.083C131.51 424.502 122.042 415.446 122.042 404.377C122.042 393.309 131.51 384.253 143.083 384.253Z" fill="white"/>
</svg>
