<svg width="505" height="505" viewBox="0 0 505 505" fill="none" xmlns="http://www.w3.org/2000/svg">
<path d="M470.356 0.000331362H34.7945C30.2281 -0.0196373 25.7029 0.863098 21.479 2.59777C17.2551 4.33243 13.4159 6.88481 10.1823 10.1081C6.94869 13.3314 4.3844 17.1619 2.63694 21.3795C0.889487 25.597 -0.00666296 30.1184 3.72957e-05 34.6834V83.3003V84.108V421.094V421.851V469.509C3.72957e-05 478.694 3.64991 487.503 10.1467 493.998C16.6435 500.493 25.4551 504.142 34.643 504.142H82.2644L83.5774 504.748H179.275L180.487 504.142C183.8 502.475 186.505 499.808 188.217 496.519C189.93 493.23 190.565 489.485 190.031 485.816C189.627 470.065 189.728 454.313 189.627 438.562C189.627 436.795 189.627 435.028 189.627 433.816C178.366 434.17 167.407 435.078 156.55 434.675C139.784 434.018 123.775 430.383 112.615 416.45C109.237 411.259 106.217 405.845 103.575 400.244C98.8788 392.217 94.4349 383.988 89.0314 376.466C85.6229 372.696 81.8129 369.311 77.6689 366.369C74.443 363.979 71.4197 361.328 68.6294 358.443C65.7509 354.808 66.4579 353.394 71.1039 351.981C78.8993 350.435 86.9911 351.819 93.8289 355.868C104.453 361.511 113.22 370.101 119.079 380.605C122.304 386.636 126.849 391.86 132.375 395.89C137.901 399.92 144.266 402.651 150.995 403.879C163.545 405.898 176.412 404.141 187.961 398.83C188.644 398.467 189.245 397.965 189.723 397.357C190.201 396.748 190.547 396.047 190.738 395.296C192.367 383.504 197.833 372.576 206.292 364.198C201.242 363.491 197.354 362.784 193.314 362.229C171.926 359.674 151.441 352.116 133.522 340.167C116.411 328.189 104.072 310.563 98.6769 290.389C90.6354 265.799 89.19 239.53 94.4854 214.207C97.8127 199.642 104.76 186.151 114.685 174.981C115.568 174.165 116.17 173.09 116.406 171.912C116.642 170.733 116.499 169.51 115.998 168.418C108.777 147.769 111.251 127.474 118.624 107.382C120.089 103.343 123.674 103.999 126.401 104.504C133.993 105.593 141.444 107.506 148.621 110.209C161.196 115.762 173.114 122.628 185.436 128.686C187.79 129.929 190.489 130.355 193.112 129.898C231.551 120.111 271.832 120.111 310.271 129.898C311.816 130.354 313.446 130.446 315.032 130.166C316.618 129.885 318.117 129.241 319.412 128.282C334.477 118.019 351.104 110.261 368.649 105.312C368.8 105.29 368.953 105.29 369.104 105.312C382.183 102.333 384.254 103.747 388.041 116.519C393.571 133.825 393.465 152.438 387.738 169.68C387.584 170.48 387.604 171.305 387.795 172.097C387.987 172.89 388.346 173.632 388.849 174.274C409.605 198.052 414.806 226.021 411.928 256.463C410.58 271.332 407.181 285.943 401.828 299.88C392.586 323.759 375.164 339.41 352.489 350.113C336.903 357.025 320.318 361.421 303.353 363.138C302.09 363.138 300.777 363.491 299.515 363.743C298.938 363.951 298.394 364.24 297.899 364.602C312.14 378.435 314.311 396.104 314.261 414.531C314.261 437.653 314.261 460.826 314.261 483.948C314.261 486.724 314.261 489.501 314.665 492.278C314.452 495.113 315.349 497.92 317.168 500.105C318.987 502.291 321.584 503.684 324.411 503.99L325.421 504.394L326.532 505H420.563L423.139 504.394H470.356C474.927 504.394 479.452 503.49 483.672 501.734C487.892 499.978 491.722 497.404 494.942 494.161C498.162 490.919 500.709 487.071 502.435 482.84C504.161 478.609 505.032 474.078 504.999 469.509V34.6834C505.006 30.1311 504.115 25.6222 502.377 21.4146C500.639 17.2069 498.088 13.3831 494.87 10.1618C491.653 6.94054 487.831 4.38501 483.625 2.6414C479.419 0.897795 474.91 0.000326526 470.356 0.000331362Z" fill="white"/>
</svg>
