<svg width="505" height="505" viewBox="0 0 505 505" fill="none" xmlns="http://www.w3.org/2000/svg">
<path d="M505 38.5416V467.55C504.238 468.922 503.596 470.357 503.082 471.84C500.502 481.953 494.213 490.727 485.463 496.42C479.395 499.787 473.064 502.656 466.533 505H37.4344C36.2059 504.293 34.9229 503.686 33.5977 503.183C23.6952 500.512 14.9881 494.569 8.89284 486.321C2.79762 478.074 -0.327057 468.007 0.0271095 457.759C0.128074 320.88 0.178556 184.102 0.178556 47.4246C0.344495 40.0328 2.06451 32.7587 5.22677 26.0751C13.7078 7.90536 29.2058 0.0822604 48.9443 0.0822604H456.588C464.256 -0.383147 471.916 1.13204 478.83 4.4821C485.743 7.83216 491.679 12.9044 496.065 19.211C499.618 25.373 502.609 31.8427 505 38.5416ZM277.83 216.706L276.871 216.252C276.871 210.852 276.871 205.451 276.871 200C277.097 198.067 276.889 196.108 276.261 194.266C275.634 192.424 274.603 190.745 273.243 189.352C271.884 187.96 270.231 186.888 268.404 186.215C266.578 185.542 264.624 185.286 262.686 185.464H209.225C198.674 185.464 193.778 190.209 193.778 200.606V433.785C193.778 444.434 198.472 448.926 208.922 448.926H261.272C272.53 448.926 277.073 444.333 277.073 433.078C277.073 393.306 277.073 353.552 277.073 313.814C276.874 300.466 280.015 287.28 286.21 275.455C295.348 258.194 310.088 251.33 329.12 253.197C336.675 253.512 343.929 256.241 349.817 260.983C355.705 265.725 359.917 272.231 361.833 279.543C364.894 289.584 366.592 299.99 366.881 310.482C367.386 351.667 366.881 392.903 366.881 434.138C366.881 444.232 371.576 448.876 381.672 448.876C400.216 448.876 418.726 448.876 437.202 448.876C446.996 448.876 451.741 444.131 451.741 434.39C451.741 390.53 451.741 346.671 451.741 302.811C452.327 279.778 448.665 256.835 440.938 235.128C430.387 208.177 411.558 190.562 382.934 184.152C366.321 180.633 349.192 180.291 332.452 183.143C313.334 185.502 295.802 194.96 283.333 209.64C281.566 212.063 279.799 214.435 277.83 216.706ZM73.2262 317.195C73.2262 355.823 73.2262 394.417 73.2262 432.977C73.2262 444.182 78.2744 449.178 89.431 449.178H140.166C151.575 449.178 156.32 444.434 156.32 432.977C156.32 355.823 156.32 278.652 156.32 201.464C156.32 190.411 151.272 185.515 140.418 185.464H89.9358C77.7191 185.464 72.9738 190.209 72.9738 202.423C73.1084 240.68 73.1926 278.938 73.2262 317.195ZM115.025 163.055C125.652 163.015 136.027 159.821 144.835 153.879C153.644 147.937 160.49 139.514 164.505 129.677C168.52 119.841 169.524 109.034 167.39 98.6267C165.255 88.2193 160.078 78.6797 152.515 71.2172C144.952 63.7547 135.342 58.7052 124.906 56.7087C114.469 54.7122 103.674 55.8586 93.8893 60.0026C84.1048 64.1467 75.7712 71.1017 69.9447 79.9863C64.1182 88.8709 61.0611 99.2849 61.161 109.908C61.3206 124.077 67.0693 137.609 77.1564 147.562C87.2436 157.514 100.853 163.083 115.025 163.055Z" fill="white"/>
</svg>
