<svg width="57" height="45" viewBox="0 0 57 45" fill="none" xmlns="http://www.w3.org/2000/svg">
<path d="M4.17213 1C2.42642 1 1 2.40765 1 4.15789V11.4947C1 13.245 2.42642 14.6526 4.17213 14.6526H5.77869V30.0526C5.77869 37.7617 12.0676 44 19.8115 44H36.7541C44.498 44 50.7869 37.7617 50.7869 30.0526V14.6526H52.8279C54.5736 14.6526 56 13.245 56 11.4947V4.15789C56 2.40765 54.5736 1 52.8279 1H34.1475C32.4018 1 30.9754 2.40765 30.9754 4.15789V11.4947C30.9754 13.245 32.4018 14.6526 34.1475 14.6526H35.7541V29.0526H35.7307H35.6937H35.6567H35.6198H35.583H35.5462H35.5094H35.4727H35.4361H35.3995H35.363H35.3266H35.2902H35.2538H35.2175H35.1813H35.1451H35.109H35.0729H35.0369H35.001H34.9651H34.9292H34.8934H34.8577H34.822H34.7864H34.7508H34.7153H34.6798H34.6443H34.609H34.5737H34.5384H34.5032H34.468H34.4329H34.3978H34.3628H34.3278H34.2929H34.258H34.2232H34.1884H34.1537H34.119H34.0844H34.0498H34.0153H33.9808H33.9464H33.912H33.8776H33.8433H33.8091H33.7749H33.7407H33.7066H33.6725H33.6385H33.6045H33.5706H33.5367H33.5028H33.469H33.4352H33.4015H33.3678H33.3342H33.3006H33.267H33.2335H33.2H33.1666H33.1332H33.0998H33.0665H33.0333H33H32.9668H32.9337H32.9005H32.8675H32.8344H32.8014H32.7685H32.7355H32.7026H32.6698H32.637H32.6042H32.5714H32.5387H32.5061H32.4734H32.4408H32.4082H32.3757H32.3432H32.3108H32.2783H32.2459H32.2136H32.1812H32.1489H32.1167H32.0844H32.0522H32.0201H31.9879H31.9558H31.9237H31.8917H31.8597H31.8277H31.7957H31.7638H31.7319H31.7H31.6682H31.6364H31.6046H31.5728H31.5411H31.5094H31.4777H31.4461H31.4145H31.3829H31.3513H31.3198H31.2883H31.2568H31.2253H31.1939H31.1625H31.1311H31.0997H31.0684H31.0371H31.0058H30.9745H30.9433H30.912H30.8808H30.8497H30.8185H30.7874H30.7562H30.7251H30.6941H30.663H30.632H30.601H30.57H30.539H30.5081H30.4771H30.4462H30.4153H30.3844H30.3536H30.3227H30.2919H30.2611H30.2303H30.1995H30.1688H30.138H30.1073H30.0766H30.0459H30.0152H29.9845H29.9539H29.9232H29.8926H29.862H29.8314H29.8008H29.7702H29.7397H29.7091H29.6786H29.6481H29.6176H29.5871H29.5566H29.5261H29.4956H29.4652H29.4347H29.4043H29.3739H29.3435H29.3131H29.2827H29.2523H29.2219H29.1915H29.1612H29.1308H29.1005H29.0701H29.0398H29.0094H28.9791H28.9488H28.9185H28.8882H28.8579H28.8276H28.7973H28.767H28.7367H28.7064H28.6762H28.6459H28.6156H28.5854H28.5551H28.5248H28.4946H28.4643H28.4341H28.4038H28.3735H28.3433H28.313H28.2828H28.2525H28.2223H28.192H28.1618H28.1315H28.1013H28.071H28.0407H28.0105H27.9802H27.95H27.9197H27.8894H27.8591H27.8289H27.7986H27.7683H27.738H27.7077H27.6774H27.6471H27.6168H27.5865H27.5561H27.5258H27.4955H27.4651H27.4348H27.4044H27.374H27.3437H27.3133H27.2829H27.2525H27.2221H27.1917H27.1613H27.1308H27.1004H27.0699H27.0395H27.009H26.9785H26.948H26.9175H26.887H26.8564H26.8259H26.7953H26.7648H26.7342H26.7036H26.673H26.6423H26.6117H26.5811H26.5504H26.5197H26.489H26.4583H26.4276H26.3968H26.3661H26.3353H26.3045H26.2737H26.2429H26.212H26.1811H26.1503H26.1194H26.0885H26.0575H26.0266H25.9956H25.9646H25.9336H25.9026H25.8715H25.8404H25.8093H25.7782H25.7471H25.7159H25.6847H25.6535H25.6223H25.5911H25.5598H25.5285H25.4972H25.4658H25.4345H25.4031H25.3717H25.3402H25.3088H25.2773H25.2458H25.2142H25.1827H25.1511H25.1195H25.0878H25.0562H25.0245H24.9927H24.961H24.9292H24.8974H24.8655H24.8337H24.8018H24.7698H24.7379H24.7059H24.6739H24.6418H24.6098H24.5777H24.5455H24.5134H24.4811H24.4489H24.4166H24.3843H24.352H24.3197H24.2873H24.2548H24.2224H24.1899H24.1573H24.1248H24.0922H24.0595H24.0268H23.9941H23.9614H23.9286H23.8958H23.8629H23.83H23.7971H23.7641H23.7311H23.6981H23.665H23.6319H23.5987H23.5656H23.5323H23.499H23.4657H23.4324H23.399H23.3655H23.3321H23.2986H23.265H23.2314H23.1978H23.1641H23.1303H23.0966H23.0628H23.0289H22.995H22.9611H22.9271H22.8931H22.859H22.8249H22.7907H22.7565H22.7222H22.6879H22.6536H22.6192H22.5848H22.5503H22.5157H22.4812H22.4465H22.4118H22.3771H22.3424H22.3075H22.2727H22.2377H22.2028H22.1678H22.1327H22.0976H22.0624H22.0272H21.9919H21.9566H21.9212H21.8858H21.8503H21.8148H21.7792H21.7436H21.7079H21.6722H21.6364H21.6005H21.5646H21.5287H21.4926H21.4566H21.4205H21.3843H21.3481H21.3118H21.2754H21.239H21.2026H21.1661H21.1295H21.0929H21.0562H21.0194H20.9826H20.9458H20.9088H20.8719H20.8348H20.8115V14.6526H22.8525C24.5982 14.6526 26.0246 13.245 26.0246 11.4947V4.15789C26.0246 2.40765 24.5982 1 22.8525 1H4.17213Z" stroke="#CB0000" stroke-width="2"/>
<path d="M19.8115 12.6526H18.8115V13.6526V30.0526V31.0526H19.8115H36.7541H37.7541V30.0526V13.6526V12.6526H36.7541H34.1475C33.494 12.6526 32.9754 12.128 32.9754 11.4947V4.15789C32.9754 3.5246 33.494 3 34.1475 3H52.8279C53.4814 3 54 3.5246 54 4.15789V11.4947C54 12.128 53.4814 12.6526 52.8279 12.6526H49.7869H48.7869V13.6526V30.0526C48.7869 36.6448 43.4058 42 36.7541 42H19.8115C13.1597 42 7.77869 36.6448 7.77869 30.0526V13.6526V12.6526H6.77869H4.17213C3.51857 12.6526 3 12.128 3 11.4947V4.15789C3 3.5246 3.51857 3 4.17213 3H22.8525C23.506 3 24.0246 3.5246 24.0246 4.15789V11.4947C24.0246 12.128 23.506 12.6526 22.8525 12.6526H19.8115Z" fill="#002B6D" stroke="white" stroke-width="2"/>
</svg>
