<svg width="45" height="41" viewBox="0 0 45 41" fill="none" xmlns="http://www.w3.org/2000/svg">
<path d="M12.297 25.5911C8.46847 27.0415 6.69438 28.0614 6.69438 28.0614C6.26463 28.2819 5.72156 28.8053 5.48953 29.2255L2.56206 34.5013C2.32957 34.9203 2.51782 35.143 2.98007 34.9971C2.98007 34.9971 4.15513 34.6229 5.29542 34.2922C8.06536 33.485 13.1849 32.2892 13.1849 32.2892C13.6576 32.1792 14.2345 31.7461 14.467 31.3267L18.4987 24.0608C18.7306 23.6405 18.5442 23.4207 18.0829 23.5704C18.0829 23.5704 15.2127 24.4851 12.297 25.5911Z" fill="url(#paint0_linear_427_146)"/>
<path d="M38.3016 28.718C38.7855 28.6785 38.9909 28.3035 38.7584 27.885L34.8983 20.928C34.6653 20.5082 34.0821 20.2228 33.6018 20.2943L25.868 21.5925C25.3918 21.6861 25.1931 22.105 25.4252 22.524L28.907 28.8005C29.14 29.2205 29.725 29.5254 30.2089 29.4819L38.3016 28.718Z" fill="url(#paint1_linear_427_146)"/>
<path d="M33.0516 17.5992L29.1766 10.6139C28.9441 10.194 28.3794 9.9854 27.9234 10.1483C22.6363 11.6702 17.4061 14.0153 14.9211 15.6473C13.5455 16.5509 12.3493 17.5295 12.3493 17.5295C11.9764 17.8354 11.4807 18.4278 11.2478 18.8477L7.99305 24.7137C7.76102 25.1318 7.92985 25.3107 8.37044 25.1083C8.37044 25.1083 9.21596 24.7213 10.1626 24.3276C13.3759 22.9881 16.8915 21.8124 20.6139 20.8365C20.6848 20.8186 20.7566 20.8001 20.827 20.7818C24.9449 19.7283 32.6033 18.5006 32.6033 18.5006C33.0822 18.4243 33.2845 18.0191 33.0516 17.5992Z" fill="url(#paint2_linear_427_146)"/>
<path d="M14.7038 13.5445C14.7038 13.5445 18.3743 11.4013 20.8629 10.3761C23.0515 9.47383 26.9414 8.35717 26.9414 8.35717C27.4078 8.22313 27.5982 7.77088 27.3667 7.35147L23.7625 0.856999C23.0181 -0.331117 21.8688 -0.284071 21.1564 0.999463L21.1474 1.00612L14.3675 13.2259C14.135 13.6449 14.2867 13.7886 14.7038 13.5445Z" fill="url(#paint3_linear_427_146)"/>
<path d="M44.7904 38.7574L40.6318 31.263C40.3993 30.844 39.9362 30.5178 39.6044 30.5365L39.2969 30.5582C23.8971 31.6047 12.65 34.1527 5.92641 36.1042C3.93247 36.683 1.5896 37.4761 1.5896 37.4761C1.13049 37.631 0.804117 37.7179 0.331026 38.5195C0.331026 38.5195 0.295813 38.5843 0.207786 38.7449L0.210045 38.7511C-0.373194 40.0005 0.294008 40.9916 1.76745 40.9916L1.84103 41H43.232C44.7064 41 45.3726 40.0059 44.7904 38.7574Z" fill="url(#paint4_linear_427_146)"/>
<defs>
<linearGradient id="paint0_linear_427_146" x1="22.5" y1="0" x2="44.5772" y2="41.2264" gradientUnits="userSpaceOnUse">
<stop stop-color="#FF1F00"/>
<stop offset="1" stop-color="#FF7A00"/>
</linearGradient>
<linearGradient id="paint1_linear_427_146" x1="22.5" y1="0" x2="44.5772" y2="41.2264" gradientUnits="userSpaceOnUse">
<stop stop-color="#FF1F00"/>
<stop offset="1" stop-color="#FF7A00"/>
</linearGradient>
<linearGradient id="paint2_linear_427_146" x1="22.5" y1="0" x2="44.5772" y2="41.2264" gradientUnits="userSpaceOnUse">
<stop stop-color="#FF1F00"/>
<stop offset="1" stop-color="#FF7A00"/>
</linearGradient>
<linearGradient id="paint3_linear_427_146" x1="22.5" y1="0" x2="44.5772" y2="41.2264" gradientUnits="userSpaceOnUse">
<stop stop-color="#FF1F00"/>
<stop offset="1" stop-color="#FF7A00"/>
</linearGradient>
<linearGradient id="paint4_linear_427_146" x1="22.5" y1="0" x2="44.5772" y2="41.2264" gradientUnits="userSpaceOnUse">
<stop stop-color="#FF1F00"/>
<stop offset="1" stop-color="#FF7A00"/>
</linearGradient>
</defs>
</svg>
