<svg width="49" height="37" viewBox="0 0 49 37" fill="none" xmlns="http://www.w3.org/2000/svg">
<path d="M23.1096 27.9725C23.0637 28.0557 23.0867 28.0187 23.1096 27.9725V27.9725ZM42.1839 21.2668C40.644 21.2663 39.1246 21.6223 37.7432 22.3073C37.2915 21.3901 36.8244 20.5885 36.7479 19.9873C36.656 19.2859 36.5564 18.8697 36.6636 18.0372C36.7708 17.2048 37.2532 16.0255 37.2455 15.9408C37.2379 15.856 37.1383 15.432 36.1507 15.4243C35.163 15.4166 34.3131 15.617 34.2144 15.8791C34.0399 16.358 33.9042 16.8503 33.8086 17.3513C33.6325 18.2531 31.834 21.4749 30.8157 23.1552C30.4788 22.5 30.1956 21.9219 30.1343 21.4595C30.0424 20.7581 29.9429 20.3418 30.0501 19.5094C30.1573 18.677 30.6396 17.4977 30.632 17.4129C30.6243 17.3281 30.5248 16.9042 29.5379 16.8965C28.551 16.8888 27.7004 17.0892 27.6008 17.3513C27.5013 17.6133 27.3941 18.2299 27.195 18.8234C26.996 19.4169 24.6003 24.7815 23.9733 26.1766C23.6517 26.8857 23.3761 27.4561 23.177 27.8414C23.1464 27.9031 23.1234 27.9416 23.1081 27.9725C23.1311 27.9339 23.1464 27.8954 23.1464 27.9108C22.9779 28.2422 22.8784 28.4272 22.8784 28.4272V28.4349C22.7482 28.6816 22.6028 28.9051 22.5339 28.9051C22.4879 28.9051 22.3884 28.2577 22.5568 27.3713C22.9167 25.506 23.7665 22.6079 23.7589 22.5077C23.7512 22.4538 23.9197 21.9528 23.2 21.683C22.5032 21.4286 22.2506 21.8526 22.1893 21.8526C22.1281 21.8526 22.0821 22.0067 22.0821 22.0067C22.0821 22.0067 22.8554 18.7386 20.5976 18.7386C19.1888 18.7386 17.2288 20.2956 16.2656 21.7061C15.6608 22.0375 14.3515 22.7544 12.9734 23.5174C12.4451 23.8103 11.9015 24.1109 11.3885 24.3961C11.3502 24.3576 11.3196 24.319 11.2813 24.2805C8.54114 21.3361 3.48183 19.2551 3.69621 15.301C3.77277 13.8597 4.27043 10.0752 13.4251 5.48139C20.9283 1.72003 26.9271 2.75287 27.9599 5.04976C29.4452 8.32554 24.7527 14.4223 16.9608 15.301C13.9909 15.6324 12.4298 14.4763 12.0393 14.0447C11.6335 13.5899 11.5723 13.5668 11.4192 13.6516C11.1665 13.7903 11.3273 14.1911 11.4192 14.43C11.6488 15.0389 12.6059 16.118 14.2359 16.6576C15.6677 17.1277 19.1498 17.3898 23.36 15.7481C28.0901 13.9136 31.772 8.80341 30.6925 4.52564C29.593 0.178492 22.4328 -1.24743 15.6623 1.17279C11.6282 2.61413 7.26559 4.88019 4.12726 7.83224C0.399388 11.347 -0.197041 14.4069 0.0479621 15.6864C0.920019 20.2262 7.13544 23.186 9.62298 25.375C9.50048 25.4443 9.38563 25.506 9.27844 25.5677C8.03123 26.192 3.29272 28.6893 2.10675 31.3253C0.766892 34.3159 2.32879 36.4587 3.35397 36.7516C6.55355 37.6456 9.8297 36.0347 11.5899 33.391C13.3501 30.7473 13.1365 27.2942 12.3249 25.7218C12.3172 25.6987 12.3019 25.6833 12.2943 25.6602C12.6158 25.4675 12.9451 25.2748 13.2743 25.0821C13.909 24.7044 14.5292 24.3576 15.0728 24.057C14.7665 24.8894 14.5445 25.8914 14.4296 27.3404C14.2918 29.0361 14.9885 31.2328 15.892 32.0961C16.2901 32.4738 16.7717 32.4815 17.0703 32.4815C18.1269 32.4815 18.6016 31.6028 19.1291 30.5546C19.7799 29.2751 20.3541 27.7875 20.3541 27.7875C20.3541 27.7875 19.6344 31.8109 21.6021 31.8109C22.321 31.8109 23.0407 30.8783 23.363 30.4004V30.4081C23.363 30.4081 23.3784 30.3773 23.4166 30.3156C23.4932 30.2 23.5315 30.1306 23.5315 30.1306V30.1075C23.8224 29.6065 24.4579 28.4581 25.4142 26.562C26.6545 24.1109 27.8405 21.051 27.8405 21.051C27.9551 21.7236 28.1136 22.3879 28.3152 23.0395C28.5295 23.7718 28.9813 24.5734 29.3411 25.3519C29.0502 25.7527 28.8741 25.9839 28.8741 25.9839C28.8746 25.9898 28.8774 25.9953 28.8817 25.9993C28.652 26.3076 28.3917 26.639 28.1238 26.9628C27.1445 28.1343 25.98 29.4755 25.8269 29.8609C25.6431 30.3156 25.689 30.6548 26.0412 30.9168C26.3015 31.1172 26.7609 31.1481 27.2425 31.1095C28.123 31.0479 28.7432 30.832 29.0418 30.6933C29.5922 30.4946 30.1125 30.2196 30.5876 29.8763C31.5446 29.1672 32.1265 28.1498 32.0729 26.8086C32.0423 26.0687 31.8049 25.3287 31.514 24.635C31.5982 24.5117 31.6901 24.3807 31.7743 24.2497C33.2895 22.0221 34.4609 19.5772 34.4609 19.5772C34.5755 20.2499 34.7341 20.9142 34.9356 21.5658C35.1194 22.1902 35.4784 22.8761 35.8077 23.5467C34.3843 24.7106 33.5039 26.0594 33.1976 26.9458C32.631 28.5876 33.0751 29.3275 33.9096 29.4971C34.2848 29.5741 34.8208 29.3969 35.2189 29.2273C35.8102 29.029 36.3677 28.7405 36.8719 28.3717C37.8289 27.6626 38.7546 26.6683 38.6933 25.3195C38.6704 24.7106 38.5019 24.1017 38.2799 23.5159C39.4819 23.0072 41.0431 22.7297 43.0337 22.9609C47.2968 23.4619 48.1313 26.1442 47.9705 27.2618C47.8097 28.3794 46.9139 29.0038 46.6153 29.1888C46.3167 29.3737 46.2249 29.4431 46.2478 29.5818C46.2861 29.7822 46.4239 29.7745 46.6766 29.7283C47.0288 29.6666 48.9115 28.8188 48.9957 26.7454C49.1182 24.1248 46.6153 21.2421 42.1816 21.2652L42.1839 21.2668ZM9.32438 32.4198C7.91638 33.9691 5.94105 34.5549 5.09196 34.0616C4.18085 33.5282 4.5407 31.2483 6.27793 29.5973C7.3345 28.5953 8.69656 27.6703 9.60001 27.1C9.80673 26.9766 10.1053 26.7917 10.4728 26.5681C10.5341 26.5296 10.5647 26.5142 10.5647 26.5142C10.6336 26.4679 10.7102 26.4294 10.7867 26.3831C11.4215 28.7263 10.8097 30.792 9.32438 32.4183V32.4198ZM19.6114 25.375C19.1214 26.5851 18.0886 29.6682 17.4608 29.5063C16.9248 29.3676 16.5956 27.0167 17.3536 24.7044C17.7364 23.5405 18.548 22.1532 19.0303 21.6136C19.8028 20.7427 20.6527 20.4652 20.8518 20.812C21.1197 21.2668 19.9177 24.6196 19.6114 25.375ZM28.11 29.4601C27.9033 29.568 27.7118 29.6373 27.62 29.5834C27.5511 29.5448 27.7042 29.3984 27.7042 29.3984C27.7042 29.3984 28.7684 28.25 29.1895 27.7258C29.4345 27.4175 29.7178 27.0553 30.0233 26.6545C30.0233 26.693 30.0309 26.7315 30.0309 26.7778C30.021 28.1575 28.7049 29.0901 28.1077 29.4601H28.11ZM34.6623 27.9571C34.5091 27.8492 34.5321 27.4869 35.0451 26.3616C35.2442 25.9222 35.7028 25.1823 36.4998 24.4732C36.59 24.7416 36.6391 25.0223 36.6453 25.3056C36.6376 27.0398 35.4049 27.6873 34.663 27.9571H34.6623Z" fill="white"/>
</svg>
