<svg xmlns="http://www.w3.org/2000/svg" xmlns:xlink="http://www.w3.org/1999/xlink" viewBox="0 0 158.52 105.68"><defs><style>.cls-1{isolation:isolate;}.cls-2{fill:url(#Gradiente_sem_nome_2);}.cls-3,.cls-4,.cls-5{mix-blend-mode:color-burn;}.cls-3{fill:url(#radial-gradient);}.cls-4{fill:url(#radial-gradient-2);}.cls-5{fill:url(#radial-gradient-3);}.cls-6{fill:#fff;}.cls-7{fill:url(#linear-gradient);}.cls-11,.cls-8{mix-blend-mode:multiply;}.cls-8{fill:url(#linear-gradient-2);}.cls-9{fill:url(#linear-gradient-3);}.cls-10{fill:url(#linear-gradient-4);}.cls-12{fill:#17a2ff;}</style><linearGradient id="Gradiente_sem_nome_2" y1="52.84" x2="158.52" y2="52.84" gradientUnits="userSpaceOnUse"><stop offset="0" stop-color="#1477af"/><stop offset="0.28" stop-color="#1585c9"/><stop offset="0.75" stop-color="#169af0"/><stop offset="1" stop-color="#17a2ff"/></linearGradient><radialGradient id="radial-gradient" cx="579.81" cy="-863.31" r="15.6" gradientTransform="translate(-277.28 2022.03) scale(0.73 2.28)" gradientUnits="userSpaceOnUse"><stop offset="0" stop-color="#3d3d3d"/><stop offset="0.01" stop-color="#414141"/><stop offset="0.21" stop-color="#7a7a7a"/><stop offset="0.4" stop-color="#aaa"/><stop offset="0.57" stop-color="#cfcfcf"/><stop offset="0.74" stop-color="#e9e9e9"/><stop offset="0.89" stop-color="#f9f9f9"/><stop offset="1" stop-color="#fff"/></radialGradient><radialGradient id="radial-gradient-2" cx="56.36" cy="-239.28" r="15.6" gradientTransform="translate(79.58 367.14) scale(1.05 1.23)" xlink:href="#radial-gradient"/><radialGradient id="radial-gradient-3" cx="495.04" cy="426.91" r="15.6" gradientTransform="translate(-236.68 -321.7) scale(0.76 0.82)" xlink:href="#radial-gradient"/><linearGradient id="linear-gradient" x1="-28.4" y1="51.69" x2="161.72" y2="51.69" gradientUnits="userSpaceOnUse"><stop offset="0" stop-color="#e6e5e5"/><stop offset="0" stop-color="#e5e4e4"/><stop offset="0.02" stop-color="#cdd3d3"/><stop offset="0.03" stop-color="#bcc7c6"/><stop offset="0.05" stop-color="#b1bfbe"/><stop offset="0.07" stop-color="#aebdbc"/><stop offset="0.22" stop-color="#e6e5e5"/><stop offset="0.31" stop-color="#f2f1f1"/><stop offset="0.44" stop-color="#fcfcfc"/><stop offset="0.59" stop-color="#fff"/><stop offset="0.84" stop-color="#bfbfbf"/><stop offset="1" stop-color="#e6e5e5"/></linearGradient><linearGradient id="linear-gradient-2" x1="68.97" y1="31.36" x2="68.39" y2="71.94" gradientUnits="userSpaceOnUse"><stop offset="0" stop-color="#b3b3b3"/><stop offset="0.02" stop-color="#bebebe"/><stop offset="0.11" stop-color="#e1e1e1"/><stop offset="0.17" stop-color="#f7f7f7"/><stop offset="0.22" stop-color="#fff"/><stop offset="0.81" stop-color="#fff"/><stop offset="0.85" stop-color="#fafafa"/><stop offset="0.9" stop-color="#eaeaea"/><stop offset="0.95" stop-color="#d0d0d0"/><stop offset="1" stop-color="#b3b3b3"/></linearGradient><linearGradient id="linear-gradient-3" x1="130.46" y1="38.71" x2="145.46" y2="38.71" xlink:href="#linear-gradient"/><linearGradient id="linear-gradient-4" x1="127.84" y1="55.11" x2="148.64" y2="55.11" xlink:href="#linear-gradient"/></defs><g class="cls-1"><g id="Camada_2" data-name="Camada 2"><g id="Layer_1" data-name="Layer 1"><rect class="cls-2" width="158.52" height="105.68"/><ellipse class="cls-3" cx="145.34" cy="52.04" rx="11.37" ry="35.6"/><ellipse class="cls-4" cx="138.69" cy="73.19" rx="16.37" ry="19.17"/><ellipse class="cls-5" cx="137.37" cy="30.16" rx="11.79" ry="12.86"/><path class="cls-6" d="M0,67.08s.07.73.07.85c0,0-.06-.74.07-.55.17-.12,1.09-.32,1.25-.06.48.09,1,.52,1.42,0,.79.44,1.75-.23,2.49-.08.36.09.79-.16,1.19-.17s.52-.34.9.26c.26.36.54.05.81,0,.57-.13,1.14.19,1.72,0a1.39,1.39,0,0,0,1.47,0c.49.48,1,0,1.44.17.55-.39,1.07.71,1.6.21.53,0,1.06.14,1.62-.21a1.6,1.6,0,0,1,1.13-.28c.21-.32.38.23.58.09s.65,0,.95.21.74-.06,1.11.68c.27-.26.6.58.94.49.25-.59.5-.15.75.07.41-.18.79.43,1.2.29.34-.37.69-.64,1,0,.61.42,1.33-.25,1.85.17.32.13.65.64,1,.56.22.5.47.29.7,0a2.61,2.61,0,0,1,1.49,0,1.86,1.86,0,0,1,1.48.09,2.88,2.88,0,0,0,1.66.21c.56.16,1.12-.27,1.62-.21.55-.72,1,.21,1.64-.18s1.21.51,1.81,0a5.14,5.14,0,0,1,2.34,0c.31.28.41,0,.66-.24.25.36.39-.22.67-.14.55.39,1-.85,1.5-.41.48.86,1-.69,1.52-.33a2.12,2.12,0,0,1,2.08.28c.69.12,1.38.46,2.08,0a17.16,17.16,0,0,1,2-.42c.63-.56,1.34.15,2-.12a13,13,0,0,0,3.36,0,8.64,8.64,0,0,1,3.36,0c.48-.22,1-.34,1.41.26.55.42,1.16.26,1.82.48a1.68,1.68,0,0,1,1.72,0c.65-.79,1.15,0,1.68.52.3.47.51-.7.89.35a1.45,1.45,0,0,0,.92,0c.82.2,1.64-.13,2.46,0a1.46,1.46,0,0,1,1.92.32c.67.44,1.37.09,2,.43.3-.16.57.26.89.25.66-1.06,1.05.15,1.66.62s1-.5,1.67-.12c.34.43.75,0,1.1,0,.34-.51.78-.23,1.12,0,.39,0,.95.87,1.26.63.38.43.48.17,1,.34.3-.4.54.33.83-.12a1.43,1.43,0,0,1,1.55-.38c.89.79,1.86-.38,2.76,0,0-.43,2.15-.18,2.15,0a3.53,3.53,0,0,0,2.44,0c.7-.7,1.19-.46,1.87-.26a2.19,2.19,0,0,0,1.49-.35c.32.2.62-.57,1-.46.6-.64,1.31.59,1.89.25a2,2,0,0,0,2,0,2.22,2.22,0,0,1,2-.26,1.64,1.64,0,0,1,1.32.29c.6.23,1.22-.19,1.84.38.56-.21,1-.72,1.53.2.28-.8.45.19.67.15a3.36,3.36,0,0,1,1.06.6c.53.05,1-.29,1.57-.14a2,2,0,0,1,1.56-.24,2,2,0,0,1,2.68.12c.43-.21.86-.49,1.29,0,.47-.85,1-.6,1.41.34.17.27.41.65.56.29.13-.14.21.4.38.3a6.83,6.83,0,0,0,1.88.17c.14-.41.38.27.51-.12.12-.71.19-.22.3-.22.14-.29.28-.14.41-.15.15-.59.25.6.42-.24.18.33.42-.09.6,0a1.45,1.45,0,0,1,1.45,0c.43-.37.67.21,1-.17.26-.62.57-.09.84-.14.67.37,1.38-1,2.05-.19.23-.75.63-.45.85-.3.2.39.21-.22.32-.35a1.6,1.6,0,0,1,.62-.7c.36-.32,1.29.15,1.72-.12.42,0,.83-.16,1.25,0,.13.32.33.11.45,0,.07.19,0,.35.1-.11.38-.28.65-.52,1.07-.31.35-.45,1.12.26,1.38-.36.25-.31.13.2.56-.44.28-.15.59-.38.87,0,.25.17.49.41.73,0V31.12c-.21-.15-.45.38-.57-.05a1.19,1.19,0,0,0-.89,0c-.11.07-.46-.25-.58,0s-.11.57-.26.34c-.13,0-.44.32-.59,0a2.43,2.43,0,0,1-1.87.1c-.49.14-.89-1-1.36-.25-.51-.09-1,.05-1.56,0-.38-.25-.77,0-1.16,0-.62.13-.87.26-1.38-.31-.37-.2-.79-.1-1.19-.65a2.85,2.85,0,0,0-1.95-.15c-1,0-1.77.76-2.74.5-.47-.31-.66.51-1,.39-.31.51-.61,0-1,.6-.33-.62-1.26-.51-2.11-.06-.85,0-1.62.08-1.66.27a2.54,2.54,0,0,1-1.93.41c-.63.45-1.25.14-1.79.7-.45,1.13-.82.45-1.34.27-.52.13-1.06-.38-1.59,0a5.26,5.26,0,0,1-1.53.21,4.25,4.25,0,0,1-1.54-.17c-.49-.91-1.05-.41-1.56-.14-.31.17-.68.57-1,.21-.23.1-.32.5-.59.18-.48,0-1,.24-1.48,0-.47-.77-.88-.15-1.34-.28-.46.2-.9.57-1.36-.33-.79,0-1.62-.16-2.4-.16s-1.5-.88-2.25-.41a7.94,7.94,0,0,0-1.54-.06c-.61-.19-1.21,0-1.82-.37-.49-.66-1,.08-1.44-.38-.59-.7-1.24.27-1.8.26a1.31,1.31,0,0,1-1.32.12c-.67.91-1.4.27-2.07,0-.34-.27-.66.2-1,.23s-.53.2-.79,0c-.59-.24-1.18.77-1.77,0-.59-.36-1.18.05-1.76.14-.08-.13.07,0,0,.58a2.84,2.84,0,0,1-1.66,0c-.6-.67-1,.13-1.48.37-.73-.13-1.68.67-2.53.75-.5.33-1.15-.24-1.67,0-.64-.47-1.27-.18-1.87.11-.26.24-.47-.21-.72.24-.45-.59-.9.38-1.36.27-.54.63-1-.21-1.6.25-.46-.28-.57.77-.83.67-.17.41-.29.07-.58.45-.24-.69-.59.6-.83,0a3.83,3.83,0,0,0-2.19-.13c-.62-.44-1.18.22-1.78.34-.26-.67-.45-.36-.69.16a10.37,10.37,0,0,0-1.28.19c-.32.48-.51,0-.87.19-.63.47-1.11-.58-1.71.52a1.7,1.7,0,0,1-2.23.07,4.55,4.55,0,0,1-2.14-.1c-.7.14-1.4,1-2.11.27-.53-.59-1.13.16-1.69.08-.81.06-1.53-1-2.35-.36a3.36,3.36,0,0,0-1.86,0,4.17,4.17,0,0,1-1.86,0c-.56-.19-1.12.06-1.68,0-.57-.25-1.13,0-1.69,0a.82.82,0,0,0-.76.11c-.37.3-.85-.27-1.23,0-.75.07-1.76-.41-2.44.15a2,2,0,0,1-.85.44,1.71,1.71,0,0,1-1.34.28c-.69.19-1.2-.19-1.85-.26s-1.06-.24-1.6,0a1.52,1.52,0,0,0-1.58.19,3.06,3.06,0,0,0-1.95.44c-.2,0-.43-.35-.61,0a.72.72,0,0,0-.21.12c-.22-.13-.35.53-.61.13-.57.09-1.19-.16-1.75,0-.27,0-.51.09-.78-.14-.32.4-.67.3-1,0a.68.68,0,0,1-1.15.1c-.43.8-.81.33-1.23.24a13.82,13.82,0,0,0-1.78-.31,11.27,11.27,0,0,1-2.31-.16,3,3,0,0,1-2.44,0,19.59,19.59,0,0,1-2.61-.23c-.47-.59-.87-.29-1.34.26-.34.09-.7-.33-1,0-.8.23-1.63-.39-2.39.12A4.74,4.74,0,0,1,0,39.09c0-.41,0,.37,0,0v28Z"/><path class="cls-6" d="M0,67.74s.07.76.07.88c0,0-.06-.76.07-.57.17-.13,1.09-.33,1.25-.07.48.1,1,.55,1.42,0,.79.46,1.75-.25,2.49-.09.36.1.79-.17,1.19-.18.34.15.52-.34.9.28.26.37.54.05.81,0,.57-.14,1.14.19,1.72,0a1.33,1.33,0,0,0,1.47,0c.49.5,1,0,1.44.18.55-.4,1.07.74,1.6.22.53,0,1.06.15,1.62-.22a1.61,1.61,0,0,1,1.13-.29c.21-.33.38.24.58.1s.65,0,.95.22.74-.07,1.11.7c.27-.27.6.61.94.51.25-.61.5-.16.75.07.41-.18.79.45,1.2.31.34-.38.69-.67,1,0,.61.44,1.33-.27,1.85.18.32.13.65.66,1,.58.22.52.47.31.7,0a2.52,2.52,0,0,1,1.49,0,1.78,1.78,0,0,1,1.48.09,2.81,2.81,0,0,0,1.66.23c.56.16,1.12-.29,1.62-.22.55-.76,1,.21,1.64-.2s1.21.53,1.81,0a5,5,0,0,1,2.34,0c.31.29.41-.05.67-.25.24.38.38-.23.66-.15.55.4,1-.88,1.5-.43.48.9,1-.71,1.52-.34a2,2,0,0,1,2.08.29c.69.12,1.38.48,2.08,0a12.75,12.75,0,0,1,2-.44c.63-.59,1.34.15,2-.13a12.6,12.6,0,0,0,3.36,0,8.27,8.27,0,0,1,3.36,0c.48-.24,1-.36,1.41.27.55.43,1.16.27,1.82.5a1.62,1.62,0,0,1,1.72,0c.65-.83,1.15.06,1.68.55.3.48.51-.73.89.36.3.16.62,0,.92,0,.82.2,1.64-.14,2.46,0a1.42,1.42,0,0,1,1.92.33c.67.46,1.37.1,2,.44.3-.15.57.28.89.26.66-1.1,1.05.17,1.66.65s1-.51,1.67-.12c.34.44.75.05,1.1,0,.34-.53.78-.24,1.12,0,.39.05.95.9,1.26.66.38.44.48.18,1,.36.3-.43.54.34.83-.14.49-.4,1-.67,1.55-.39.89.83,1.86-.4,2.76,0,0-.45,2.15-.19,2.15,0a3.37,3.37,0,0,0,2.44,0c.7-.72,1.19-.48,1.87-.26a2.17,2.17,0,0,0,1.49-.38c.32.21.62-.59,1-.47.6-.68,1.31.61,1.89.26a1.89,1.89,0,0,0,2,0,2.13,2.13,0,0,1,2-.26,1.53,1.53,0,0,1,1.32.29c.6.24,1.22-.19,1.84.4.56-.22,1-.75,1.53.21.28-.83.45.2.67.16a3.29,3.29,0,0,1,1.06.62c.53.06,1-.29,1.57-.15a1.92,1.92,0,0,1,1.56-.25,1.88,1.88,0,0,1,2.68.13c.43-.22.86-.51,1.29,0,.47-.88,1-.62,1.41.35.17.28.41.68.56.31.13-.15.21.41.38.31a6.83,6.83,0,0,0,1.88.18c.14-.43.38.28.51-.13.12-.74.19-.23.3-.23.14-.3.28-.14.41-.16.15-.61.25.63.42-.24.18.34.42-.1.6,0,.48-.37,1-.18,1.45,0,.43-.39.67.21,1-.18.26-.64.57-.09.84-.14.67.38,1.38-1,2.05-.21.23-.77.63-.46.85-.3.2.4.21-.23.32-.38a1.6,1.6,0,0,1,.62-.72c.36-.33,1.29.15,1.72-.13.42,0,.83-.16,1.25,0,.13.34.33.12.45,0,.07.19,0,.35.1-.12.38-.29.65-.55,1.07-.32.35-.48,1.12.27,1.38-.38.25-.32.13.21.56-.46.28-.15.59-.4.87,0,.25.18.49.43.73,0V30.24c-.21-.15-.45.4-.57,0a1.19,1.19,0,0,0-.89,0c-.11.07-.46-.26-.58,0s-.11.58-.26.34c-.13,0-.44.34-.59.05a2.3,2.3,0,0,1-1.87.1c-.49.15-.89-1.07-1.36-.26-.51-.09-1,.05-1.56,0-.38-.26-.77,0-1.16,0-.62.14-.87.27-1.38-.32-.37-.21-.79-.1-1.19-.68a2.69,2.69,0,0,0-1.95-.15c-1,0-1.77.79-2.74.51-.47-.32-.66.54-1,.41-.31.54-.61,0-1,.62-.33-.64-1.26-.53-2.11-.06-.85,0-1.62.09-1.66.29a2.52,2.52,0,0,1-1.93.43c-.63.47-1.25.13-1.79.72-.45,1.19-.82.47-1.34.29-.52.13-1.06-.4-1.59,0a4.94,4.94,0,0,1-1.53.21,4.25,4.25,0,0,1-1.54-.17c-.49-1-1.05-.43-1.56-.15-.31.18-.68.59-1,.22-.23.11-.32.52-.59.18-.48,0-1,.26-1.48,0-.47-.8-.88-.15-1.34-.29-.46.21-.9.6-1.36-.34-.79,0-1.62-.17-2.4-.17s-1.5-.91-2.25-.43a7.22,7.22,0,0,0-1.54-.05c-.61-.2-1.21,0-1.82-.39-.49-.69-1,.08-1.44-.39-.59-.74-1.24.27-1.8.26a1.27,1.27,0,0,1-1.32.13c-.67.94-1.4.27-2.07,0-.34-.28-.66.21-1,.24s-.53.21-.79,0c-.59-.25-1.18.8-1.77,0-.59-.36-1.18.06-1.76.15-.08-.13.07,0,0,.61a2.76,2.76,0,0,1-1.66,0c-.6-.7-1,.14-1.48.39-.73-.14-1.68.69-2.53.78-.5.34-1.15-.25-1.67,0-.64-.49-1.27-.2-1.87.11-.26.25-.47-.22-.72.25-.45-.62-.9.4-1.36.28-.54.66-1-.22-1.6.27-.46-.29-.57.8-.83.69-.17.43-.29.07-.58.47-.24-.71-.59.63-.83,0a3.59,3.59,0,0,0-2.19-.13c-.62-.47-1.18.22-1.78.35-.26-.7-.45-.37-.69.16a10.36,10.36,0,0,0-1.28.21c-.32.5-.51,0-.87.2-.63.48-1.11-.61-1.71.54a1.66,1.66,0,0,1-2.23.07,4.42,4.42,0,0,1-2.14-.1c-.7.14-1.4,1.08-2.11.27-.53-.61-1.13.17-1.69.09-.81.06-1.53-1-2.35-.38a3.27,3.27,0,0,0-1.86,0,4.17,4.17,0,0,1-1.86,0c-.56-.2-1.12.07-1.68,0-.57-.25-1.13,0-1.69,0a.83.83,0,0,0-.76.12c-.37.31-.85-.28-1.23,0-.75.07-1.76-.43-2.44.16a2.07,2.07,0,0,1-.85.45,1.57,1.57,0,0,1-1.34.29c-.69.2-1.2-.19-1.85-.26s-1.06-.26-1.6,0a1.48,1.48,0,0,0-1.58.2,3,3,0,0,0-1.95.46c-.2,0-.43-.37-.61,0-.1,0-.13.08-.21.12-.22-.12-.35.55-.61.14-.57.1-1.19-.16-1.75,0-.27,0-.51.1-.78-.14-.32.41-.67.31-1,0-.39.53-.76.48-1.15.12-.43.82-.81.33-1.23.24a13.9,13.9,0,0,0-1.78-.33A10,10,0,0,1,12.11,38a2.93,2.93,0,0,1-2.44,0,19.63,19.63,0,0,1-2.61-.24c-.47-.61-.87-.3-1.34.28-.34.09-.7-.35-1,0-.8.23-1.63-.41-2.39.12A4.52,4.52,0,0,1,0,38.55c0-.42,0,.39,0,0V67.74Z"/><path class="cls-7" d="M0,67.08s.07.73.07.85c0,0-.06-.74.07-.55.17-.12,1.09-.32,1.25-.06.48.09,1,.52,1.42,0,.79.44,1.75-.23,2.49-.08.36.09.79-.16,1.19-.17s.52-.34.9.26c.26.36.54.05.81,0,.57-.13,1.14.19,1.72,0a1.39,1.39,0,0,0,1.47,0c.49.48,1,0,1.44.17.55-.39,1.07.71,1.6.21.53,0,1.06.14,1.62-.21a1.6,1.6,0,0,1,1.13-.28c.21-.32.38.23.58.09s.65,0,.95.21.74-.06,1.11.68c.27-.26.6.58.94.49.25-.59.5-.15.75.07.41-.18.79.43,1.2.29.34-.37.69-.64,1,0,.61.42,1.33-.25,1.85.17.32.13.65.64,1,.56.22.5.47.29.7,0a2.61,2.61,0,0,1,1.49,0,1.86,1.86,0,0,1,1.48.09,2.88,2.88,0,0,0,1.66.21c.56.16,1.12-.27,1.62-.21.55-.72,1,.21,1.64-.18s1.21.51,1.81,0a5.14,5.14,0,0,1,2.34,0c.31.28.41,0,.66-.24.25.36.39-.22.67-.14.55.39,1-.85,1.5-.41.48.86,1-.69,1.52-.33a2.12,2.12,0,0,1,2.08.28c.69.12,1.38.46,2.08,0a17.16,17.16,0,0,1,2-.42c.63-.56,1.34.15,2-.12a13,13,0,0,0,3.36,0,8.64,8.64,0,0,1,3.36,0c.48-.22,1-.34,1.41.26.55.42,1.16.26,1.82.48a1.68,1.68,0,0,1,1.72,0c.65-.79,1.15,0,1.68.52.3.47.51-.7.89.35a1.45,1.45,0,0,0,.92,0c.82.2,1.64-.13,2.46,0a1.46,1.46,0,0,1,1.92.32c.67.44,1.37.09,2,.43.3-.16.57.26.89.25.66-1.06,1.05.15,1.66.62s1-.5,1.67-.12c.34.43.75,0,1.1,0,.34-.51.78-.23,1.12,0,.39,0,.95.87,1.26.63.38.43.48.17,1,.34.3-.4.54.33.83-.12a1.43,1.43,0,0,1,1.55-.38c.89.79,1.86-.38,2.76,0,0-.43,2.15-.18,2.15,0a3.53,3.53,0,0,0,2.44,0c.7-.7,1.19-.46,1.87-.26a2.19,2.19,0,0,0,1.49-.35c.32.2.62-.57,1-.46.6-.64,1.31.59,1.89.25a2,2,0,0,0,2,0,2.22,2.22,0,0,1,2-.26,1.64,1.64,0,0,1,1.32.29c.6.23,1.22-.19,1.84.38.56-.21,1-.72,1.53.2.28-.8.45.19.67.15a3.36,3.36,0,0,1,1.06.6c.53.05,1-.29,1.57-.14a2,2,0,0,1,1.56-.24,2,2,0,0,1,2.68.12c.43-.21.86-.49,1.29,0,.47-.85,1-.6,1.41.34.17.27.41.65.56.29.13-.14.21.4.38.3a6.83,6.83,0,0,0,1.88.17c.14-.41.38.27.51-.12.12-.71.19-.22.3-.22.14-.29.28-.14.41-.15.15-.59.25.6.42-.24.18.33.42-.09.6,0a1.45,1.45,0,0,1,1.45,0c.43-.37.67.21,1-.17.26-.62.57-.09.84-.14.67.37,1.38-1,2.05-.19.23-.75.63-.45.85-.3.2.39.21-.22.32-.35a1.6,1.6,0,0,1,.62-.7c.36-.32,1.29.15,1.72-.12.42,0,.83-.16,1.25,0,.13.32.33.11.45,0,.07.19,0,.35.1-.11.38-.28.65-.52,1.07-.31.35-.45,1.12.26,1.38-.36.25-.31.13.2.56-.44.28-.15.59-.38.87,0,.25.17.49.41.73,0V31.12c-.21-.15-.45.38-.57-.05a1.19,1.19,0,0,0-.89,0c-.11.07-.46-.25-.58,0s-.11.57-.26.34c-.13,0-.44.32-.59,0a2.43,2.43,0,0,1-1.87.1c-.49.14-.89-1-1.36-.25-.51-.09-1,.05-1.56,0-.38-.25-.77,0-1.16,0-.62.13-.87.26-1.38-.31-.37-.2-.79-.1-1.19-.65a2.85,2.85,0,0,0-1.95-.15c-1,0-1.77.76-2.74.5-.47-.31-.66.51-1,.39-.31.51-.61,0-1,.6-.33-.62-1.26-.51-2.11-.06-.85,0-1.62.08-1.66.27a2.54,2.54,0,0,1-1.93.41c-.63.45-1.25.14-1.79.7-.45,1.13-.82.45-1.34.27-.52.13-1.06-.38-1.59,0a5.26,5.26,0,0,1-1.53.21,4.25,4.25,0,0,1-1.54-.17c-.49-.91-1.05-.41-1.56-.14-.31.17-.68.57-1,.21-.23.1-.32.5-.59.18-.48,0-1,.24-1.48,0-.47-.77-.88-.15-1.34-.28-.46.2-.9.57-1.36-.33-.79,0-1.62-.16-2.4-.16s-1.5-.88-2.25-.41a7.94,7.94,0,0,0-1.54-.06c-.61-.19-1.21,0-1.82-.37-.49-.66-1,.08-1.44-.38-.59-.7-1.24.27-1.8.26a1.31,1.31,0,0,1-1.32.12c-.67.91-1.4.27-2.07,0-.34-.27-.66.2-1,.23s-.53.2-.79,0c-.59-.24-1.18.77-1.77,0-.59-.36-1.18.05-1.76.14-.08-.13.07,0,0,.58a2.84,2.84,0,0,1-1.66,0c-.6-.67-1,.13-1.48.37-.73-.13-1.68.67-2.53.75-.5.33-1.15-.24-1.67,0-.64-.47-1.27-.18-1.87.11-.26.24-.47-.21-.72.24-.45-.59-.9.38-1.36.27-.54.63-1-.21-1.6.25-.46-.28-.57.77-.83.67-.17.41-.29.07-.58.45-.24-.69-.59.6-.83,0a3.83,3.83,0,0,0-2.19-.13c-.62-.44-1.18.22-1.78.34-.26-.67-.45-.36-.69.16a10.37,10.37,0,0,0-1.28.19c-.32.48-.51,0-.87.19-.63.47-1.11-.58-1.71.52a1.7,1.7,0,0,1-2.23.07,4.55,4.55,0,0,1-2.14-.1c-.7.14-1.4,1-2.11.27-.53-.59-1.13.16-1.69.08-.81.06-1.53-1-2.35-.36a3.36,3.36,0,0,0-1.86,0,4.17,4.17,0,0,1-1.86,0c-.56-.19-1.12.06-1.68,0-.57-.25-1.13,0-1.69,0a.82.82,0,0,0-.76.11c-.37.3-.85-.27-1.23,0-.75.07-1.76-.41-2.44.15a2,2,0,0,1-.85.44,1.71,1.71,0,0,1-1.34.28c-.69.19-1.2-.19-1.85-.26s-1.06-.24-1.6,0a1.52,1.52,0,0,0-1.58.19,3.06,3.06,0,0,0-1.95.44c-.2,0-.43-.35-.61,0a.72.72,0,0,0-.21.12c-.22-.13-.35.53-.61.13-.57.09-1.19-.16-1.75,0-.27,0-.51.09-.78-.14-.32.4-.67.3-1,0a.68.68,0,0,1-1.15.1c-.43.8-.81.33-1.23.24a13.82,13.82,0,0,0-1.78-.31,11.27,11.27,0,0,1-2.31-.16,3,3,0,0,1-2.44,0,19.59,19.59,0,0,1-2.61-.23c-.47-.59-.87-.29-1.34.26-.34.09-.7-.33-1,0-.8.23-1.63-.39-2.39.12A4.74,4.74,0,0,1,0,39.09c0-.41,0,.37,0,0v28Z"/><path class="cls-8" d="M0,67.08s.07.73.07.85c0,0-.06-.74.07-.55.17-.12,1.09-.32,1.25-.06.48.09,1,.52,1.42,0,.79.44,1.75-.23,2.49-.08.36.09.79-.16,1.19-.17s.52-.34.9.26c.26.36.54.05.81,0,.57-.13,1.14.19,1.72,0a1.39,1.39,0,0,0,1.47,0c.49.48,1,0,1.44.17.55-.39,1.07.71,1.6.21.53,0,1.06.14,1.62-.21a1.6,1.6,0,0,1,1.13-.28c.21-.32.38.23.58.09s.65,0,.95.21.74-.06,1.11.68c.27-.26.6.58.94.49.25-.59.5-.15.75.07.41-.18.79.43,1.2.29.34-.37.69-.64,1,0,.61.42,1.33-.25,1.85.17.32.13.65.64,1,.56.22.5.47.29.7,0a2.61,2.61,0,0,1,1.49,0,1.86,1.86,0,0,1,1.48.09,2.88,2.88,0,0,0,1.66.21c.56.16,1.12-.27,1.62-.21.55-.72,1,.21,1.64-.18s1.21.51,1.81,0a5.14,5.14,0,0,1,2.34,0c.31.28.41,0,.66-.24.25.36.39-.22.67-.14.55.39,1-.85,1.5-.41.48.86,1-.69,1.52-.33a2.12,2.12,0,0,1,2.08.28c.69.12,1.38.46,2.08,0a17.16,17.16,0,0,1,2-.42c.63-.56,1.34.15,2-.12a13,13,0,0,0,3.36,0,8.64,8.64,0,0,1,3.36,0c.48-.22,1-.34,1.41.26.55.42,1.16.26,1.82.48a1.68,1.68,0,0,1,1.72,0c.65-.79,1.15,0,1.68.52.3.47.51-.7.89.35a1.45,1.45,0,0,0,.92,0c.82.2,1.64-.13,2.46,0a1.46,1.46,0,0,1,1.92.32c.67.44,1.37.09,2,.43.3-.16.57.26.89.25.66-1.06,1.05.15,1.66.62s1-.5,1.67-.12c.34.43.75,0,1.1,0,.34-.51.78-.23,1.12,0,.39,0,.95.87,1.26.63.38.43.48.17,1,.34.3-.4.54.33.83-.12a1.43,1.43,0,0,1,1.55-.38c.89.79,1.86-.38,2.76,0,0-.43,2.15-.18,2.15,0a3.53,3.53,0,0,0,2.44,0c.7-.7,1.19-.46,1.87-.26a2.19,2.19,0,0,0,1.49-.35c.32.2.62-.57,1-.46.6-.64,1.31.59,1.89.25a2,2,0,0,0,2,0,2.22,2.22,0,0,1,2-.26,1.64,1.64,0,0,1,1.32.29c.6.23,1.22-.19,1.84.38.56-.21,1-.72,1.53.2.28-.8.45.19.67.15a3.36,3.36,0,0,1,1.06.6c.53.05,1-.29,1.57-.14a2,2,0,0,1,1.56-.24,2,2,0,0,1,2.68.12c.43-.21.86-.49,1.29,0,.47-.85,1-.6,1.41.34.17.27.41.65.56.29.13-.14.21.4.38.3a6.83,6.83,0,0,0,1.88.17c.14-.41.38.27.51-.12.12-.71.19-.22.3-.22.14-.29.28-.14.41-.15.15-.59.25.6.42-.24.18.33.42-.09.6,0a1.45,1.45,0,0,1,1.45,0c.43-.37.67.21,1-.17.26-.62.57-.09.84-.14.67.37,1.38-1,2.05-.19.23-.75.63-.45.85-.3.2.39.21-.22.32-.35a1.6,1.6,0,0,1,.62-.7c.36-.32,1.29.15,1.72-.12.42,0,.83-.16,1.25,0,.13.32.33.11.45,0,.07.19,0,.35.1-.11.38-.28.65-.52,1.07-.31.35-.45,1.12.26,1.38-.36.25-.31.13.2.56-.44.28-.15.59-.38.87,0,.25.17.49.41.73,0V31.12c-.21-.15-.45.38-.57-.05a1.19,1.19,0,0,0-.89,0c-.11.07-.46-.25-.58,0s-.11.57-.26.34c-.13,0-.44.32-.59,0a2.43,2.43,0,0,1-1.87.1c-.49.14-.89-1-1.36-.25-.51-.09-1,.05-1.56,0-.38-.25-.77,0-1.16,0-.62.13-.87.26-1.38-.31-.37-.2-.79-.1-1.19-.65a2.85,2.85,0,0,0-1.95-.15c-1,0-1.77.76-2.74.5-.47-.31-.66.51-1,.39-.31.51-.61,0-1,.6-.33-.62-1.26-.51-2.11-.06-.85,0-1.62.08-1.66.27a2.54,2.54,0,0,1-1.93.41c-.63.45-1.25.14-1.79.7-.45,1.13-.82.45-1.34.27-.52.13-1.06-.38-1.59,0a5.26,5.26,0,0,1-1.53.21,4.25,4.25,0,0,1-1.54-.17c-.49-.91-1.05-.41-1.56-.14-.31.17-.68.57-1,.21-.23.1-.32.5-.59.18-.48,0-1,.24-1.48,0-.47-.77-.88-.15-1.34-.28-.46.2-.9.57-1.36-.33-.79,0-1.62-.16-2.4-.16s-1.5-.88-2.25-.41a7.94,7.94,0,0,0-1.54-.06c-.61-.19-1.21,0-1.82-.37-.49-.66-1,.08-1.44-.38-.59-.7-1.24.27-1.8.26a1.31,1.31,0,0,1-1.32.12c-.67.91-1.4.27-2.07,0-.34-.27-.66.2-1,.23s-.53.2-.79,0c-.59-.24-1.18.77-1.77,0-.59-.36-1.18.05-1.76.14-.08-.13.07,0,0,.58a2.84,2.84,0,0,1-1.66,0c-.6-.67-1,.13-1.48.37-.73-.13-1.68.67-2.53.75-.5.33-1.15-.24-1.67,0-.64-.47-1.27-.18-1.87.11-.26.24-.47-.21-.72.24-.45-.59-.9.38-1.36.27-.54.63-1-.21-1.6.25-.46-.28-.57.77-.83.67-.17.41-.29.07-.58.45-.24-.69-.59.6-.83,0a3.83,3.83,0,0,0-2.19-.13c-.62-.44-1.18.22-1.78.34-.26-.67-.45-.36-.69.16a10.37,10.37,0,0,0-1.28.19c-.32.48-.51,0-.87.19-.63.47-1.11-.58-1.71.52a1.7,1.7,0,0,1-2.23.07,4.55,4.55,0,0,1-2.14-.1c-.7.14-1.4,1-2.11.27-.53-.59-1.13.16-1.69.08-.81.06-1.53-1-2.35-.36a3.36,3.36,0,0,0-1.86,0,4.17,4.17,0,0,1-1.86,0c-.56-.19-1.12.06-1.68,0-.57-.25-1.13,0-1.69,0a.82.82,0,0,0-.76.11c-.37.3-.85-.27-1.23,0-.75.07-1.76-.41-2.44.15a2,2,0,0,1-.85.44,1.71,1.71,0,0,1-1.34.28c-.69.19-1.2-.19-1.85-.26s-1.06-.24-1.6,0a1.52,1.52,0,0,0-1.58.19,3.06,3.06,0,0,0-1.95.44c-.2,0-.43-.35-.61,0a.72.72,0,0,0-.21.12c-.22-.13-.35.53-.61.13-.57.09-1.19-.16-1.75,0-.27,0-.51.09-.78-.14-.32.4-.67.3-1,0a.68.68,0,0,1-1.15.1c-.43.8-.81.33-1.23.24a13.82,13.82,0,0,0-1.78-.31,11.27,11.27,0,0,1-2.31-.16,3,3,0,0,1-2.44,0,19.59,19.59,0,0,1-2.61-.23c-.47-.59-.87-.29-1.34.26-.34.09-.7-.33-1,0-.8.23-1.63-.39-2.39.12A4.74,4.74,0,0,1,0,39.09c0-.41,0,.37,0,0v28Z"/><path class="cls-6" d="M145.46,23.69a3.24,3.24,0,0,1-1.72-.74c-1.51.07-3.08-.46-4.11.35-.88.6-1.76,2.48-2.64.1-.88-.19-1.75.32-2.62.11-1.23-.08-2.64-.55-3.91-.19V53.67c1.24.12,2.48,1.76,3.73.31,1.66-.19,3.16.42,4.85-.19.5-1.25,1.17-.68,1.59-.08.49-.17.26-1,.89-.87a5.29,5.29,0,0,1,2.87.1,6.36,6.36,0,0,1,1.07.11Z"/><path class="cls-9" d="M145.46,24.44a3.33,3.33,0,0,1-1.72-.7c-1.51.07-3.08-.44-4.11.33-.88.57-1.76,2.36-2.64.1-.88-.18-1.75.3-2.62.1-1.23-.07-2.64-.52-3.91-.18V52.92c1.24.11,2.48,1.67,3.73.29,1.66-.17,3.16.41,4.85-.17.5-1.19,1.17-.65,1.59-.08.49-.16.26-1,.89-.82a5.49,5.49,0,0,1,2.87.09,5.47,5.47,0,0,1,1.07.11Z"/><path class="cls-6" d="M142.42,27.22c-3.89.77-4.41,2.14-7.87,1.91a8.87,8.87,0,0,0-6.71.75V74.77a3.46,3.46,0,0,0,2.32-.77c1.13.3,2.87,1.73,3,.19.14-.84,2,3.29,3.18,2.54,1.54,2.26,2.13-.3,3.17.7,0,.27.41,2.28,1.5.3-.51,3.39.47-1.54.6.69,2.84,4.63,3.67,6.86,6.88,4.55l.16.11V26.33C146.48,26.57,143.46,29.42,142.42,27.22Z"/><path class="cls-10" d="M142.42,28.61c-3.89.74-4.41,2-7.87,1.82a9.3,9.3,0,0,0-6.71.71V73.79a3.53,3.53,0,0,0,2.32-.74c1.13.29,2.87,1.65,3,.19.14-.81,2,3.12,3.18,2.41,1.54,2.15,2.13-.28,3.17.66,0,.26.41,2.17,1.5.29-.51,3.22.47-1.46.6.65,2.84,4.4,3.67,6.52,6.88,4.32a1,1,0,0,0,.16.12V27.77C146.48,28,143.46,30.71,142.42,28.61Z"/><g class="cls-11"><path class="cls-12" d="M32.33,54.5A4,4,0,0,1,30.8,53a4.23,4.23,0,0,1-.55-2.16,4.18,4.18,0,0,1,.55-2.16,3.91,3.91,0,0,1,1.53-1.49,4.44,4.44,0,0,1,2.19-.53,4.57,4.57,0,0,1,1.92.39,3.71,3.71,0,0,1,1.42,1.12l-1.4,1.31a2.28,2.28,0,0,0-3-.65,2,2,0,0,0-.76.81,2.8,2.8,0,0,0,0,2.4,2,2,0,0,0,.76.81,2.24,2.24,0,0,0,1.13.29,2.27,2.27,0,0,0,1.83-.95l1.4,1.31a3.74,3.74,0,0,1-1.42,1.13,4.85,4.85,0,0,1-4.11-.14Z"/><path class="cls-12" d="M39.82,54.56a3,3,0,0,1-1.21-1.15,3.35,3.35,0,0,1,0-3.32A3,3,0,0,1,39.82,49a3.66,3.66,0,0,1,1.74-.41,3.75,3.75,0,0,1,1.76.41,3,3,0,0,1,1.21,1.13,3.44,3.44,0,0,1,0,3.33,3,3,0,0,1-1.21,1.15,3.94,3.94,0,0,1-3.5,0Zm2.65-1.72a1.56,1.56,0,0,0,.36-1.09,1.53,1.53,0,0,0-.36-1.08,1.14,1.14,0,0,0-.91-.4,1.12,1.12,0,0,0-.9.4,1.53,1.53,0,0,0-.36,1.08,1.56,1.56,0,0,0,.36,1.09,1.12,1.12,0,0,0,.9.4A1.14,1.14,0,0,0,42.47,52.84Z"/><path class="cls-12" d="M55.54,49.23a2.9,2.9,0,0,1,.66,2.08v3.56H54.09V51.66a1.58,1.58,0,0,0-.24-1,.79.79,0,0,0-.67-.31.93.93,0,0,0-.76.34,1.57,1.57,0,0,0-.29,1.05v3.09H50V51.66c0-.85-.3-1.27-.91-1.27a1,1,0,0,0-.78.34A1.62,1.62,0,0,0,48,51.78v3.09h-2.1V48.64h2v.66a2.14,2.14,0,0,1,.8-.57,2.51,2.51,0,0,1,1-.19,2.57,2.57,0,0,1,1.13.24,1.87,1.87,0,0,1,.81.74,2.37,2.37,0,0,1,.9-.73,2.76,2.76,0,0,1,1.19-.25A2.33,2.33,0,0,1,55.54,49.23Z"/><path class="cls-12" d="M57.65,47.62a1.11,1.11,0,0,1-.35-.83,1.09,1.09,0,0,1,.35-.82,1.29,1.29,0,0,1,.93-.34,1.37,1.37,0,0,1,.94.32,1.05,1.05,0,0,1,.35.81,1.14,1.14,0,0,1-.35.85,1.29,1.29,0,0,1-.94.34A1.32,1.32,0,0,1,57.65,47.62Zm-.12,1h2.11v6.23H57.53Z"/><path class="cls-12" d="M66.72,49.23a2.82,2.82,0,0,1,.69,2.08v3.56H65.3V51.66c0-.85-.33-1.27-1-1.27a1.1,1.1,0,0,0-.87.37,1.59,1.59,0,0,0-.33,1.1v3H61V48.64h2v.68a2.38,2.38,0,0,1,.85-.58,2.82,2.82,0,0,1,1.06-.2A2.4,2.4,0,0,1,66.72,49.23Z"/><path class="cls-12" d="M75.28,48.64v5.09a3.44,3.44,0,0,1-.91,2.61,3.68,3.68,0,0,1-2.62.86,6.8,6.8,0,0,1-1.66-.2,3.83,3.83,0,0,1-1.32-.61l.77-1.53a2.6,2.6,0,0,0,.92.49,3.63,3.63,0,0,0,1.11.18,1.71,1.71,0,0,0,1.22-.38A1.52,1.52,0,0,0,73.17,54v-.21a2.17,2.17,0,0,1-1.78.74,3.12,3.12,0,0,1-1.48-.37,2.79,2.79,0,0,1-1.07-1.06,3.3,3.3,0,0,1,0-3.15,2.73,2.73,0,0,1,1.07-1.06,3,3,0,0,1,1.48-.37,2.12,2.12,0,0,1,1.88.86v-.76Zm-2.45,3.82a1.26,1.26,0,0,0,.37-.92,1.24,1.24,0,0,0-.37-.92,1.32,1.32,0,0,0-.94-.35,1.34,1.34,0,0,0-1,.35,1.21,1.21,0,0,0-.37.92,1.22,1.22,0,0,0,.37.92,1.38,1.38,0,0,0,1,.35A1.33,1.33,0,0,0,72.83,52.46Z"/><path class="cls-12" d="M80.86,54.79a4.59,4.59,0,0,1-1.44-.64l.72-1.68a4.87,4.87,0,0,0,2.57.79c.84,0,1.26-.22,1.26-.65a.54.54,0,0,0-.36-.51,5.69,5.69,0,0,0-1.16-.35A12.3,12.3,0,0,1,81,51.33a2.41,2.41,0,0,1-1-.72,2,2,0,0,1-.43-1.34A2.33,2.33,0,0,1,79.94,48,2.62,2.62,0,0,1,81.1,47,4.66,4.66,0,0,1,83,46.67a6.92,6.92,0,0,1,1.51.17,4.55,4.55,0,0,1,1.31.53l-.67,1.69A4.35,4.35,0,0,0,83,48.44a1.7,1.7,0,0,0-1,.2.6.6,0,0,0-.3.52.51.51,0,0,0,.35.48,6.41,6.41,0,0,0,1.15.34,10.43,10.43,0,0,1,1.47.42,2.43,2.43,0,0,1,1,.71,2,2,0,0,1,.42,1.32,2.36,2.36,0,0,1-.38,1.31,2.59,2.59,0,0,1-1.17.94,4.66,4.66,0,0,1-1.89.35A7.07,7.07,0,0,1,80.86,54.79Z"/><path class="cls-12" d="M88.32,54.56a3.14,3.14,0,0,1-1.22-1.15,3.42,3.42,0,0,1,0-3.32A3.09,3.09,0,0,1,88.31,49a3.94,3.94,0,0,1,3.5,0A2.94,2.94,0,0,1,93,50.08a3.37,3.37,0,0,1,0,3.33,3,3,0,0,1-1.21,1.15,3.92,3.92,0,0,1-3.49,0ZM91,52.84a1.56,1.56,0,0,0,.36-1.09A1.53,1.53,0,0,0,91,50.67a1.24,1.24,0,0,0-1.82,0,1.58,1.58,0,0,0-.35,1.08,1.6,1.6,0,0,0,.35,1.09,1.24,1.24,0,0,0,1.82,0Z"/><path class="cls-12" d="M95.71,54.56a3.14,3.14,0,0,1-1.22-1.15,3.42,3.42,0,0,1,0-3.32A3.09,3.09,0,0,1,95.7,49a3.94,3.94,0,0,1,3.5,0,2.94,2.94,0,0,1,1.21,1.13,3.37,3.37,0,0,1,0,3.33,3,3,0,0,1-1.21,1.15,3.92,3.92,0,0,1-3.49,0Zm2.65-1.72a1.56,1.56,0,0,0,.36-1.09,1.53,1.53,0,0,0-.36-1.08,1.24,1.24,0,0,0-1.82,0,1.53,1.53,0,0,0-.35,1.08,1.55,1.55,0,0,0,.35,1.09,1.24,1.24,0,0,0,1.82,0Z"/><path class="cls-12" d="M107.54,49.23a2.82,2.82,0,0,1,.68,2.08v3.56h-2.1V51.66c0-.85-.33-1.27-1-1.27a1.1,1.1,0,0,0-.87.37,1.59,1.59,0,0,0-.33,1.1v3h-2.11V48.64h2v.68a2.44,2.44,0,0,1,.84-.58,2.87,2.87,0,0,1,1.07-.2A2.4,2.4,0,0,1,107.54,49.23Z"/></g></g></g></g></svg>