<svg xmlns="http://www.w3.org/2000/svg" viewBox="0 0 100 100">
<path fill="#f7f7f7" d="M93.14,0H6.89A6.86,6.86,0,0,0,0,6.87V16.5l0,.16V83.41l0,.15V93a6.86,6.86,0,0,0,6.86,6.86h9.43l.26.12H35.5l.24-.12a3.5,3.5,0,0,0,1.89-3.63c-.08-3.12-.06-6.24-.08-9.36,0-.35,0-.7,0-.94-2.23.07-4.4.25-6.55.17-3.32-.13-6.49-.85-8.7-3.61a27,27,0,0,1-1.79-3.21c-.93-1.59-1.81-3.22-2.88-4.71a13.82,13.82,0,0,0-2.25-2A14.47,14.47,0,0,1,13.59,71c-.57-.72-.43-1,.49-1.28a6.39,6.39,0,0,1,4.5.77,12.37,12.37,0,0,1,5,4.9A9,9,0,0,0,29.9,80a12.69,12.69,0,0,0,7.32-1,1.1,1.1,0,0,0,.55-.7,10.74,10.74,0,0,1,3.08-6.16c-1-.14-1.77-.28-2.57-.39a27.14,27.14,0,0,1-11.84-4.37,17.58,17.58,0,0,1-6.9-9.86,29.28,29.28,0,0,1-.83-15.09,17.6,17.6,0,0,1,4-7.77,1.13,1.13,0,0,0,.26-1.3c-1.43-4.09-.94-8.11.52-12.09.29-.8,1-.67,1.54-.57a20.9,20.9,0,0,1,4.4,1.13c2.49,1.1,4.85,2.46,7.29,3.66a2.38,2.38,0,0,0,1.52.24,47,47,0,0,1,23.2,0,2.06,2.06,0,0,0,1.81-.32A33.44,33.44,0,0,1,73,20.86a.32.32,0,0,1,.09,0c2.59-.59,3-.31,3.75,2.22a17,17,0,0,1-.06,10.53,1.13,1.13,0,0,0,.22.91c4.11,4.71,5.14,10.25,4.57,16.28a32.06,32.06,0,0,1-2,8.6c-1.83,4.73-5.28,7.83-9.77,9.95a31.92,31.92,0,0,1-9.73,2.58c-.25,0-.51.07-.76.12a1.27,1.27,0,0,0-.32.17c2.82,2.74,3.25,6.24,3.24,9.89,0,4.58,0,9.17,0,13.75,0,.55,0,1.1.08,1.65a2.17,2.17,0,0,0,1.93,2.32l.2.08.22.12H83.28l.51-.12h9.35A6.86,6.86,0,0,0,100,93V6.87A6.86,6.86,0,0,0,93.14,0Z"/>
<path fill="#f7f7f7" d="M27.23,80.92c0,.81.78.86,1.35.88.25,0,.52-.41.77-.64L28.13,79.9C27.69,80.38,27.22,80.66,27.23,80.92Z"/>
<path fill="#f7f7f7" d="M32.24,82.8l1.15-1.17c-.31-.25-.65-.71-.94-.68s-.8.44-1.2.68Z"/>
<path fill="#f7f7f7" d="M35.93,82a5.08,5.08,0,0,0,1.29-.8l-1-1.14-1.15,1.26C35.39,81.52,35.73,82,35.93,82Z"/>
<path fill="#f7f7f7" d="M23.82,78.83a10.69,10.69,0,0,0,1.38,1c.09.06.46-.36.94-.75a11.71,11.71,0,0,0-1.64-1.07C24.41,78,24.05,78.55,23.82,78.83Z"/>
<path fill="#f7f7f7" d="M22.52,77.1c.22-.24.67-.54.63-.68a8.37,8.37,0,0,0-.88-1.54c-.39.47-.81.83-.75.93A9.3,9.3,0,0,0,22.52,77.1Z"/>
<path fill="#f7f7f7" d="M20.09,72.7a1.56,1.56,0,0,0-.5.42,15.33,15.33,0,0,0,.88,1.41c.32-.43.64-.76.6-.82A5.86,5.86,0,0,0,20.09,72.7Z"/>
<path fill="#f7f7f7" d="M17.58,71.42a5.67,5.67,0,0,0,.86.62c.08,0,.32-.28.49-.43l-.82-.86Z"/></svg>