<svg xmlns="http://www.w3.org/2000/svg" viewBox="0 0 74.85 64.82"><defs><style>.cls-1{fill:#17a2ff;}</style></defs><g id="Camada_2" data-name="Camada 2"><g id="Camada_1-2" data-name="Camada 1"><path class="cls-1" d="M25.29,16.3a4,4,0,1,0,4,4A4,4,0,0,0,25.29,16.3Z"/><path class="cls-1" d="M22,47.82h6.56V28H22Z"/><path class="cls-1" d="M52.33,32.5a7.6,7.6,0,0,0-6.42-4.89A6.66,6.66,0,0,0,40,30.2l-.24.31-.1-.05V28H33.05v19.8h6.59V36.58a7.63,7.63,0,0,1,0-.82A3.32,3.32,0,0,1,43.81,33a3.36,3.36,0,0,1,2.44,3.41c0,3.63,0,7.27,0,10.9v.53h6.61c0-.12,0-.2,0-.29V35.23A6.69,6.69,0,0,0,52.33,32.5Z"/><path class="cls-1" d="M56.14,0H18.71L0,32.41,18.71,64.82H56.14L74.85,32.41ZM58,53.37a5.4,5.4,0,0,1-2.29,1.12H19.14a.64.64,0,0,0-.19-.08,4.53,4.53,0,0,1-2.6-1.57,5.43,5.43,0,0,1-1-2.15V14.13a.91.91,0,0,0,.07-.14,4.44,4.44,0,0,1,4.48-3.65H55a4.86,4.86,0,0,1,1.2.14,4.44,4.44,0,0,1,3.35,4.45q0,17.48,0,35c0,.13,0,.26,0,.39A4.46,4.46,0,0,1,58,53.37Z"/></g></g></svg>