<svg xmlns="http://www.w3.org/2000/svg" viewBox="0 0 74.85 64.82"><defs><style>.cls-1{fill:#17a2ff;}</style></defs><g id="Camada_2" data-name="Camada 2"><g id="Camada_1-2" data-name="Camada 1"><path class="cls-1" d="M67.89,20.35,57.86,3,56.14,0H18.71L17,3,6.54,21.08,0,32.41,6.54,43.74,18.71,64.82H28A1.65,1.65,0,0,0,29.06,63c0-1.91,0-3.82,0-5.81l-2.64.16a11.3,11.3,0,0,1-4.76-.58,6.88,6.88,0,0,1-3.73-3.35c-.5-.94-1-1.9-1.49-2.82a7.55,7.55,0,0,0-2.35-2.39,6.16,6.16,0,0,1-1.1-.93c-.41-.45-.27-.82.33-.94a4.56,4.56,0,0,1,3.72.83A11.08,11.08,0,0,1,19,49a15,15,0,0,0,2.78,3.07,6.61,6.61,0,0,0,5.88.8c.23-.06.45-.17.68-.22a1.28,1.28,0,0,0,1-1.11A7.8,7.8,0,0,1,31.2,48c-1.12-.22-2.16-.4-3.2-.62a16.57,16.57,0,0,1-6.22-2.52,12.31,12.31,0,0,1-5-7.07,20.29,20.29,0,0,1-.64-8.49,12.15,12.15,0,0,1,2.54-5.91,2,2,0,0,0,.42-1.94,12.12,12.12,0,0,1,.45-7.24.9.9,0,0,1,1.07-.64A15.76,15.76,0,0,1,27,15.81c2.51,1.44,1.8,1.2,4.33.72a32.81,32.81,0,0,1,13.6.28,2.41,2.41,0,0,0,1.74-.24c1.67-.86,3.34-1.75,5.07-2.5a9.52,9.52,0,0,1,2.41-.45,1,1,0,0,1,1.22.81,11.9,11.9,0,0,1,.36,7.13A2,2,0,0,0,56,23.17a29.52,29.52,0,0,1,1.77,3.08,15,15,0,0,1,1,8.22,18.68,18.68,0,0,1-2,6.29,11.11,11.11,0,0,1-6.34,5.46c-2,.7-4.07,1.08-6.11,1.6l-.48.11a30.31,30.31,0,0,1,1.43,2.77,11.65,11.65,0,0,1,.54,4.47q0,3.63,0,7.26c0,.26,0,.52,0,.78a1.73,1.73,0,0,0,1,1.61h9.27L67.88,44.48l7-12.07Z"/></g></g></svg>