<svg xmlns="http://www.w3.org/2000/svg" viewBox="0 0 100 100">
<path fill="#949494" d="M100,7.62v85a5.38,5.38,0,0,0-.38.85,8.24,8.24,0,0,1-3.49,4.87,25.43,25.43,0,0,1-3.75,1.7h-85a5.28,5.28,0,0,0-.76-.36,9,9,0,0,1-6.65-9Q0,50,0,9.38A10.44,10.44,0,0,1,1,5.15C2.68,1.55,5.75,0,9.66,0H90.41a8.87,8.87,0,0,1,7.82,3.79A23.45,23.45,0,0,1,100,7.62ZM55,42.92l-.19-.09c0-1.07,0-2.14,0-3.22A2.59,2.59,0,0,0,52,36.73H41.41c-2.09,0-3.06.94-3.06,3V85.93c0,2.11.93,3,3,3H51.72c2.23,0,3.13-.91,3.13-3.14q0-11.82,0-23.63a15.87,15.87,0,0,1,1.81-7.6c1.81-3.42,4.73-4.78,8.5-4.41a7,7,0,0,1,6.48,5.22,23.21,23.21,0,0,1,1,6.13c.1,8.16,0,16.33,0,24.5,0,2,.93,2.92,2.93,2.92q5.51,0,11,0c1.94,0,2.88-.94,2.88-2.87,0-8.69,0-17.38,0-26.07a37.18,37.18,0,0,0-2.14-13.41c-2.09-5.34-5.82-8.83-11.49-10.1a26.65,26.65,0,0,0-10-.2,15.21,15.21,0,0,0-9.73,5.25C55.74,42,55.39,42.47,55,42.92ZM14.47,62.83q0,11.48,0,22.94c0,2.22,1,3.21,3.21,3.21H27.73c2.26,0,3.2-.94,3.2-3.21q0-22.93,0-45.87c0-2.19-1-3.16-3.15-3.17h-10c-2.42,0-3.36.94-3.36,3.36Q14.46,51.46,14.47,62.83Zm8.28-30.54A10.63,10.63,0,1,0,12.08,21.76,10.65,10.65,0,0,0,22.75,32.29Z"/></svg>