<svg width="52" height="25" viewBox="0 0 52 25" fill="none" xmlns="http://www.w3.org/2000/svg">
<g clip-path="url(#clip0_238_67)">
<path fill-rule="evenodd" clip-rule="evenodd" d="M13.7624 0H16.1192C16.2376 0 16.3368 0.1 16.3368 0.219355V23.9936C16.3364 24.0517 16.3134 24.1073 16.2727 24.1485C16.232 24.1897 16.1769 24.2131 16.1192 24.2137H13.7624C13.7047 24.2131 13.6496 24.1897 13.6089 24.1485C13.5683 24.1073 13.5452 24.0517 13.5448 23.9936V0.219355C13.5448 0.1 13.6432 0 13.7624 0ZM29.96 19.5621V20.1613C29.96 20.421 29.9208 20.7798 29.8216 21.2395C29.7424 21.6782 29.5048 22.1371 29.1288 22.5766C28.7528 23.0161 28.1984 23.4153 27.4456 23.7347C26.6936 24.054 25.6632 24.2137 24.3368 24.2137C23.0096 24.2137 21.98 24.054 21.228 23.7347C20.476 23.4153 19.9208 23.0355 19.5448 22.5766C19.1688 22.1371 18.9304 21.6782 18.8512 21.2194C18.772 20.7597 18.7128 20.421 18.7128 20.1613V6.62742C18.7128 6.50726 18.812 6.40807 18.9304 6.40807H21.2872C21.4056 6.40807 21.5048 6.50726 21.5048 6.62742V19.3032C21.5048 19.7226 21.564 20.021 21.624 20.2613C21.6832 20.5008 21.8016 20.7403 21.98 20.9395C22.1584 21.1597 22.436 21.3387 22.812 21.479C23.168 21.6186 23.6632 21.6984 24.2776 21.6984C24.9112 21.6984 25.4256 21.6177 25.8016 21.479C26.1776 21.3387 26.4552 21.1597 26.6536 20.9597C26.8512 20.7605 26.9896 20.5403 27.0496 20.3008C27.1088 20.0613 27.188 19.8621 27.188 19.2831V6.62742C27.188 6.50726 27.2872 6.40807 27.4056 6.40807H29.7624C29.8808 6.40807 29.98 6.50726 29.98 6.62742V19.5629L29.96 19.5621ZM37.98 6.40807H39.564C39.7032 6.40807 39.8016 6.54758 39.7624 6.6871L39.228 8.7629C39.208 8.8629 39.1088 8.92258 39.0296 8.92258H37.9208C37.3264 8.92258 36.8512 9.00323 36.4752 9.1621C36.1192 9.32178 35.8216 9.50161 35.624 9.72097C35.4482 9.90709 35.3192 10.133 35.248 10.3798C35.188 10.6194 35.168 10.8395 35.168 11.0387V24.0137C35.1676 24.0718 35.1446 24.1275 35.1039 24.1686C35.0632 24.2098 35.0081 24.2332 34.9504 24.2339H32.5744C32.5167 24.2332 32.4616 24.2098 32.4209 24.1686C32.3802 24.1275 32.3572 24.0718 32.3568 24.0137V10.4798C32.3568 10.2403 32.396 9.88065 32.4952 9.42177C32.5744 8.9621 32.812 8.52339 33.188 8.06452C33.564 7.625 34.1192 7.22581 34.8712 6.90645C35.604 6.56774 36.6536 6.40807 37.98 6.40807ZM5.604 6.40807C7.524 6.40807 8.9304 6.7871 9.8416 7.54516C10.7328 8.30403 11.188 9.2629 11.188 10.4V20.1815C11.188 20.5806 11.1088 21.0202 10.9704 21.479C10.832 21.9581 10.5544 22.3968 10.1384 22.7766C9.7224 23.1758 9.1488 23.4944 8.436 23.7742C7.7224 24.0339 6.772 24.1734 5.624 24.1734C4.456 24.1734 3.5248 24.0339 2.812 23.7742C2.0992 23.5145 1.524 23.1758 1.1088 22.7766C0.6928 22.3774 0.416 21.9379 0.2768 21.4782C0.1384 21 0.0592 20.5605 0.0592 20.1815V18.625C0.0592 17.7863 0.2776 17.0274 0.6928 16.3484C1.1288 15.6702 1.7224 15.171 2.5152 14.8911C2.9112 14.7516 3.3472 14.6121 3.8616 14.4323C4.3568 14.2524 4.8512 14.0935 5.3264 13.9129C5.8016 13.7532 6.1984 13.5935 6.5544 13.4742C6.9112 13.3347 7.1288 13.2742 7.208 13.2347C7.2872 13.1944 7.4056 13.1347 7.544 13.0548C7.6832 12.975 7.8216 12.8556 7.96 12.7161C8.0992 12.5556 8.1984 12.3766 8.2968 12.1968C8.396 11.9968 8.436 11.7573 8.436 11.4976V10.879C8.436 10.6597 8.396 10.4403 8.2968 10.2008C8.2176 9.96048 8.0592 9.76129 7.8416 9.56129C7.624 9.3621 7.3264 9.20242 6.9696 9.08226C6.6136 8.9629 6.1584 8.90323 5.604 8.90323C4.5152 8.90323 3.7824 9.12258 3.3864 9.58145C3.04481 9.98465 2.84312 10.4892 2.812 11.0185C2.812 11.1387 2.7128 11.2185 2.5944 11.2185H0.2184C0.160743 11.2181 0.105554 11.1949 0.0647092 11.1539C0.023864 11.1129 0.000627498 11.0573 0 10.9992L0 10.4202C0 9.86129 0.0992 9.34194 0.3168 8.86371C0.5152 8.38387 0.8512 7.94436 1.3264 7.58548C1.7824 7.22581 2.3568 6.92661 3.0696 6.72742C3.7624 6.52742 4.6136 6.40807 5.604 6.40807ZM8.416 15.171C8.39785 15.2734 8.35847 15.3708 8.30043 15.4568C8.2424 15.5428 8.16701 15.6155 8.0792 15.6702C7.9008 15.7895 7.7432 15.8492 7.584 15.9097C7.248 16.029 6.8912 16.1492 6.5152 16.2887C6.1392 16.4282 5.7824 16.5685 5.4456 16.6677C5.0496 16.8081 4.6736 16.9274 4.3368 17.0669C4.06701 17.1859 3.81413 17.3404 3.5848 17.5266C3.3864 17.7056 3.208 17.9258 3.0488 18.2048C2.8912 18.4847 2.812 18.8242 2.812 19.2427C2.812 20.0815 3.0096 20.7 3.4056 21.1194C3.8016 21.5185 4.5344 21.7379 5.604 21.7379C6.6928 21.7379 7.4456 21.5186 7.8416 21.0992C8.2376 20.6605 8.436 20.0613 8.436 19.2629V15.171H8.416ZM46.416 6.40807C48.336 6.40807 49.7424 6.7871 50.6536 7.54516C51.5448 8.30403 52 9.2629 52 10.4V20.1815C52 20.5806 51.9208 21.0202 51.7824 21.479C51.6432 21.9581 51.3664 22.3968 50.9504 22.7766C50.5344 23.1758 49.96 23.4944 49.2472 23.7742C48.5352 24.0339 47.584 24.1734 46.436 24.1734C45.268 24.1734 44.3368 24.0339 43.624 23.7742C42.9112 23.5145 42.336 23.1758 41.9208 22.7766C41.5048 22.3774 41.228 21.9379 41.0888 21.4782C40.9504 21 40.8712 20.5605 40.8712 20.1815V18.625C40.8712 17.7863 41.0888 17.0274 41.5048 16.3484C41.9408 15.6702 42.5344 15.171 43.3264 14.8911C43.7224 14.7516 44.1584 14.6121 44.6736 14.4323C45.168 14.2524 45.6632 14.0935 46.1384 13.9129C46.6136 13.7532 47.0104 13.5935 47.3664 13.4742C47.7224 13.3347 47.9408 13.2742 48.02 13.2347C48.0992 13.1944 48.2176 13.1347 48.356 13.0548C48.4952 12.975 48.6336 12.8556 48.772 12.7161C48.9112 12.5556 49.0096 12.3766 49.1088 12.1968C49.208 11.9968 49.2472 11.7573 49.2472 11.4976V10.879C49.2472 10.6597 49.2072 10.4403 49.1088 10.2008C49.0296 9.96048 48.8712 9.76129 48.6528 9.56129C48.436 9.3621 48.1384 9.20242 47.7824 9.08226C47.4256 8.9629 46.9704 8.90323 46.416 8.90323C45.3264 8.90323 44.5944 9.12258 44.1984 9.58145C43.8568 9.98465 43.6551 10.4892 43.624 11.0185C43.624 11.1387 43.5248 11.2185 43.4056 11.2185H41.0296C40.9721 11.2179 40.9171 11.1946 40.8764 11.1536C40.8358 11.1126 40.8126 11.0572 40.812 10.9992V10.4202C40.812 9.86129 40.9112 9.34194 41.1288 8.86371C41.3264 8.38387 41.6632 7.94436 42.1384 7.58548C42.5944 7.22581 43.168 6.92661 43.8808 6.72742C44.5944 6.52742 45.4256 6.40807 46.416 6.40807ZM49.228 15.171C49.2099 15.2734 49.1705 15.3708 49.1124 15.4568C49.0544 15.5428 48.979 15.6155 48.8912 15.6702C48.7128 15.7895 48.5552 15.8492 48.396 15.9097C48.06 16.029 47.7032 16.1492 47.3264 16.2887C46.9504 16.4282 46.5944 16.5685 46.2576 16.6677C45.8616 16.8081 45.4848 16.9274 45.1488 17.0669C44.8787 17.1858 44.6256 17.3404 44.396 17.5266C44.1984 17.7056 44.02 17.9258 43.8616 18.2048C43.7032 18.4847 43.624 18.8242 43.624 19.2427C43.624 20.0815 43.8216 20.7 44.2176 21.1194C44.6136 21.5185 45.3464 21.7379 46.416 21.7379C47.5048 21.7379 48.2576 21.5186 48.6536 21.0992C49.0496 20.6605 49.2472 20.0613 49.2472 19.2629V15.171H49.228Z" fill="#F2F2F2"/>
</g>
<defs>
<clipPath id="clip0_238_67">
<rect width="52" height="25" fill="white"/>
</clipPath>
</defs>
</svg>
