<svg xmlns="http://www.w3.org/2000/svg" viewBox="0 0 91.4 79.16"><defs><style>.cls-1{fill:#4899d4;}</style></defs><g id="Camada_2" data-name="Camada 2"><g id="Camada_1-2" data-name="Camada 1"><path class="cls-1" d="M58.26,20.85A17.76,17.76,0,0,0,61.16,15a3.66,3.66,0,0,0,0-2.1,1.51,1.51,0,0,0-2.25-1.06,8.39,8.39,0,0,0-2.17,1.42,72,72,0,0,0-5.22,5.41c-3.79,4.51-7.45,9.13-11.16,13.7l-3.88,4.76L37,37A44,44,0,0,0,58.26,20.85Z"/><path class="cls-1" d="M68.55,0H22.85L0,39.58l9.81,17,1.88-.62a8.94,8.94,0,0,1,1.22-.36,6.82,6.82,0,0,0,3.29-1.76,89.78,89.78,0,0,0,9.11-9.29c.84-.94,1.66-1.9,2.49-2.86.11-.13.21-.27.34-.44-1.39.1-2.71.23-4,.29a27.16,27.16,0,0,1-11.57-1.71,12.47,12.47,0,0,1-4.84-3.23l-.13-.16a4.29,4.29,0,0,1,2.5-7.18,13,13,0,0,1,1.4-.16l0,.14c-.21.11-.42.22-.62.35a2.18,2.18,0,0,0-1,3,7.86,7.86,0,0,0,3,3.49,18.84,18.84,0,0,0,8.19,3,27.65,27.65,0,0,0,8.66-.23,1.33,1.33,0,0,0,.72-.53c2.36-3,4.69-6,7-9.07A125.2,125.2,0,0,1,47.91,17a27.12,27.12,0,0,1,7.36-5.58,8.89,8.89,0,0,1,5.11-1A4,4,0,0,1,64,13.93a.46.46,0,0,0,.08.13v1c-.09.45-.17.9-.27,1.34a19.11,19.11,0,0,1-4.28,7.85A47.25,47.25,0,0,1,46.22,34.89,55.68,55.68,0,0,1,34.6,39.78a1.48,1.48,0,0,0-.68.45A110.48,110.48,0,0,1,23.81,50.87c-1.16,1-2.39,2-3.65,3.06l1.72-.25a65.07,65.07,0,0,1,14-.44,87.45,87.45,0,0,1,13.39,1.83H50.3l.06.26a32.75,32.75,0,0,1,8,2.84c.43.23.82.5,1.23.75a.37.37,0,0,1,.16.24c-.9-.31-1.79-.64-2.7-.92a57.51,57.51,0,0,0-6.43-1.6,13.85,13.85,0,0,1,.28,1.69A3.49,3.49,0,0,0,53,61.22a10.77,10.77,0,0,0,8.57,1.2,5.32,5.32,0,0,0,4-3.66A5,5,0,0,0,64,53.29a16.3,16.3,0,0,0-5-2.4c-1.8-.66-3.65-1.2-5.4-2a8.05,8.05,0,0,1-4.92-5.73,8.26,8.26,0,0,1,3.86-9A12.84,12.84,0,0,1,60,32.3a39.06,39.06,0,0,1,8.25,1.36c.15,0,.37.25.37.39,0,2.54,0,5.09,0,7.64a1,1,0,0,1-.06.2c-.72,0-1.41,0-2.11,0-.37,0-.48-.14-.54-.47-.23-1.16-.5-2.33-.7-3.5a1.94,1.94,0,0,0-.81-1.26,8.5,8.5,0,0,0-5.73-1.6,7.16,7.16,0,0,0-4.43,1.45,4,4,0,0,0-1.51,3.92,5.06,5.06,0,0,0,2.88,4.11c1.72.78,3.53,1.39,5.31,2.05A31.89,31.89,0,0,1,66.5,49c3.91,2.37,4.63,6.44,3.38,10a9.12,9.12,0,0,1-6.54,5.83,19.28,19.28,0,0,1-10,.08c-1.71-.41-3.41-.87-5.11-1.32-.16,0-.4-.24-.4-.36,0-2.36,0-4.72,0-7.1-1.24-.18-2.47-.33-3.71-.45A71.88,71.88,0,0,0,31,55.63a56.36,56.36,0,0,0-19,4.72L22.85,79.16h45.7L91.4,39.58Z"/></g></g></svg>