<svg width="65" height="26" viewBox="0 0 65 26" fill="none" xmlns="http://www.w3.org/2000/svg">
<g clip-path="url(#clip0_239_229)">
<path d="M6.73452 4.31424C6.52938 4.76633 6.34746 5.22771 6.01691 5.61477C5.49438 6.2271 4.81702 6.56849 4.06147 6.78524C3.53817 6.80924 3.01254 6.86265 2.49465 6.72718C1.31953 6.29135 0.471097 5.53736 0.122741 4.29721C-0.364956 2.55853 0.632888 0.736245 2.38705 0.161072C4.08238 -0.393975 5.98517 0.53265 6.6037 2.21559C6.6695 2.39596 6.73607 2.57556 6.80265 2.75748C6.84376 3.27723 6.82088 3.80007 6.73452 4.31424Z" fill="#D92A1E"/>
<path d="M6.73486 4.31409C6.82135 3.7994 6.84423 3.27604 6.80299 2.75577C6.80299 2.24176 6.80299 1.72774 6.81692 1.21372C6.82776 0.687319 7.14979 0.317288 7.6731 0.310321C9.07581 0.291742 10.479 0.291742 11.8828 0.310321C12.4038 0.316514 12.7413 0.679577 12.7459 1.2083C12.7575 2.57076 12.7606 3.93399 12.7459 5.29645C12.7405 5.8662 12.3906 6.21533 11.8216 6.22075C10.4571 6.23365 9.09233 6.23365 7.72729 6.22075C7.16605 6.21533 6.84866 5.85382 6.80763 5.28716C6.78596 4.96203 6.9044 4.62606 6.73486 4.31409Z" fill="#6DB536"/>
<path d="M19.264 3.20567C19.264 3.87373 19.271 4.5418 19.264 5.2091C19.2548 5.88955 18.918 6.22087 18.2314 6.2232C16.9319 6.22836 15.6324 6.22836 14.3329 6.2232C13.6865 6.2232 13.3265 5.86555 13.3265 5.21684C13.3208 3.90651 13.3208 2.59617 13.3265 1.28584C13.3265 0.648737 13.671 0.302705 14.3027 0.299608C15.628 0.292383 16.9533 0.292383 18.2786 0.299608C18.9196 0.299608 19.254 0.638673 19.2609 1.27732C19.2679 1.91598 19.2609 2.56237 19.2609 3.20489L19.264 3.20567Z" fill="#6DB536"/>
<path d="M3.2188 19.2354C2.58866 19.2354 1.95775 19.2416 1.32762 19.2354C0.643293 19.2261 0.304228 18.8909 0.301905 18.2151C0.296744 16.9177 0.296744 15.62 0.301905 14.322C0.301905 13.6423 0.638646 13.3048 1.32916 13.2994C2.62917 13.2911 3.92893 13.2911 5.22842 13.2994C5.88333 13.3041 6.23478 13.6478 6.2433 14.3058C6.25414 15.6166 6.25414 16.9272 6.2433 18.2375C6.23711 18.8948 5.88255 19.2307 5.22842 19.2385C4.55958 19.2454 3.89074 19.2385 3.22112 19.2385L3.2188 19.2354Z" fill="#6DB536"/>
<path d="M6.81073 16.255C6.81073 15.6117 6.81073 14.9691 6.81073 14.3266C6.81073 13.6547 7.16528 13.2978 7.83334 13.2963C9.10755 13.2932 10.3818 13.2932 11.656 13.2963C12.4169 13.2963 12.7475 13.6237 12.7506 14.3708C12.7552 15.6171 12.7552 16.8637 12.7506 18.1105C12.7506 18.9234 12.4409 19.2307 11.6312 19.2338C10.3828 19.2384 9.13413 19.2384 7.88521 19.2338C7.14979 19.2338 6.81769 18.9056 6.81228 18.181C6.80763 17.5385 6.81228 16.8959 6.81228 16.2534L6.81073 16.255Z" fill="#6DB536"/>
<path d="M12.7506 9.79971C12.7506 10.4422 12.7506 11.0848 12.7506 11.7265C12.7506 12.3683 12.3929 12.7274 11.7442 12.7329C10.4318 12.7375 9.11968 12.7375 7.8078 12.7329C7.18231 12.7329 6.81925 12.3791 6.81538 11.7551C6.80609 10.4324 6.80609 9.10946 6.81538 7.78622C6.81925 7.14834 7.15599 6.81083 7.80006 6.80618C9.12536 6.79638 10.4504 6.79638 11.7752 6.80618C12.4045 6.81083 12.7405 7.16151 12.7498 7.79861C12.7591 8.46281 12.7506 9.13242 12.7506 9.79971Z" fill="#6DB536"/>
<path d="M19.2641 16.2735C19.2641 16.9292 19.271 17.5841 19.2641 18.239C19.2563 18.8785 18.9211 19.2253 18.2894 19.2299C16.9641 19.2387 15.6388 19.2387 14.3135 19.2299C13.6741 19.2299 13.3327 18.8808 13.3296 18.2507C13.3234 16.9398 13.3234 15.6295 13.3296 14.3197C13.3296 13.6524 13.6888 13.3017 14.3615 13.2986C15.6481 13.2924 16.935 13.2924 18.2221 13.2986C18.9126 13.2986 19.2586 13.65 19.2656 14.3475C19.2687 14.9893 19.2633 15.631 19.2641 16.2735Z" fill="#6DB536"/>
<path d="M2.49655 6.72705C3.01444 6.86407 3.54007 6.80911 4.06337 6.78511C4.4365 6.79053 4.80963 6.7975 5.18276 6.80214C5.90424 6.81066 6.23789 7.13424 6.2464 7.8712C6.25646 8.75758 6.2464 9.64395 6.2464 10.5303C6.2464 10.929 6.25259 11.3277 6.2464 11.7256C6.23324 12.3743 5.8756 12.7319 5.23462 12.7319C3.93461 12.7319 2.63486 12.7319 1.33536 12.7319C0.654911 12.7319 0.30578 12.3882 0.303458 11.7147C0.297265 10.4173 0.297265 9.11961 0.303458 7.82166C0.303458 7.14198 0.647168 6.82304 1.32917 6.7975C1.71701 6.78201 2.11491 6.88807 2.49655 6.72705Z" fill="#6DB536"/>
<path d="M3.24358 25.7257C2.58635 25.7257 1.92757 25.7334 1.27266 25.7257C0.645621 25.7164 0.307327 25.3913 0.302682 24.7751C0.293393 23.4374 0.293393 22.0997 0.302682 20.762C0.306553 20.1915 0.634785 19.8331 1.20609 19.8207C2.58403 19.799 3.96222 19.7967 5.34067 19.8137C5.87017 19.8207 6.22085 20.159 6.23014 20.6962C6.25388 22.085 6.25388 23.4738 6.23014 24.8626C6.21853 25.423 5.85934 25.7195 5.29345 25.728C4.61068 25.7381 3.9279 25.728 3.24512 25.728L3.24358 25.7257Z" fill="#6DB536"/>
<path d="M9.75317 25.7256C9.09594 25.7256 8.43716 25.7348 7.78148 25.7256C7.13741 25.7139 6.8146 25.3803 6.81227 24.7339C6.80918 23.4215 6.80918 22.1091 6.81227 20.7967C6.81227 20.1844 7.14205 19.8198 7.75748 19.8128C9.12303 19.7973 10.4894 19.8043 11.8549 19.8213C12.3968 19.8283 12.7413 20.1875 12.7452 20.7356C12.7544 22.0996 12.7544 23.4633 12.7452 24.8268C12.7452 25.3548 12.4069 25.7039 11.8774 25.7178C11.169 25.7372 10.4599 25.7232 9.75162 25.7232L9.75317 25.7256Z" fill="#6DB536"/>
<path d="M53.2674 17.9249C53.2674 17.6927 53.2604 17.4604 53.2674 17.2282C53.2728 17.116 53.19 16.9387 53.3967 16.9247C53.5639 16.9139 53.7597 16.8473 53.8704 17.0687C54.0075 17.3451 54.1584 17.6153 54.3055 17.8862C54.328 17.9265 54.3411 17.9938 54.4116 17.9714C54.482 17.9489 54.4518 17.8878 54.4526 17.8436C54.4526 17.6114 54.4526 17.3792 54.4472 17.1469C54.441 16.9921 54.4874 16.9108 54.6624 16.91C54.8373 16.9093 54.8776 16.9874 54.876 17.1469C54.8698 17.6354 54.876 18.1246 54.8714 18.6131C54.8714 18.7269 54.9349 18.8941 54.7274 18.908C54.5625 18.9197 54.3976 18.9437 54.304 18.7385C54.1801 18.4707 54.033 18.2137 53.8913 17.9536C53.8581 17.8932 53.8395 17.7871 53.7419 17.815C53.6444 17.8429 53.6777 17.9396 53.6777 18.0124C53.6777 18.2315 53.6777 18.4498 53.6831 18.6681C53.6831 18.8097 53.6777 18.9135 53.4857 18.9173C53.2782 18.9212 53.2581 18.8152 53.2628 18.6534C53.2728 18.4134 53.2674 18.1688 53.2674 17.9249Z" fill="#F4F4F4"/>
<path d="M20.714 14.5867C20.714 14.3545 20.7055 14.1222 20.7186 13.89C20.724 13.7809 20.6358 13.5997 20.8448 13.5897C21.0105 13.5811 21.2086 13.5076 21.3193 13.7305C21.43 13.9535 21.5585 14.1849 21.687 14.4079C21.735 14.4915 21.7567 14.6618 21.8481 14.6347C21.9696 14.5991 21.8937 14.4404 21.8992 14.3367C21.9081 14.1698 21.9081 14.0027 21.8992 13.8358C21.8899 13.6663 21.9301 13.5718 22.1314 13.5773C22.3327 13.5827 22.3303 13.6887 22.3296 13.8296C22.3296 14.3173 22.3296 14.8058 22.3296 15.2935C22.3296 15.3995 22.3776 15.5497 22.2057 15.5699C22.0338 15.59 21.8697 15.6248 21.7699 15.4235C21.6445 15.1704 21.5082 14.9227 21.3697 14.6765C21.3302 14.6053 21.3255 14.4745 21.211 14.4938C21.0964 14.5132 21.1374 14.637 21.1335 14.7175C21.1274 14.8964 21.139 15.0767 21.1335 15.2594C21.1281 15.398 21.2032 15.5807 20.9392 15.5861C20.6505 15.5923 20.7271 15.3934 20.7225 15.2416C20.7086 15.0233 20.714 14.805 20.714 14.5867Z" fill="#F4F4F4"/>
<path d="M39.5933 17.9216C39.5933 17.6894 39.5871 17.4572 39.5933 17.2249C39.5979 17.1119 39.5221 16.9354 39.7272 16.9246C39.8952 16.9153 40.0926 16.8472 40.2041 17.0686C40.3318 17.3209 40.4688 17.5686 40.6051 17.8164C40.6384 17.8767 40.6469 17.9828 40.7467 17.9572C40.7723 17.9511 40.7816 17.8465 40.7823 17.7869C40.7823 17.5686 40.787 17.3496 40.7761 17.1313C40.7676 16.954 40.8536 16.9137 41.0084 16.9145C41.1632 16.9153 41.2058 16.9919 41.205 17.1297C41.205 17.619 41.205 18.1082 41.2004 18.5967C41.2004 18.7105 41.27 18.8808 41.0742 18.9063C40.8977 18.9311 40.7196 18.9443 40.6198 18.7236C40.4982 18.455 40.3496 18.1972 40.2079 17.9379C40.1754 17.8775 40.1576 17.7746 40.0531 17.8094C39.9819 17.8342 40.0005 17.9154 40.0005 17.9766C40.0005 18.1694 40.0167 18.3637 40.0005 18.5549C39.9912 18.6973 40.0988 18.911 39.8031 18.9164C39.4826 18.9218 39.5956 18.6896 39.5855 18.5355C39.5832 18.3335 39.5933 18.1276 39.5933 17.9216Z" fill="#F4F4F4"/>
<path d="M37.7516 21.2597C37.7516 21.0027 37.7516 20.7457 37.7516 20.4856C37.7516 20.3486 37.7679 20.217 37.9343 20.1945C38.0046 20.1788 38.0782 20.1897 38.1409 20.2252C38.2035 20.2607 38.2508 20.3182 38.2734 20.3865C38.3593 20.6017 38.4453 20.8162 38.5358 21.029C38.5536 21.0724 38.5683 21.1382 38.6372 21.1219C38.7061 21.1057 38.6868 21.0445 38.6883 20.9981C38.6883 20.8177 38.6883 20.6381 38.6883 20.4562C38.6883 20.3145 38.7325 20.1953 38.9012 20.1938C39.0468 20.1938 39.1079 20.2959 39.1087 20.426C39.1133 20.9787 39.1087 21.5314 39.1087 22.0849C39.1115 22.1141 39.1086 22.1435 39.1 22.1714C39.0914 22.1994 39.0773 22.2254 39.0586 22.2478C39.0399 22.2703 39.0169 22.2888 38.9909 22.3023C38.9649 22.3158 38.9366 22.324 38.9074 22.3265C38.85 22.3397 38.7897 22.3323 38.7372 22.3055C38.6847 22.2788 38.6433 22.2344 38.6202 22.1802C38.5242 21.9696 38.4429 21.7528 38.35 21.5407C38.3268 21.4873 38.3098 21.3983 38.2285 21.4207C38.1472 21.4432 38.1805 21.5268 38.179 21.5856C38.1743 21.7265 38.179 21.8682 38.1743 22.0098C38.1697 22.1515 38.1673 22.3149 37.9715 22.3195C37.7501 22.3195 37.747 22.1538 37.7478 21.992C37.7532 21.7482 37.7524 21.5043 37.7516 21.2597Z" fill="#83A047"/>
<path d="M30.0801 21.2729C30.0801 21.5299 30.0801 21.7861 30.0801 22.0431C30.0801 22.1817 30.0538 22.3032 29.8873 22.3264C29.8241 22.3403 29.7581 22.3309 29.7012 22.3001C29.6444 22.2692 29.6005 22.219 29.5777 22.1584C29.4879 21.9479 29.4051 21.7335 29.3137 21.5237C29.2959 21.4811 29.2525 21.4199 29.2193 21.4192C29.1248 21.4192 29.1488 21.5059 29.1473 21.5608C29.1328 21.7153 29.1328 21.8708 29.1473 22.0253C29.1775 22.2304 29.0103 22.2831 28.9026 22.2908C28.7641 22.3001 28.713 22.1615 28.7145 22.0168C28.7192 21.5035 28.7145 20.9903 28.7145 20.4763C28.7145 20.3547 28.7409 20.244 28.8787 20.2053C29.0335 20.1628 29.1271 20.2464 29.1883 20.3671C29.2735 20.5374 29.3431 20.7132 29.4205 20.8897C29.4562 20.9756 29.4979 21.0747 29.5978 21.053C29.6822 21.0352 29.6551 20.926 29.6574 20.8548C29.6621 20.7263 29.6574 20.5978 29.6574 20.4678C29.6628 20.3276 29.7093 20.2069 29.8742 20.2038C30.0391 20.2007 30.0801 20.3238 30.0801 20.4654C30.0796 20.7343 30.0796 21.0035 30.0801 21.2729Z" fill="#83A047"/>
<path d="M21.4176 17.9171C21.4274 17.7108 21.4259 17.504 21.413 17.2978C21.3813 17.0161 21.4796 16.8868 21.7699 16.9108C21.9619 16.9247 22.1569 16.9046 22.3474 16.934C22.818 17.006 23.0905 17.3033 23.1285 17.7538C23.1741 18.3034 22.9419 18.6913 22.479 18.8507C22.1902 18.9498 21.8945 18.9196 21.5988 18.9165C21.4378 18.9165 21.4138 18.8198 21.4161 18.6882C21.4207 18.4319 21.4176 18.1741 21.4176 17.9171ZM21.8752 17.9094C21.8829 18.0249 21.8829 18.1407 21.8752 18.2562C21.8341 18.5659 21.9944 18.6022 22.239 18.5349C22.496 18.4644 22.6144 18.2748 22.6477 18.0302C22.6841 17.7646 22.6532 17.5115 22.3969 17.352C22.3328 17.3078 22.2589 17.2796 22.1816 17.2697C22.1043 17.2599 22.0258 17.2687 21.9526 17.2955C21.8032 17.3582 21.8968 17.5223 21.8806 17.6408C21.8719 17.7293 21.8701 17.8183 21.8752 17.9071V17.9094Z" fill="#F4F4F4"/>
<path d="M37.1951 14.5968C37.1814 14.5078 37.1814 14.4172 37.1951 14.3282C37.2787 14.0843 36.9628 13.6903 37.4126 13.5966C38.1457 13.4418 38.6814 13.6826 38.8525 14.1757C39.0847 14.8453 38.7185 15.4522 38.0071 15.5745C37.9302 15.5862 37.8526 15.5924 37.7749 15.5931C37.1889 15.6101 37.1889 15.6094 37.1889 15.021C37.1943 14.8794 37.1943 14.7377 37.1951 14.5968ZM37.6595 14.5844C37.6513 14.6616 37.6513 14.7395 37.6595 14.8166C37.6897 14.9521 37.5573 15.1573 37.7648 15.2115C37.8658 15.2401 37.9734 15.235 38.0713 15.1968C38.1691 15.1587 38.2518 15.0896 38.3067 15.0001C38.3844 14.8887 38.4311 14.7587 38.4418 14.6233C38.4526 14.4879 38.427 14.3521 38.3679 14.2299C38.2572 13.9829 38.0311 13.9009 37.7927 13.9403C37.5403 13.9821 37.6959 14.2128 37.6611 14.356C37.6505 14.4317 37.6487 14.5083 37.6557 14.5844H37.6595Z" fill="#F4F4F4"/>
<path d="M46.3119 14.5907C46.2994 14.5017 46.301 14.4113 46.3165 14.3228C46.394 14.0836 46.0936 13.7128 46.4985 13.6006C47.1348 13.4249 47.7595 13.6695 47.9461 14.1076C48.2201 14.7532 47.8787 15.412 47.1936 15.5599C46.4257 15.7255 46.3119 15.6373 46.3119 14.8632V14.5907ZM46.7686 14.5744C46.7756 14.6894 46.7756 14.8047 46.7686 14.9197C46.7261 15.2827 46.9467 15.2595 47.1727 15.186C47.4212 15.1086 47.5203 14.8957 47.5428 14.6503C47.5652 14.4049 47.5335 14.1819 47.3175 14.031C47.1766 13.9335 47.0024 13.8762 46.8437 13.9536C46.7013 14.0202 46.7857 14.1858 46.7725 14.3043C46.765 14.3954 46.7632 14.4869 46.7671 14.5783L46.7686 14.5744Z" fill="#F4F4F4"/>
<path d="M38.076 17.8868C38.088 17.7458 38.0865 17.604 38.0714 17.4633C37.9939 17.0631 38.2486 16.8162 38.4584 16.5452C38.502 16.4865 38.5663 16.4467 38.6383 16.4339C38.7102 16.4211 38.7844 16.4363 38.8455 16.4763C39.0777 16.6017 39.087 16.8998 39.279 17.0755C39.3564 17.149 39.2743 17.3178 39.0878 17.3077C38.9601 17.2992 38.8308 17.3077 38.7007 17.3077C38.5707 17.3077 38.5358 17.3906 38.532 17.509C38.5273 17.6421 38.5854 17.6948 38.7116 17.6932C38.8145 17.6932 38.9182 17.6987 39.0212 17.6932C39.1559 17.687 39.2418 17.7196 39.2457 17.8798C39.2496 18.04 39.1791 18.0857 39.0359 18.0757C38.9461 18.0695 38.8548 18.0826 38.765 18.0757C38.5722 18.0548 38.5327 18.1477 38.5281 18.3234C38.5234 18.4991 38.5993 18.5463 38.7603 18.5355C38.8888 18.527 39.0181 18.5394 39.1474 18.5355C39.2767 18.5316 39.3278 18.5943 39.3262 18.7205C39.3247 18.8467 39.3092 18.9233 39.1621 18.9218C38.8659 18.9182 38.5696 18.9182 38.2734 18.9218C38.1186 18.9218 38.0783 18.8366 38.0799 18.7019C38.0783 18.4271 38.076 18.1569 38.076 17.8868Z" fill="#F4F4F4"/>
<path d="M40.6972 14.569C40.7115 14.4024 40.7115 14.2348 40.6972 14.0682C40.6275 13.6664 40.8032 13.5596 41.1802 13.5681C41.7771 13.5805 42.0821 13.7376 42.0976 14.11C42.0976 14.1611 42.1092 14.2346 42.0813 14.2602C41.7051 14.6023 42.0287 14.9321 42.0875 15.2665C42.1053 15.371 42.2539 15.5274 42.0318 15.5762C41.8661 15.6133 41.6904 15.611 41.6408 15.3811C41.6138 15.2557 41.5797 15.131 41.541 15.0087C41.5294 14.9511 41.4971 14.8997 41.4501 14.8643C41.4032 14.8289 41.3449 14.812 41.2863 14.8167C41.0966 14.8291 41.1679 14.9785 41.1586 15.08C41.1515 15.183 41.1515 15.2865 41.1586 15.3896C41.1663 15.5444 41.0873 15.5878 40.9457 15.5885C40.804 15.5893 40.6941 15.5676 40.6995 15.3826C40.7034 15.1094 40.6972 14.8392 40.6972 14.569ZM41.1446 14.2439C41.1446 14.3391 41.1268 14.4761 41.3273 14.4583C41.4945 14.4421 41.6323 14.3809 41.637 14.1889C41.6416 13.997 41.5061 13.9265 41.3366 13.918C41.1129 13.9072 41.1477 14.072 41.1446 14.2439Z" fill="#F4F4F4"/>
<path d="M33.3345 14.5721C33.3345 15.1999 32.9575 15.6071 32.3839 15.6009C31.8474 15.5963 31.4797 15.1961 31.4743 14.6124C31.4689 13.997 31.8613 13.5611 32.4125 13.5596C32.9637 13.558 33.3361 13.959 33.3345 14.5721ZM32.8569 14.5721C32.8569 14.1897 32.668 13.9219 32.4048 13.9226C32.1416 13.9234 31.9403 14.2106 31.9488 14.6101C31.955 14.9925 32.147 15.2448 32.4234 15.2294C32.6997 15.2139 32.86 14.9654 32.8569 14.5706V14.5721Z" fill="#F4F4F4"/>
<path d="M62.2774 18.3489C62.248 18.5525 62.3935 18.8273 62.0072 18.9009C61.4135 19.0139 60.8972 18.8498 60.6912 18.4364C60.4954 18.0447 60.5542 17.5477 60.8321 17.2443C61.11 16.9408 61.6775 16.8146 62.0514 16.9478C62.1729 16.9911 62.2155 17.0476 62.1814 17.1738C62.1512 17.2845 62.1234 17.3596 61.9763 17.3333C61.8253 17.3023 61.6702 17.2963 61.5172 17.3155C61.1944 17.3666 61.014 17.653 61.0528 18.0083C61.0922 18.3482 61.3276 18.5696 61.6388 18.5502C61.7231 18.5456 61.8393 18.5618 61.8393 18.4318C61.8393 18.3311 61.9167 18.1701 61.7456 18.1469C61.5745 18.1237 61.535 18.03 61.5559 17.8868C61.5823 17.7087 61.7278 17.7683 61.8323 17.7637C62.2774 17.7428 62.2774 17.7451 62.2774 18.3489Z" fill="#F4F4F4"/>
<path d="M29.7194 14.319C29.7194 14.4986 29.731 14.6797 29.7194 14.8609C29.6806 15.3346 29.4097 15.5947 28.9506 15.604C28.4808 15.6133 28.2036 15.3811 28.1618 14.8941C28.1308 14.5365 28.1525 14.175 28.1409 13.8158C28.1355 13.6555 28.1843 13.5836 28.3569 13.5836C28.5295 13.5836 28.6108 13.637 28.6054 13.8243C28.5969 14.1587 28.5992 14.4932 28.6155 14.8268C28.6247 15.0265 28.6812 15.2247 28.9398 15.2239C29.1984 15.2231 29.2495 15.0273 29.2611 14.8252C29.2742 14.4916 29.2773 14.1564 29.2704 13.8228C29.2657 13.6346 29.3478 13.5843 29.5235 13.5828C29.6992 13.5812 29.7364 13.671 29.7302 13.8204C29.724 13.9876 29.7302 14.1549 29.7302 14.3221L29.7194 14.319Z" fill="#F4F4F4"/>
<path d="M34.2696 17.8961C34.2696 18.5332 33.9097 18.9334 33.3314 18.9326C32.7748 18.9326 32.4025 18.527 32.4102 17.9224C32.4179 17.3178 32.7973 16.9044 33.3391 16.8959C33.8903 16.8866 34.2681 17.2876 34.2696 17.8961ZM33.792 17.934C33.7982 17.5469 33.6279 17.2822 33.3647 17.2652C33.0821 17.2474 32.8894 17.5106 32.8832 17.9232C32.8785 18.2924 33.0713 18.5711 33.3345 18.575C33.5977 18.5789 33.7866 18.3234 33.792 17.934Z" fill="#F4F4F4"/>
<path d="M57.0033 17.9025C57.0033 18.5341 56.6333 18.9367 56.0589 18.9336C55.5054 18.9336 55.1384 18.521 55.147 17.9156C55.1555 17.3102 55.534 16.9007 56.0759 16.8953C56.6178 16.8899 57.0041 17.2979 57.0033 17.9025ZM55.62 17.8839C55.6029 18.2516 55.781 18.545 56.038 18.5705C56.295 18.5961 56.4955 18.3654 56.5187 17.993C56.5443 17.5835 56.3801 17.2963 56.1092 17.27C55.8383 17.2437 55.6393 17.4922 55.62 17.8839Z" fill="#F4F4F4"/>
<path d="M58.5361 17.9108C58.5446 17.3008 58.9471 16.8804 59.5084 16.8951C60.0363 16.9099 60.3963 17.3217 60.3932 17.9069C60.3932 18.5355 60.0177 18.9381 59.4426 18.9342C58.8922 18.9311 58.5276 18.5193 58.5361 17.9108ZM59.9117 17.9348C59.9179 17.5477 59.7429 17.2783 59.4774 17.2691C59.2119 17.2598 59.0207 17.5067 59.0129 17.9038C59.0044 18.2855 59.1825 18.5587 59.4472 18.5711C59.712 18.5835 59.9055 18.3273 59.9117 17.9348Z" fill="#F4F4F4"/>
<path d="M19.8446 21.2869V20.8626C19.8446 20.2395 20.1674 20.0258 20.7736 20.248C20.9795 20.3254 21.1188 20.4957 21.067 20.6923C20.9462 21.1568 21.0871 21.6035 21.0894 22.0579C21.0894 22.198 21.0825 22.3219 20.8974 22.3234C20.8651 22.3276 20.8321 22.3247 20.801 22.3148C20.7699 22.3049 20.7413 22.2883 20.7173 22.2662C20.6933 22.244 20.6745 22.2169 20.6621 22.1866C20.6498 22.1564 20.6442 22.1238 20.6459 22.0912C20.6404 22.0277 20.6335 21.9634 20.6296 21.8992C20.6257 21.8349 20.6242 21.7707 20.6219 21.7064C20.6157 21.5702 20.587 21.4308 20.426 21.4223C20.2178 21.4107 20.2766 21.588 20.2712 21.7026C20.2619 21.8303 20.2712 21.9596 20.2712 22.0896C20.2712 22.2197 20.2185 22.3219 20.0699 22.3219C20.0406 22.3237 20.0113 22.3191 19.984 22.3085C19.9566 22.2979 19.932 22.2814 19.9116 22.2603C19.8913 22.2391 19.8758 22.2138 19.8662 22.1861C19.8567 22.1583 19.8533 22.1289 19.8562 22.0997C19.8562 21.8295 19.8562 21.5578 19.8562 21.29L19.8446 21.2869ZM20.3927 20.5321C20.193 20.5716 20.2704 20.7419 20.2588 20.865C20.2472 20.988 20.2743 21.1042 20.4399 21.0794C20.6056 21.0546 20.6582 20.9246 20.6466 20.7697C20.6475 20.7369 20.6415 20.7042 20.6288 20.6739C20.6161 20.6435 20.5972 20.6162 20.5732 20.5937C20.5492 20.5713 20.5207 20.5542 20.4896 20.5435C20.4585 20.5329 20.4254 20.529 20.3927 20.5321Z" fill="#83A047"/>
<path d="M24.9817 17.6439C24.9817 17.8242 24.9957 18.0054 24.9817 18.1858C24.9337 18.6889 24.6612 18.9382 24.1805 18.9366C23.716 18.9366 23.4575 18.7044 23.418 18.1997C23.3909 17.8544 23.4118 17.503 23.3971 17.1585C23.3894 16.9681 23.4683 16.9154 23.6471 16.9162C23.826 16.917 23.8654 16.9936 23.8616 17.1484C23.8546 17.4441 23.8523 17.7406 23.8616 18.0363C23.8701 18.2686 23.8709 18.548 24.1882 18.5542C24.5056 18.5604 24.5227 18.2895 24.5281 18.0518C24.5358 17.7693 24.5366 17.4859 24.5281 17.2003C24.5234 17.0238 24.5428 16.9084 24.7696 16.9084C25.0181 16.9084 24.9933 17.0579 24.991 17.2181C24.991 17.3598 24.991 17.5014 24.991 17.6423L24.9817 17.6439Z" fill="#F4F4F4"/>
<path d="M42.1386 20.5329C41.9838 21.0229 42.0984 21.5152 42.1293 22.0076C42.1386 22.15 42.1634 22.3064 41.9528 22.3234C41.7423 22.3404 41.6865 22.2205 41.6819 22.037C41.6771 21.883 41.6626 21.7294 41.6385 21.5772C41.634 21.5314 41.6118 21.4893 41.5767 21.4596C41.5416 21.43 41.4963 21.4152 41.4504 21.4185C41.3281 21.4185 41.3134 21.5176 41.3103 21.6089C41.3041 21.7761 41.3103 21.9433 41.3033 22.1098C41.3059 22.139 41.3016 22.1685 41.291 22.1959C41.2804 22.2233 41.2637 22.2479 41.2421 22.2679C41.2205 22.2878 41.1946 22.3026 41.1665 22.311C41.1383 22.3194 41.1086 22.3213 41.0796 22.3165C40.9527 22.3079 40.9023 22.2228 40.9016 22.1067C40.9016 21.5547 40.8946 21.002 40.8954 20.4493C40.8948 20.3973 40.9126 20.3468 40.9456 20.3066C40.9786 20.2664 41.0246 20.239 41.0757 20.2294C41.2614 20.174 41.4589 20.1716 41.6459 20.2225C41.8329 20.2734 42.0019 20.3755 42.134 20.5174L42.1386 20.5329ZM41.2979 20.8286C41.3204 20.9277 41.2577 21.0972 41.4698 21.0809C41.6246 21.0686 41.6857 20.9602 41.6896 20.8185C41.6896 20.6637 41.6401 20.5352 41.4574 20.5352C41.2569 20.5391 41.3142 20.6985 41.2979 20.8286Z" fill="#83A047"/>
<path d="M30.365 21.2442C30.3545 21.1038 30.3545 20.9628 30.365 20.8223C30.4006 20.5901 30.2163 20.2526 30.6746 20.2162C31.3156 20.1651 31.5618 20.2859 31.6369 20.7581C31.6636 20.9737 31.6729 21.1912 31.6647 21.4083C31.6647 22.1383 31.4325 22.3481 30.7118 22.3156C30.4462 22.3032 30.3479 22.1894 30.3611 21.9332C30.3735 21.701 30.3611 21.4734 30.3611 21.2434L30.365 21.2442ZM30.7768 21.2179C30.7768 21.3975 30.7768 21.5771 30.7768 21.7598C30.7768 21.8465 30.7629 21.9572 30.8782 21.9812C30.9353 21.9965 30.996 21.9895 31.048 21.9616C31.1001 21.9337 31.1396 21.887 31.1584 21.831C31.2776 21.4633 31.2824 21.0682 31.1724 20.6977C31.1375 20.5692 31.0176 20.5289 30.8921 20.5498C30.7513 20.5746 30.7791 20.7008 30.776 20.7983C30.7745 20.9361 30.7776 21.0809 30.7783 21.2179H30.7768Z" fill="#83A047"/>
<path d="M25.7264 21.9325C25.7578 21.5993 25.7578 21.264 25.7264 20.9308C25.7636 20.8269 25.7636 20.7134 25.7264 20.6095L25.7613 20.3161L25.8472 20.2349C25.8592 20.236 25.8714 20.2345 25.8829 20.2307C25.8943 20.2268 25.9048 20.2206 25.9138 20.2124L26.6879 20.2379C26.8892 20.3463 27.0393 20.5391 26.9658 20.7388C26.8017 21.1839 27.0022 21.602 26.989 22.0316C26.989 22.1864 26.9937 22.325 26.7846 22.3242C26.6027 22.3242 26.54 22.2189 26.5338 22.0525C26.5284 21.8977 26.5176 21.7428 26.4974 21.5927C26.4945 21.5465 26.4735 21.5034 26.439 21.4726C26.4046 21.4417 26.3594 21.4257 26.3132 21.4278C26.1963 21.4278 26.1777 21.5269 26.1754 21.6221C26.1754 21.763 26.1839 21.9062 26.17 22.0463C26.1421 22.3258 26.0152 22.4225 25.7636 22.2367C25.7504 22.1338 25.738 22.0324 25.7264 21.9325ZM26.3225 20.5352C26.153 20.5275 26.1375 20.6459 26.1491 20.7674C26.1607 20.889 26.0779 21.0771 26.3093 21.0833C26.4642 21.0833 26.5338 20.9819 26.5416 20.8356C26.5493 20.6893 26.499 20.5569 26.3225 20.5337V20.5352Z" fill="#83A047"/>
<path d="M23.3437 21.3046C23.3305 21.4595 23.3204 21.6375 23.2988 21.8156C23.2539 22.1833 23.034 22.3574 22.671 22.3528C22.3079 22.3482 22.1004 22.167 22.0517 21.8016C22.0046 21.4578 22.0028 21.1093 22.0462 20.7651C22.102 20.3455 22.2878 20.1791 22.6655 20.1744C23.0572 20.1698 23.2345 20.32 23.3034 20.7426C23.3344 20.9184 23.3305 21.0995 23.3437 21.3046ZM22.9102 21.293C22.8978 21.091 22.8924 20.9114 22.8746 20.7333C22.8637 20.6265 22.8165 20.5313 22.6919 20.5197C22.5672 20.5081 22.503 20.5971 22.4859 20.7047C22.4219 21.084 22.4253 21.4715 22.496 21.8496C22.4976 21.8722 22.5036 21.8943 22.5138 21.9146C22.524 21.9349 22.5381 21.9529 22.5553 21.9677C22.5725 21.9825 22.5925 21.9937 22.6141 22.0006C22.6357 22.0076 22.6584 22.0102 22.681 22.0083C22.7268 22.0093 22.7713 21.9928 22.8053 21.9621C22.8394 21.9315 22.8606 21.8891 22.8645 21.8434C22.8885 21.6538 22.897 21.4618 22.9102 21.293Z" fill="#83A047"/>
<path d="M31.4162 16.9239C31.6252 16.886 31.6941 16.9936 31.7429 17.1678C31.8784 17.65 32.0386 18.1261 32.171 18.6092C32.195 18.6982 32.3607 18.8646 32.1253 18.9072C31.9705 18.9351 31.7801 18.9761 31.7228 18.7346C31.6818 18.5635 31.6671 18.3808 31.4008 18.3909C31.1948 18.3979 31.0439 18.4242 31.0269 18.6626C31.009 18.9134 30.8387 18.9583 30.6468 18.9103C30.3658 18.8391 30.5786 18.6525 30.605 18.5442C30.7133 18.1083 30.8689 17.6841 30.9758 17.2475C31.0392 16.9874 31.1523 16.8589 31.4162 16.9239ZM31.5269 17.8947L31.3659 17.4364C31.2335 17.5603 31.2583 17.7422 31.1987 17.8931C31.1391 18.0441 31.2297 18.0743 31.3535 18.0634C31.4317 18.0557 31.5486 18.0944 31.5262 17.8947H31.5269Z" fill="#F4F4F4"/>
<path d="M27.7918 16.9292C28.0457 16.8727 28.1301 16.9935 28.185 17.1994C28.3004 17.6329 28.4537 18.0571 28.562 18.4922C28.5938 18.6191 28.8183 18.8064 28.5566 18.904C28.3391 18.9853 28.1541 18.904 28.1231 18.6268C28.1014 18.4318 27.9737 18.3946 27.7957 18.3946C27.5859 18.3876 27.4775 18.4635 27.4605 18.6663C27.4403 18.9164 27.2723 18.962 27.0804 18.9125C26.8001 18.8405 27.0107 18.6586 27.0386 18.5494C27.1524 18.102 27.3025 17.6646 27.4256 17.2187C27.4798 17.0012 27.5503 16.8417 27.7918 16.9292ZM27.6501 17.8465C27.5944 17.9936 27.6114 18.0788 27.7662 18.0625C27.8436 18.054 27.9853 18.1074 27.9636 17.9658C27.9242 17.793 27.8708 17.6237 27.8042 17.4595C27.6509 17.5586 27.7159 17.7436 27.6501 17.8465Z" fill="#F4F4F4"/>
<path d="M43.7844 15.5793C43.5808 15.6187 43.508 15.4887 43.4833 15.3215C43.4531 15.1171 43.3478 15.0567 43.1426 15.056C42.9375 15.0552 42.8268 15.1233 42.809 15.3254C42.7873 15.5715 42.6217 15.6288 42.4289 15.5754C42.1665 15.5026 42.3577 15.3184 42.3863 15.2046C42.504 14.7448 42.6604 14.295 42.7734 13.8352C42.8314 13.6029 42.9661 13.5813 43.1659 13.5789C43.3656 13.5766 43.467 13.63 43.522 13.8313C43.6613 14.3383 43.8154 14.8377 43.9771 15.3424C44.046 15.5444 43.9802 15.604 43.7844 15.5793ZM43.2998 14.5497C43.2495 14.4452 43.2603 14.2261 43.1078 14.2447C43.0002 14.2586 42.9925 14.4823 42.9747 14.617C42.9569 14.7517 43.0846 14.7223 43.1666 14.7277C43.282 14.7331 43.3338 14.6828 43.2998 14.5497Z" fill="#F4F4F4"/>
<path d="M44.8271 16.9208C45.0361 16.8728 45.1283 16.9828 45.1848 17.1918C45.3117 17.6624 45.4681 18.1254 45.6005 18.5945C45.6284 18.6943 45.7754 18.8538 45.5649 18.9041C45.4023 18.9444 45.1987 18.9738 45.1492 18.7044C45.1198 18.5449 45.0857 18.3816 44.8395 18.3909C44.639 18.3994 44.4842 18.4118 44.461 18.6564C44.4439 18.8298 44.3681 18.9359 44.1622 18.9212C44.0027 18.9103 43.9214 18.891 43.981 18.6998C44.1459 18.1734 44.3054 17.6454 44.4501 17.1128C44.5105 16.9007 44.6537 16.9139 44.8271 16.9208ZM44.8086 18.065C44.8976 18.0603 45.006 18.065 44.9634 17.9256C44.9208 17.7863 44.8697 17.4728 44.8086 17.4921C44.6321 17.5494 44.677 17.7863 44.6305 17.9481C44.5895 18.0859 44.728 18.0534 44.8086 18.0619V18.065Z" fill="#F4F4F4"/>
<path d="M64.7771 18.9134C64.5897 18.9506 64.5208 18.8415 64.4945 18.6812C64.4604 18.4761 64.3683 18.3793 64.1345 18.387C63.9217 18.3948 63.8249 18.4714 63.8055 18.6696C63.7831 18.9243 63.6035 18.9583 63.4185 18.9073C63.1862 18.8438 63.3504 18.675 63.379 18.5682C63.5029 18.1099 63.6561 17.6586 63.7753 17.1995C63.8295 16.9898 63.917 16.9031 64.1431 16.9092C64.3497 16.9147 64.4666 16.9487 64.5255 17.1779C64.6524 17.6749 64.808 18.1656 64.9683 18.6533C65.0356 18.8593 65.0054 18.9506 64.7771 18.9134ZM63.9658 17.9326C63.9464 18.1014 64.0649 18.0611 64.1423 18.0635C64.2398 18.0635 64.3645 18.0836 64.3064 17.9086C64.2483 17.7337 64.1988 17.5765 64.1454 17.4109C64.0177 17.5672 64.0471 17.7747 63.9658 17.9319V17.9326Z" fill="#F4F4F4"/>
<path d="M39.3688 21.2581C39.3591 21.0921 39.3591 20.9256 39.3688 20.7596C39.4168 20.3524 39.6119 20.179 39.9951 20.1751C40.3782 20.1712 40.5749 20.3299 40.6275 20.7487C40.6794 21.1173 40.6747 21.4917 40.6136 21.8588C40.5455 22.2312 40.3039 22.3628 39.9486 22.3496C39.5933 22.3365 39.416 22.1298 39.3758 21.7961C39.3541 21.6181 39.3572 21.4377 39.3494 21.2589L39.3688 21.2581ZM40.2358 21.2488C40.2219 21.0863 40.211 20.8811 40.1839 20.6783C40.1809 20.6324 40.1602 20.5894 40.1261 20.5585C40.092 20.5276 40.0472 20.5111 40.0012 20.5126C39.9554 20.5121 39.9111 20.5288 39.8771 20.5595C39.843 20.5902 39.8219 20.6327 39.8178 20.6783C39.7446 21.0566 39.7431 21.4452 39.8131 21.824C39.8325 21.9347 39.8905 22.0175 40.0198 22.0059C40.1491 21.9943 40.1894 21.896 40.2002 21.7899C40.218 21.6227 40.2226 21.4578 40.2358 21.2488Z" fill="#83A047"/>
<path d="M46.5062 17.907V17.7909C46.5062 16.8163 46.5062 16.8194 47.5048 16.9131C47.6395 16.9254 47.7216 16.9464 47.7193 17.1074C47.7169 17.2684 47.6519 17.3117 47.5079 17.304C47.3926 17.2978 47.2757 17.304 47.1603 17.304C47.0055 17.2986 46.9653 17.3814 46.9637 17.5192C46.9622 17.657 47.0411 17.6942 47.1565 17.6918C47.208 17.6871 47.2598 17.6871 47.3113 17.6918C47.4561 17.7127 47.679 17.6013 47.6689 17.8931C47.6589 18.1849 47.4297 18.0479 47.2935 18.0665C47.1387 18.0921 46.9606 18.0162 46.9567 18.2987C46.9529 18.5813 47.1255 18.5263 47.2857 18.531C47.3887 18.531 47.4917 18.531 47.5954 18.531C47.7417 18.531 47.758 18.6216 47.7556 18.7354C47.7556 18.8368 47.7278 18.9134 47.607 18.9134C47.2974 18.9134 46.9877 18.9134 46.6781 18.9134C46.507 18.9134 46.5047 18.8011 46.5054 18.6812C46.5078 18.4242 46.5062 18.1671 46.5062 17.907Z" fill="#F4F4F4"/>
<path d="M19.9004 17.88C19.9004 17.8544 19.9004 17.8289 19.9004 17.8025C19.9004 16.8643 19.9004 16.8651 20.8518 16.9177C20.981 16.9247 21.1119 16.9022 21.1126 17.1051C21.1126 17.2932 21.0089 17.3141 20.8649 17.3056C20.8393 17.3008 20.8131 17.3008 20.7875 17.3056C20.6327 17.352 20.3501 17.174 20.3602 17.5138C20.3687 17.8234 20.625 17.6609 20.7728 17.6887C20.906 17.7135 21.06 17.6562 21.0623 17.8861C21.0647 18.1161 20.9021 18.0657 20.772 18.0727C20.6822 18.0781 20.5924 18.0727 20.5019 18.0727C20.3184 18.0766 20.3587 18.2136 20.3548 18.3228C20.3509 18.4319 20.3548 18.5302 20.5096 18.5263C20.6644 18.5225 20.8193 18.5325 20.9741 18.5263C21.1289 18.5202 21.1459 18.6038 21.1405 18.7207C21.1359 18.8112 21.1405 18.9095 21.0089 18.9103C20.6877 18.9103 20.3656 18.9142 20.0444 18.9103C19.8965 18.9103 19.9012 18.7919 19.9012 18.6874L19.9004 17.88Z" fill="#F4F4F4"/>
<path d="M39.1815 14.549V14.4715C39.1815 13.4969 39.2302 13.4559 40.201 13.5805C40.3256 13.5968 40.3852 13.6285 40.3868 13.7609C40.3883 13.8933 40.3519 13.9823 40.1932 13.9722C40.0655 13.9653 39.9362 13.9722 39.8062 13.9722C39.6653 13.9676 39.6366 14.0496 39.6366 14.1673C39.6366 14.285 39.6707 14.3663 39.8093 14.3616C39.8991 14.3616 39.9896 14.3616 40.0794 14.3616C40.211 14.3616 40.3388 14.3492 40.3442 14.5459C40.3496 14.7425 40.2381 14.7502 40.0965 14.744C40.0191 14.7402 39.9416 14.7487 39.8642 14.744C39.7094 14.7301 39.632 14.7742 39.632 14.953C39.632 15.1319 39.6699 15.2232 39.8642 15.2062C39.992 15.1953 40.1212 15.2062 40.2513 15.2062C40.3813 15.2062 40.4317 15.2658 40.427 15.3935C40.4224 15.5213 40.3813 15.5878 40.2474 15.5871C39.9517 15.5871 39.656 15.5871 39.3603 15.5871C39.1962 15.5871 39.176 15.4918 39.1776 15.3618C39.1838 15.0877 39.1815 14.8183 39.1815 14.549Z" fill="#F4F4F4"/>
<path d="M30.0251 17.2877C29.5653 17.266 29.3222 17.4936 29.3238 17.9248C29.3238 18.3382 29.556 18.5542 29.981 18.5526C30.1126 18.5526 30.3007 18.4272 30.334 18.6958C30.3673 18.9644 30.1699 18.9041 30.0306 18.9281C29.9051 18.9474 29.8169 18.9699 29.9531 19.1053C29.9764 19.1239 29.9951 19.1474 30.008 19.1743C30.0209 19.2011 30.0276 19.2304 30.0276 19.2602C30.0276 19.2899 30.0209 19.3193 30.008 19.3461C29.9951 19.3729 29.9764 19.3964 29.9531 19.415C29.9014 19.4642 29.8367 19.4976 29.7666 19.5113C29.6966 19.525 29.624 19.5184 29.5576 19.4924C29.4678 19.4614 29.4298 19.4057 29.508 19.3244C29.5416 19.2934 29.567 19.2545 29.582 19.2112C29.597 19.168 29.6011 19.1217 29.5939 19.0766C29.5867 19.0314 29.5684 18.9887 29.5407 18.9522C29.5131 18.9158 29.4768 18.8867 29.4353 18.8677C28.9297 18.5898 28.7385 18.1477 28.8934 17.6159C29.0381 17.1236 29.4693 16.8495 30.0313 16.9076C30.1645 16.9215 30.3688 16.8704 30.3487 17.1267C30.3286 17.3829 30.1536 17.3024 30.0251 17.2877Z" fill="#F4F4F4"/>
<path d="M35.6762 14.5828C35.6762 14.5449 35.6762 14.5054 35.6762 14.4675C35.6762 13.4782 35.6762 13.4805 36.6725 13.5819C36.808 13.5951 36.8885 13.6206 36.8877 13.7785C36.887 13.9364 36.8034 13.9759 36.6679 13.9713C36.5518 13.9713 36.4357 13.9713 36.3203 13.9713C36.205 13.9713 36.1291 14.0038 36.1291 14.1439C36.1291 14.284 36.1562 14.3684 36.3164 14.3607C36.4326 14.3545 36.5487 14.3607 36.6648 14.3607C36.8018 14.356 36.8413 14.4303 36.8428 14.5526C36.8444 14.675 36.8065 14.75 36.6671 14.7431C36.5642 14.7384 36.4604 14.7485 36.3575 14.7431C36.2026 14.733 36.1252 14.774 36.1252 14.9529C36.1252 15.1317 36.1593 15.2238 36.3575 15.2052C36.4852 15.1936 36.6152 15.2052 36.7445 15.2052C36.8738 15.2052 36.9249 15.2633 36.9203 15.391C36.9156 15.5188 36.8924 15.59 36.7492 15.5884C36.4527 15.5846 36.157 15.5846 35.8605 15.5884C35.6971 15.5884 35.6731 15.4924 35.6739 15.3624C35.6786 15.0976 35.6762 14.8406 35.6762 14.5828Z" fill="#F4F4F4"/>
<path d="M48.296 14.5464V14.469C48.296 13.4859 48.296 13.4882 49.2807 13.5811C49.413 13.5935 49.5005 13.6128 49.4997 13.7731C49.499 13.9333 49.4223 13.9759 49.2861 13.9713C49.17 13.9674 49.0538 13.9759 48.9385 13.9713C48.7837 13.962 48.7388 14.0363 48.7426 14.1795C48.7426 14.3096 48.7992 14.3653 48.9277 14.3607C49.0438 14.3607 49.1599 14.3661 49.2752 14.3607C49.4154 14.3529 49.451 14.4288 49.4502 14.5503C49.4494 14.6719 49.4277 14.7531 49.2814 14.7438C49.1785 14.7369 49.0755 14.7485 48.9718 14.7438C48.8208 14.7346 48.7334 14.7678 48.7395 14.9505C48.745 15.1177 48.7713 15.2246 48.9718 15.206C49.0995 15.1944 49.2288 15.206 49.3588 15.206C49.4889 15.206 49.5408 15.261 49.5361 15.3902C49.5307 15.5079 49.5052 15.59 49.3643 15.5884C49.0686 15.5884 48.7728 15.5845 48.4763 15.5884C48.3084 15.5884 48.296 15.487 48.2967 15.3608C48.2967 15.086 48.296 14.8166 48.296 14.5464Z" fill="#F4F4F4"/>
<path d="M43.8169 21.2767C43.8169 21.1869 43.8169 21.0964 43.8169 21.0066C43.8068 20.1906 43.9423 20.0776 44.7536 20.2131C44.8736 20.2332 44.9967 20.2572 44.9897 20.4097C44.9827 20.5622 44.8643 20.587 44.7412 20.5939C44.6896 20.5912 44.638 20.5912 44.5864 20.5939C44.4532 20.6164 44.2535 20.5096 44.2396 20.7704C44.2249 21.0515 44.4238 21.0244 44.605 21.0336C44.7513 21.0414 44.9634 20.998 44.9556 21.2218C44.9479 21.4455 44.7358 21.3897 44.591 21.3936C44.4083 21.399 44.2349 21.3657 44.2311 21.6529C44.2264 21.9626 44.413 21.934 44.6104 21.9301C44.6878 21.9263 44.7655 21.9283 44.8426 21.9363C44.8885 21.9374 44.9323 21.956 44.9651 21.9881C44.9979 22.0203 45.0172 22.0638 45.0191 22.1097C45.0219 22.1324 45.0197 22.1554 45.0129 22.1773C45.006 22.1991 44.9946 22.2192 44.9794 22.2363C44.9642 22.2533 44.9455 22.267 44.9245 22.2762C44.9036 22.2855 44.881 22.2902 44.8581 22.29C44.5763 22.3001 44.293 22.3055 44.012 22.29C43.8572 22.2808 43.8177 22.1499 43.8208 22.0067C43.8208 21.7629 43.8208 21.519 43.8208 21.2752L43.8169 21.2767Z" fill="#83A047"/>
<path d="M28.5365 21.985C28.5473 22.1863 28.5411 22.2947 28.4064 22.3148C28.3499 22.33 28.2897 22.3233 28.2379 22.2961C28.186 22.2688 28.1464 22.2229 28.127 22.1677C28.0658 22.0168 28.1107 21.7985 27.832 21.7954C27.5534 21.7923 27.5789 21.9951 27.5263 22.1561C27.4837 22.2838 27.4024 22.3481 27.2638 22.3109C27.1253 22.2738 27.0966 22.1654 27.1253 22.0408C27.2507 21.5043 27.3792 20.9678 27.5069 20.4313C27.5188 20.3608 27.5562 20.2972 27.612 20.2525C27.6679 20.2078 27.7382 20.1852 27.8096 20.1891C27.9698 20.1821 28.096 20.2378 28.1378 20.3957C28.2834 20.9547 28.4188 21.5151 28.5365 21.985ZM27.9559 21.2751C27.8916 21.1521 27.9667 20.9655 27.815 20.8447C27.7322 20.9903 27.7167 21.1544 27.6888 21.3131C27.6679 21.4362 27.7268 21.4679 27.8336 21.4679C27.9536 21.4679 27.9869 21.4029 27.9559 21.2751Z" fill="#83A047"/>
<path d="M50.0509 17.897V17.7816C50.0509 16.8264 50.0842 16.8008 51.0573 16.9146C51.2028 16.9316 51.2616 16.9765 51.2601 17.1236C51.2601 17.287 51.1672 17.3117 51.0341 17.3055C50.9187 17.3001 50.8018 17.3055 50.6872 17.3055C50.558 17.2986 50.5046 17.3504 50.503 17.4828C50.5015 17.6152 50.5309 17.7058 50.6911 17.6965C50.8065 17.6895 50.9234 17.6965 51.0379 17.6965C51.1757 17.6926 51.2105 17.7692 51.2136 17.89C51.2167 18.0108 51.1804 18.0859 51.0418 18.0789C50.9396 18.0742 50.8351 18.0882 50.7321 18.0789C50.534 18.0564 50.4999 18.1563 50.4999 18.3282C50.4999 18.5 50.5734 18.5496 50.7321 18.5395C50.8599 18.531 50.9892 18.5395 51.1192 18.5395C51.2493 18.5395 51.3011 18.5983 51.2973 18.7253C51.2934 18.8368 51.2833 18.9281 51.1347 18.9266C50.8398 18.9219 50.544 18.9219 50.2491 18.9266C50.0943 18.9266 50.0478 18.8546 50.0501 18.7137C50.054 18.435 50.0509 18.1656 50.0509 17.897Z" fill="#F4F4F4"/>
<path d="M31.9047 21.2442V20.9345C31.9047 20.2332 32.2143 20.0102 32.9025 20.2192C32.9923 20.2463 33.0775 20.2843 33.0821 20.3911C33.0875 20.5204 32.9962 20.5715 32.8855 20.5839C32.7825 20.5926 32.6791 20.5947 32.5759 20.5901C32.4342 20.5862 32.3219 20.6032 32.3266 20.7906C32.3312 20.9454 32.3893 21.0329 32.5542 21.0267C32.58 21.0251 32.6058 21.0251 32.6316 21.0267C32.7864 21.0414 33.0326 20.9825 33.0388 21.2032C33.0473 21.4787 32.7818 21.3897 32.6223 21.389C32.4179 21.389 32.3188 21.4354 32.3188 21.6661C32.3188 21.8968 32.4435 21.9432 32.6347 21.9277C32.6989 21.9231 32.7632 21.9277 32.8275 21.9277C32.9467 21.9277 33.0783 21.9417 33.093 22.0895C33.1092 22.2645 32.9652 22.2846 32.8344 22.3024C32.8213 22.3024 32.8089 22.3024 32.7957 22.3024C31.9031 22.3969 31.9031 22.3969 31.9047 21.2442Z" fill="#83A047"/>
<path d="M35.2861 21.3905C35.2814 21.4927 35.2799 21.5949 35.2721 21.6963C35.2311 22.2204 34.625 22.5316 34.1589 22.273C34.0328 22.2034 34.0328 22.0934 34.0328 21.9773C34.0328 21.5035 34.0374 21.0306 34.0328 20.5576C34.0281 20.3098 34.1404 20.2255 34.3803 20.2154C35.125 20.1829 35.2466 20.2928 35.2892 21.0747L35.2861 21.3905ZM34.4345 21.2589C34.4345 21.4137 34.4291 21.5647 34.4345 21.7172C34.4399 21.8233 34.4005 21.9672 34.5723 21.982C34.6304 21.9926 34.6904 21.9806 34.74 21.9485C34.7897 21.9165 34.8252 21.8667 34.8394 21.8093C34.9333 21.4508 34.936 21.0745 34.8471 20.7147C34.8318 20.658 34.7958 20.609 34.7463 20.5774C34.6968 20.5457 34.6372 20.5337 34.5793 20.5436C34.4043 20.5537 34.4376 20.6915 34.4345 20.8006C34.4299 20.9524 34.433 21.1049 34.4322 21.2582L34.4345 21.2589Z" fill="#83A047"/>
<path d="M23.1068 15.6056C23.0379 15.594 22.9233 15.5793 22.8111 15.5553C22.6617 15.5236 22.5966 15.45 22.6439 15.2813C22.6911 15.1125 22.7801 15.1365 22.904 15.1783C22.9901 15.2039 23.0796 15.2165 23.1695 15.2155C23.2879 15.2155 23.4126 15.2054 23.4489 15.0653C23.4853 14.9252 23.3886 14.8555 23.2771 14.8021C23.1656 14.7487 23.0449 14.6976 22.9311 14.6325C22.7275 14.5133 22.6067 14.3422 22.6338 14.0907C22.6624 13.8282 22.8235 13.675 23.0611 13.5975C23.2609 13.5414 23.4721 13.5398 23.6727 13.5929C23.7896 13.6177 23.8561 13.6703 23.8221 13.8081C23.7934 13.9196 23.7571 14.0047 23.6177 13.9745C23.5554 13.9584 23.492 13.9467 23.428 13.9397C23.298 13.932 23.1525 13.9258 23.1184 14.0868C23.0836 14.2323 23.2152 14.2788 23.3166 14.3337C23.3622 14.3572 23.4089 14.3784 23.4567 14.3972C23.7903 14.5319 24.0133 14.751 23.9127 15.1357C23.812 15.5205 23.4977 15.5956 23.1068 15.6056Z" fill="#F4F4F4"/>
<path d="M25.0584 20.1799L25.2132 20.2279L25.2968 20.2813L25.32 20.2984L25.3688 20.3471L25.4872 20.6065L25.3657 20.9161L25.1675 20.9115L25.0638 20.7714L25.0452 20.694C25.07 20.5569 24.9755 20.5089 24.8733 20.5074C24.8482 20.5045 24.8228 20.5077 24.7992 20.5165C24.7755 20.5254 24.7543 20.5398 24.7373 20.5584C24.7203 20.5771 24.708 20.5995 24.7014 20.6239C24.6947 20.6483 24.694 20.6739 24.6992 20.6986L24.6759 20.848C24.5668 21.1476 24.655 21.4495 24.6713 21.7491C24.6775 21.8644 24.71 21.9813 24.8548 22.0014C24.8769 22.006 24.8998 22.0059 24.9219 22.0012C24.944 21.9965 24.9649 21.9873 24.9833 21.9742C25.0017 21.961 25.0171 21.9442 25.0287 21.9248C25.0403 21.9054 25.0478 21.8838 25.0506 21.8613C25.07 21.7359 25.1652 21.5943 24.9848 21.4936C24.6341 21.2985 24.83 21.2118 25.0622 21.1375L25.3719 21.1569L25.4555 21.2219L25.4973 21.3976C25.4549 21.5161 25.4568 21.6459 25.5027 21.763C25.5027 21.8729 25.5027 21.9829 25.5027 22.0936C25.4826 22.1663 25.4624 22.2391 25.4431 22.3119C25.4187 22.3131 25.3951 22.3211 25.375 22.3351H25.2976L25.2201 22.3142C25.1427 22.1841 25.0653 22.2182 24.9879 22.3142L24.9105 22.3351H24.6008C24.4892 22.2844 24.3951 22.2018 24.3305 22.0976C24.2658 21.9934 24.2336 21.8724 24.2378 21.7499C24.2378 21.2304 24.0528 20.6707 24.5227 20.238L25.0584 20.1799Z" fill="#83A047"/>
<path d="M26.4649 17.2877C25.9858 17.263 25.738 17.4882 25.7357 17.9132C25.7334 18.3382 25.968 18.5596 26.4208 18.5426C26.5756 18.5364 26.7444 18.483 26.7475 18.7276C26.7475 18.9482 26.5733 18.9103 26.4433 18.9235C26.0229 18.9668 25.6335 18.8995 25.4028 18.5023C25.2977 18.331 25.2427 18.1337 25.2441 17.9326C25.2454 17.7316 25.3031 17.535 25.4106 17.3652C25.6374 16.982 26.0113 16.8597 26.4386 16.9053C26.571 16.9193 26.7808 16.8666 26.7622 17.1167C26.7459 17.3481 26.5903 17.3326 26.4649 17.2877Z" fill="#F4F4F4"/>
<path d="M42.6859 17.2877C42.1959 17.2653 41.9544 17.4905 41.9544 17.9202C41.9544 18.3498 42.1951 18.5681 42.6511 18.5395C42.8191 18.5302 42.9692 18.5015 42.97 18.7322C42.9708 18.9629 42.7889 18.9087 42.6604 18.9219C42.24 18.9645 41.8514 18.8948 41.6223 18.4954C41.5175 18.3237 41.4631 18.1261 41.4653 17.925C41.4674 17.7239 41.5261 17.5275 41.6346 17.3582C41.8669 16.9773 42.2385 16.8558 42.6658 16.903C42.7982 16.9177 43.011 16.8604 42.9839 17.119C42.9576 17.3574 42.7974 17.3249 42.6859 17.2877Z" fill="#F4F4F4"/>
<path d="M36.6965 17.2878C36.2096 17.2623 35.9689 17.4806 35.9681 17.911C35.9673 18.3414 36.1949 18.5612 36.6478 18.5442C36.7987 18.5388 36.9729 18.4668 36.9768 18.7223C36.9806 18.9777 36.7778 18.9104 36.6423 18.9243C36.2181 18.9684 35.8357 18.8786 35.6166 18.4753C35.5166 18.301 35.4674 18.1021 35.4746 17.9012C35.4819 17.7004 35.5453 17.5056 35.6577 17.3389C35.8976 16.9627 36.277 16.8574 36.7012 16.9062C36.825 16.9201 37.0108 16.8837 36.9899 17.1136C36.9721 17.3559 36.8165 17.3227 36.6965 17.2878Z" fill="#F4F4F4"/>
<path d="M52.5049 18.9313C52.0838 18.9398 51.7393 18.7958 51.5759 18.3894C51.4126 17.983 51.442 17.5758 51.7393 17.2328C52.0365 16.8899 52.4213 16.8551 52.8347 16.9232C52.9508 16.9425 53.0104 17.0006 52.9895 17.1353C52.9593 17.3172 52.854 17.3048 52.7116 17.2971C52.1867 17.2669 51.9375 17.4953 51.9669 17.9706C51.9878 18.3483 52.1991 18.5419 52.5862 18.5527C52.7255 18.5566 52.9515 18.4118 52.9678 18.7075C52.9841 19.0033 52.7286 18.8902 52.5807 18.9336C52.5555 18.9362 52.5299 18.9355 52.5049 18.9313Z" fill="#F4F4F4"/>
<path d="M34.1806 14.5783V14.463C34.1806 13.5185 34.1806 13.5209 35.1343 13.5812C35.2799 13.5905 35.3844 13.6014 35.3766 13.7879C35.3704 13.9505 35.2713 13.9474 35.1506 13.9776C34.9749 14.0217 34.6582 13.7895 34.6443 14.1727C34.6288 14.5922 34.9733 14.3569 35.1545 14.4049C35.2799 14.4351 35.3302 14.4738 35.3294 14.6008C35.3286 14.7277 35.2698 14.8082 35.1452 14.7811C34.6443 14.6743 34.5924 14.96 34.6381 15.3408C34.6598 15.522 34.5801 15.5909 34.395 15.5893C34.21 15.5878 34.1744 15.5119 34.1791 15.3571C34.186 15.0931 34.1806 14.8361 34.1806 14.5783Z" fill="#F4F4F4"/>
<path d="M49.3225 18.1027C49.3225 18.2816 49.3163 18.4612 49.3225 18.64C49.3287 18.8188 49.2992 18.9272 49.0763 18.9225C48.8657 18.9187 48.8588 18.8056 48.8611 18.6508C48.8657 18.2924 48.8541 17.934 48.8657 17.5763C48.8719 17.3805 48.8108 17.2868 48.6049 17.3108C48.4462 17.3286 48.3308 17.3023 48.3401 17.0941C48.3494 16.8858 48.4856 16.9199 48.6103 16.9191C48.9563 16.9191 49.3023 16.9191 49.6484 16.9191C49.7738 16.9191 49.8458 16.9594 49.8396 17.0933C49.8349 17.1924 49.8551 17.3356 49.7018 17.3077C49.2435 17.2257 49.3147 17.5345 49.3202 17.7977C49.3232 17.8976 49.3225 17.9998 49.3225 18.1027Z" fill="#F4F4F4"/>
<path d="M30.4555 14.7772C30.4555 14.6224 30.4463 14.4675 30.4555 14.3127C30.4718 14.0905 30.4432 13.9256 30.1544 13.9729C30.0251 13.993 29.9346 13.9504 29.9299 13.7886C29.9245 13.6052 30.0251 13.5788 30.173 13.5804C30.5208 13.585 30.8684 13.585 31.2157 13.5804C31.3504 13.5804 31.4379 13.6083 31.4379 13.7685C31.4379 13.9133 31.3822 13.9953 31.2335 13.9721C30.9355 13.9256 30.896 14.0843 30.9107 14.329C30.9254 14.6113 30.9254 14.8943 30.9107 15.1766C30.903 15.3446 31.0129 15.59 30.6723 15.5815C30.3317 15.573 30.485 15.3167 30.4571 15.1588C30.4463 15.0319 30.4458 14.9042 30.4555 14.7772Z" fill="#F4F4F4"/>
<path d="M24.5854 14.7485C24.5854 14.62 24.5792 14.4915 24.5854 14.3614C24.6009 14.1246 24.6016 13.9148 24.2595 13.9744C24.1116 13.9999 24.0566 13.914 24.0597 13.7677C24.0597 13.6353 24.1201 13.5842 24.2463 13.5842C24.6194 13.5842 24.9933 13.5842 25.3665 13.5842C25.4864 13.5842 25.5615 13.6167 25.5615 13.7569C25.5615 13.897 25.5344 14.0007 25.3742 13.9744C25.0429 13.9202 25.0274 14.1106 25.0382 14.3614C25.0529 14.6819 25.0382 15.004 25.0444 15.3252C25.0483 15.494 25.0096 15.5869 24.8122 15.5892C24.6148 15.5915 24.573 15.5002 24.58 15.3291C24.5931 15.1348 24.5854 14.9413 24.5854 14.7485Z" fill="#F4F4F4"/>
<path d="M42.1765 20.4486C42.1603 20.159 42.4041 20.1699 42.6867 20.2024C42.9151 20.2287 43.1512 20.2063 43.3795 20.214C43.4995 20.2179 43.6242 20.2504 43.6342 20.3959C43.6443 20.5415 43.5189 20.5933 43.402 20.5871C43.1558 20.5747 43.1396 20.718 43.1426 20.9053C43.1488 21.2924 43.1426 21.6748 43.1426 22.0595C43.1426 22.2043 43.107 22.3212 42.9375 22.3227C42.768 22.3243 42.7192 22.2074 42.7169 22.0657C42.7122 21.7561 42.7169 21.4464 42.7169 21.1422C42.7262 20.519 42.7889 20.5492 42.288 20.5461C42.2652 20.5459 42.2431 20.5382 42.2251 20.5242C42.207 20.5102 42.1941 20.4907 42.1881 20.4687L42.1765 20.4486Z" fill="#83A047"/>
<path d="M26.9588 14.747C26.9588 14.5922 26.9472 14.4374 26.9588 14.2825C26.9797 14.0565 26.9101 13.9388 26.6631 13.9729C26.4982 13.9961 26.4309 13.9218 26.4355 13.7538C26.4402 13.5858 26.5439 13.5789 26.6678 13.5796C27.0153 13.5796 27.3645 13.5796 27.7097 13.5796C27.839 13.5796 27.9304 13.5943 27.9335 13.7616C27.9366 13.9288 27.856 13.9977 27.7012 13.9721C27.4086 13.9233 27.3916 14.0944 27.4016 14.3127C27.4125 14.6595 27.4016 15.0094 27.407 15.3532C27.4109 15.5165 27.3552 15.5854 27.1857 15.5854C27.0161 15.5854 26.948 15.5327 26.9534 15.3624C26.9627 15.1581 26.9588 14.9529 26.9588 14.747Z" fill="#F4F4F4"/>
<path d="M44.2852 14.5706C44.2852 14.3275 44.2907 14.0836 44.2852 13.8406C44.2798 13.6764 44.3054 13.5781 44.5097 13.5781C44.7141 13.5781 44.742 13.6687 44.742 13.8367C44.7342 14.1819 44.7544 14.5295 44.7342 14.874C44.7195 15.1326 44.8117 15.2239 45.0648 15.1922C45.1679 15.1847 45.2714 15.1847 45.3744 15.1922C45.5029 15.1922 45.5084 15.2851 45.506 15.3803C45.5037 15.4755 45.506 15.5653 45.3806 15.5785C45.3427 15.5831 45.3032 15.5785 45.2653 15.5823C44.2852 15.6481 44.2852 15.6481 44.2852 14.5706Z" fill="#F4F4F4"/>
<path d="M57.7248 17.7343V17.8891C57.7248 18.4588 57.7248 18.4627 58.2953 18.5239C58.4138 18.5363 58.4896 18.5525 58.4873 18.6949C58.4873 18.8242 58.4695 18.921 58.3046 18.9179C58.0221 18.9125 57.7395 18.9133 57.4531 18.9179C57.3168 18.9179 57.2758 18.8536 57.2758 18.7306C57.2758 18.1887 57.2758 17.6538 57.2758 17.115C57.2758 16.9601 57.3401 16.916 57.4833 16.916C57.6265 16.916 57.7349 16.9338 57.7263 17.1196C57.7178 17.3232 57.7256 17.5291 57.7248 17.7343Z" fill="#F4F4F4"/>
<path d="M37.2655 17.8767C37.2655 17.6337 37.2732 17.3898 37.2655 17.1475C37.2585 16.9857 37.312 16.9153 37.4815 16.9153C37.651 16.9153 37.7346 16.9641 37.7315 17.1545C37.7215 17.6654 37.7246 18.1779 37.7315 18.6896C37.7315 18.8444 37.6882 18.9218 37.5148 18.9218C37.3414 18.9218 37.257 18.8738 37.2655 18.6826C37.2748 18.414 37.2655 18.1454 37.2655 17.8767Z" fill="#F4F4F4"/>
<path d="M20.3563 14.5913C20.3563 14.8352 20.3501 15.0798 20.3563 15.3244C20.3618 15.4916 20.33 15.5876 20.1241 15.5861C19.9182 15.5845 19.8919 15.4916 19.8919 15.3236C19.8981 14.822 19.8996 14.3173 19.8919 13.8188C19.8919 13.6268 19.9693 13.5803 20.1442 13.5803C20.3192 13.5803 20.3563 13.6678 20.3525 13.8195C20.3509 14.0765 20.3563 14.3335 20.3563 14.5913Z" fill="#F4F4F4"/>
<path d="M43.2518 17.941C43.2518 17.6723 43.2595 17.403 43.2518 17.1351C43.2448 16.9602 43.3292 16.9168 43.484 16.916C43.6388 16.9153 43.7217 16.947 43.7163 17.1274C43.707 17.6512 43.707 18.1755 43.7163 18.7004C43.7163 18.8707 43.6512 18.9218 43.4902 18.9195C43.3292 18.9171 43.2448 18.8869 43.251 18.7081C43.2572 18.4527 43.251 18.1964 43.2518 17.941Z" fill="#F4F4F4"/>
<path d="M25.7721 14.5876C25.7721 14.3322 25.7814 14.0759 25.7721 13.8212C25.7628 13.6347 25.8371 13.5766 26.0175 13.5797C26.1847 13.5797 26.2389 13.6455 26.2366 13.8081C26.2288 14.319 26.2288 14.8299 26.2366 15.3408C26.2366 15.5251 26.1731 15.5878 25.9912 15.5855C25.8093 15.5831 25.7675 15.5135 25.7721 15.3532C25.7775 15.0985 25.7721 14.8431 25.7721 14.5876Z" fill="#F4F4F4"/>
<path d="M63.0531 17.9149C63.0531 18.1703 63.043 18.4266 63.0531 18.6812C63.0616 18.8655 62.995 18.9228 62.8108 18.922C62.6265 18.9212 62.6033 18.8353 62.6049 18.6859C62.6049 18.1757 62.6118 17.6648 62.6049 17.1547C62.6049 16.9704 62.6652 16.9108 62.8479 16.9132C63.0306 16.9155 63.0601 16.9968 63.0554 17.1454C63.0477 17.4047 63.0531 17.6602 63.0531 17.9149Z" fill="#F4F4F4"/>
<path d="M21.3542 21.2357C21.3542 20.9671 21.3542 20.6977 21.3542 20.4291C21.3542 20.3021 21.4053 20.1968 21.5539 20.1968C21.5832 20.1947 21.6126 20.199 21.6401 20.2093C21.6676 20.2196 21.6926 20.2358 21.7132 20.2567C21.7339 20.2776 21.7498 20.3027 21.7599 20.3303C21.7699 20.3579 21.7738 20.3874 21.7714 20.4167C21.7761 20.9802 21.7745 21.5435 21.7668 22.1066C21.7693 22.1358 21.7652 22.1653 21.7547 22.1927C21.7443 22.2201 21.7277 22.2448 21.7063 22.2649C21.685 22.285 21.6593 22.3 21.6313 22.3088C21.6033 22.3176 21.5736 22.3199 21.5446 22.3156C21.3975 22.3086 21.3526 22.2064 21.3519 22.0787C21.3519 21.7969 21.3519 21.5151 21.3519 21.2334L21.3542 21.2357Z" fill="#83A047"/>
<path d="M34.8789 18.5364C34.7767 18.7462 34.6784 18.9676 34.5623 19.1789C34.5135 19.2664 34.3982 19.2664 34.3192 19.2308C34.224 19.1874 34.2913 19.1007 34.3076 19.0318C34.3463 18.87 34.385 18.7082 34.4229 18.548C34.4725 18.3537 34.6374 18.4071 34.769 18.3978C34.8495 18.3924 34.8719 18.4489 34.8789 18.5364Z" fill="#F4F4F4"/>
<path d="M31.4487 16.7723C31.3953 16.7676 31.3202 16.6825 31.2258 16.7521C31.1314 16.8218 31.0292 16.8806 30.9982 16.715C30.9913 16.6864 30.9906 16.6567 30.9959 16.6278C31.0012 16.5989 31.0126 16.5714 31.0293 16.5472C31.0459 16.523 31.0674 16.5025 31.0925 16.4871C31.1176 16.4718 31.1456 16.4618 31.1747 16.458C31.3512 16.4386 31.5269 16.5625 31.7166 16.444C31.7739 16.4077 31.8048 16.5215 31.794 16.5811C31.7584 16.7545 31.6415 16.8056 31.4487 16.7723Z" fill="#F4F4F4"/>
<path d="M36.8111 20.8091C36.7902 20.4925 36.6764 20.2293 36.3095 20.1852C35.9565 20.1426 35.6716 20.2286 35.5601 20.6133C35.5601 20.6388 35.5516 20.6644 35.5477 20.6907L35.5152 20.8587V20.8664C35.5152 20.8881 35.5152 20.9106 35.5098 20.933C35.5098 20.9795 35.5098 21.0267 35.5098 21.0731C35.5098 21.1614 35.5098 21.2365 35.5098 21.3828C35.5392 21.6034 35.5679 21.8232 35.5973 22.0439L35.6592 22.1553C36.2785 22.5734 36.7693 22.3458 36.8204 21.6135C36.8351 21.3454 36.832 21.0768 36.8111 20.8091ZM36.3652 21.8155C36.3459 21.9262 36.2878 22.0129 36.1647 22.0052C36.0416 21.9974 35.9898 21.9045 35.9797 21.7954C35.9627 21.6173 35.958 21.4385 35.948 21.2597C35.958 21.0801 35.9603 20.9005 35.9812 20.7224C35.9929 20.6187 36.0447 20.5173 36.1686 20.5127C36.2924 20.508 36.3466 20.5901 36.3644 20.707C36.4254 21.075 36.4257 21.4505 36.3652 21.8186V21.8155Z" fill="#83A047"/>
</g>
<defs>
<clipPath id="clip0_239_229">
<rect width="65" height="25.7326" fill="white"/>
</clipPath>
</defs>
</svg>
