<svg xmlns="http://www.w3.org/2000/svg" viewBox="0 0 100 100"><path d="M94.14,100H5.86A7.8,7.8,0,0,1,1.2,96.76,23.9,23.9,0,0,1,0,94.14V5.86c.08-.21.17-.41.24-.62A7.2,7.2,0,0,1,7.2,0H92.8a7.14,7.14,0,0,1,6.86,5c.1.3.22.59.34.89V94.14a7.81,7.81,0,0,1-3.32,4.72A27.66,27.66,0,0,1,94.14,100ZM76.81,28.92c-2.1.73-4.14,1.44-6.17,2.18a1.34,1.34,0,0,1-1.56-.37,11.41,11.41,0,0,0-16,.55,11.58,11.58,0,0,0-2.86,10.51,33,33,0,0,1-23.72-12C23.69,35.83,24.9,40.83,29.85,45l-.17.21-4.74-1.33a10.75,10.75,0,0,0,2.48,7,11.54,11.54,0,0,0,6.36,4l0,.28H28.88c1.95,4.9,5.42,7.5,10.73,8a23.58,23.58,0,0,1-16.72,4.81c.44.3.7.49,1,.64a32.14,32.14,0,0,0,13.06,4.22c6.77.62,13.29-.35,19.19-3.8C67.18,62.64,72.47,52.71,72.84,40a1.89,1.89,0,0,1,.78-1.71,20,20,0,0,0,4.66-5l-5.84,1.56-.13-.29A11.44,11.44,0,0,0,76.81,28.92Z"/></svg>