<svg width="583" height="637" viewBox="0 0 583 637" fill="none" xmlns="http://www.w3.org/2000/svg">
<g clip-path="url(#clip0_70_15)">
<path d="M561.221 417.882C561.221 337.556 514.481 293.162 421.921 257.145C346.533 227.997 313.027 202.785 313.027 151.691C313.027 114.333 341.424 69.6889 416.058 69.6889C452.33 69.5529 488.062 78.4783 520.009 95.6547L539.526 38.0273C528.138 31.7801 516.121 26.7545 503.675 23.0342H344.523C325.387 29.0353 307.64 38.7937 292.322 51.7379C277.004 64.6822 264.422 80.5522 255.314 98.4188L229.682 23.0342H76.8958V569.573H429.46C518.166 550.224 561.221 488.073 561.221 417.882ZM147.509 212.417L156.891 184.273C167.529 150.769 176.408 117.768 184.533 85.2684H186.124C194.501 116.93 202.375 149.345 214.604 185.111L268.046 342.916H147.509V212.417ZM239.315 510.94H147.174V398.115H282.789L320.985 510.94H239.315ZM318.975 283.949C340.205 296.499 362.658 306.855 385.986 314.856C459.866 343.335 489.1 372.568 489.1 423.745C489.1 472.745 455.594 508.26 397.797 515.882L318.975 283.949Z" fill="#191919"/>
<path d="M571.692 0H66.6765H55.452V11.3077V72.8718H66.6765V11.3077H571.692V580.797H341.005V592.104H571.692H583V580.797V11.3077V0H571.692Z" fill="#191919"/>
<path d="M67.0115 580.797V118.186H62.9908H52.3527H44.5626H34.5109H0V637H288.736V611.788V601.737V596.376V585.655V580.797H67.0115Z" fill="#191919"/>
<path d="M536.092 527.692C571.692 527.692 571.943 576.19 534.584 571.583C532.005 570.951 529.604 569.738 527.566 568.037C525.527 566.336 523.904 564.191 522.821 561.766C521.738 559.342 521.224 556.702 521.317 554.048C521.41 551.394 522.109 548.797 523.36 546.455C524.57 544.175 526.337 542.239 528.495 540.824C530.654 539.409 533.134 538.563 535.707 538.362C538.28 538.162 540.862 538.614 543.214 539.677C545.565 540.74 547.61 542.38 549.159 544.444C550.074 545.819 550.682 547.376 550.94 549.007C551.199 550.638 551.102 552.306 550.657 553.896C550.211 555.487 549.428 556.962 548.36 558.222C547.292 559.482 545.965 560.497 544.469 561.197C545.742 560.444 546.848 559.439 547.721 558.244C548.593 557.049 549.213 555.689 549.542 554.247C549.871 552.805 549.903 551.311 549.636 549.856C549.368 548.401 548.807 547.016 547.987 545.785C546.162 543.669 543.701 542.202 540.971 541.605C538.242 541.008 535.393 541.314 532.852 542.476C530.311 543.637 528.216 545.593 526.882 548.047C525.548 550.502 525.047 553.323 525.454 556.087C527.632 568.651 543.128 570.913 552.426 564.463C569.598 552.82 554.855 528.111 536.092 527.692Z" fill="#191919"/>
</g>
<defs>
<clipPath id="clip0_70_15">
<rect width="583" height="637" fill="white"/>
</clipPath>
</defs>
</svg>
