<svg xmlns="http://www.w3.org/2000/svg" viewBox="0 0 69.6 76.05">
    <defs>
        <style>
            .a {
                fill: none;
            }

            .b {
                fill: #fff;
            }
        </style>
    </defs>
    <path class="a"
        d="M8.46,68.72H36.37v.62H68.25v-68H8v9.13h.5Zm.72-16.91V2.75h51a22,22,0,0,1,4.28,1.79L62.1,11.42a26,26,0,0,0-12.41-3.1c-8.91,0-12.3,5.33-12.3,9.79,0,6.1,4,9.11,13,12.59C61.42,35,67,40.3,67,49.89c0,8.38-5.18,15.8-15.77,18.08H9.18Z" />
    <polygon class="a" points="33.76 47.53 17.61 47.53 17.61 60.99 28.57 60.99 38.33 60.99 38.31 60.95 33.76 47.53" />
    <path class="a" d="M25.62,22.14c-1.46-4.27-2.43-8.14-3.4-11.92H22c-1,3.88-2,7.85-3.3,11.82l-1.12,3.32V40.94H32Z" />
    <path class="a" d="M27.46,2.76l3.06,9a18,18,0,0,1,10.65-9H27.46Z" />
    <path class="a"
        d="M58.42,50.57c0-6.1-3.49-9.59-12.31-13a43.38,43.38,0,0,1-8-3.69l9.44,27.65C54.44,60.66,58.42,56.42,58.42,50.57Z" />
    <path class="b"
        d="M67,49.89C67,40.3,61.42,35,50.37,30.7c-9-3.48-13-6.49-13-12.59,0-4.46,3.39-9.79,12.3-9.79a26,26,0,0,1,12.41,3.1l2.33-6.88a22,22,0,0,0-4.28-1.79h-19a18,18,0,0,0-10.65,9l-3.06-9H9.18V68H51.27C61.86,65.69,67,58.27,67,49.89ZM17.61,25.36,18.73,22c1.27-4,2.33-7.94,3.3-11.82h.19c1,3.78,1.94,7.65,3.4,11.92L32,40.94H17.61ZM28.57,61h-11V47.53H33.76L38.32,61v0Zm9.51-27.1a43.38,43.38,0,0,0,8,3.69c8.82,3.4,12.31,6.89,12.31,13,0,5.85-4,10.09-10.9,11Z" />
    <polygon class="a"
        points="10.44 4.46 10.97 4.46 10.97 66.53 40.71 66.53 40.71 67.18 40.71 68.62 40.71 69.34 68.25 69.34 68.25 1.35 7.96 1.35 7.96 4.46 9.01 4.46 10.44 4.46" />
    <polygon class="b"
        points="68.25 0 7.96 0 6.62 0 6.62 1.35 6.62 8.7 7.96 8.7 7.96 1.35 68.25 1.35 68.25 69.34 40.71 69.34 40.71 70.69 68.25 70.69 69.6 70.69 69.6 69.34 69.6 1.35 69.6 0 68.25 0" />
    <polygon class="b"
        points="8 69.34 8 14.11 7.52 14.11 6.25 14.11 5.32 14.11 4.12 14.11 0 14.11 0 76.05 34.47 76.05 34.47 73.04 34.47 71.84 34.47 71.2 34.47 69.92 34.47 69.34 8 69.34" />
    <path class="b"
        d="M64,63c4.25,0,4.28,5.79-.18,5.24a2.08,2.08,0,0,1-1.34-3A1.83,1.83,0,0,1,65.56,65,1.37,1.37,0,0,1,65,67a1.3,1.3,0,0,0,.42-1.84,1.54,1.54,0,0,0-2.69,1.23c.26,1.5,2.11,1.77,3.22,1C68,66,66.24,63.05,64,63Z" />
</svg>